G04 MADE WITH FRITZING*
G04 WWW.FRITZING.ORG*
G04 DOUBLE SIDED*
G04 HOLES PLATED*
G04 CONTOUR ON CENTER OF CONTOUR VECTOR*
%ASAXBY*%
%FSLAX23Y23*%
%MOIN*%
%OFA0B0*%
%SFA1.0B1.0*%
%ADD10C,0.039370*%
%ADD11C,0.074000*%
%ADD12C,0.066194*%
%ADD13C,0.066222*%
%ADD14C,0.065993*%
%ADD15C,0.075000*%
%ADD16C,0.078000*%
%ADD17R,0.075000X0.075000*%
%ADD18R,0.078000X0.078000*%
%ADD19C,0.024000*%
%ADD20R,0.001000X0.001000*%
%LNCOPPER0*%
G90*
G70*
G54D10*
X1813Y466D03*
X1813Y658D03*
G54D11*
X213Y123D03*
X213Y233D03*
G54D12*
X2908Y118D03*
X3008Y118D03*
X3108Y118D03*
X3208Y118D03*
X3308Y118D03*
X3408Y118D03*
X3508Y118D03*
X3608Y118D03*
X2008Y118D03*
X2108Y118D03*
X2208Y118D03*
X2308Y118D03*
X2408Y118D03*
X2508Y118D03*
X2608Y118D03*
X2708Y118D03*
G54D13*
X2708Y2018D03*
X2808Y2018D03*
X2908Y2018D03*
X3008Y2018D03*
X3108Y2018D03*
X3208Y2018D03*
X3308Y2018D03*
X3408Y2018D03*
G54D12*
X1108Y118D03*
X1208Y118D03*
X1308Y118D03*
X1408Y118D03*
X1508Y118D03*
X1608Y118D03*
X1708Y118D03*
X1808Y118D03*
G54D13*
X1648Y2018D03*
X1548Y2018D03*
X1448Y2018D03*
X1348Y2018D03*
X1248Y2018D03*
X1148Y2018D03*
X1048Y2018D03*
X948Y2018D03*
X848Y2018D03*
X748Y2018D03*
X2508Y2018D03*
X2408Y2018D03*
X2308Y2018D03*
X2208Y2018D03*
X2108Y2018D03*
X2008Y2018D03*
X1908Y2018D03*
X1808Y2018D03*
G54D14*
X3708Y2018D03*
X3808Y2018D03*
X3708Y1918D03*
X3808Y1918D03*
X3708Y1818D03*
X3808Y1818D03*
X3708Y1718D03*
X3808Y1718D03*
X3708Y1618D03*
X3808Y1618D03*
X3708Y1518D03*
X3808Y1518D03*
X3708Y1418D03*
X3808Y1418D03*
X3708Y1318D03*
X3808Y1318D03*
X3708Y1218D03*
X3808Y1218D03*
X3708Y1118D03*
X3808Y1118D03*
X3708Y1018D03*
X3808Y1018D03*
X3708Y918D03*
X3808Y918D03*
X3708Y818D03*
X3808Y818D03*
X3708Y718D03*
X3808Y718D03*
X3708Y618D03*
X3808Y618D03*
X3708Y518D03*
X3808Y518D03*
X3708Y418D03*
X3808Y418D03*
X3708Y318D03*
X3808Y318D03*
G54D11*
X113Y1723D03*
X113Y1523D03*
X113Y1323D03*
X113Y1923D03*
X113Y1023D03*
X113Y823D03*
X113Y623D03*
X113Y423D03*
X3313Y523D03*
X3423Y523D03*
X3013Y523D03*
X3123Y523D03*
X3313Y1423D03*
X3423Y1423D03*
X3013Y1423D03*
X3123Y1423D03*
X3013Y1723D03*
X3123Y1723D03*
X3013Y1123D03*
X3123Y1123D03*
X3313Y1723D03*
X3423Y1723D03*
X3013Y823D03*
X3123Y823D03*
X3313Y1123D03*
X3423Y1123D03*
X3313Y823D03*
X3423Y823D03*
X2503Y1738D03*
X2613Y1738D03*
X2503Y1438D03*
X2613Y1438D03*
X2513Y1138D03*
X2623Y1138D03*
X2103Y1738D03*
X2213Y1738D03*
X2103Y1438D03*
X2213Y1438D03*
X2113Y1138D03*
X2223Y1138D03*
X2513Y708D03*
X2623Y708D03*
X2523Y403D03*
X2623Y393D03*
X2723Y403D03*
X2068Y403D03*
X2168Y393D03*
X2268Y403D03*
X2123Y703D03*
X2233Y703D03*
G54D15*
X1013Y630D03*
X713Y630D03*
X1013Y730D03*
X713Y730D03*
X1013Y1023D03*
X713Y1023D03*
X1013Y1123D03*
X713Y1123D03*
X1013Y1430D03*
X713Y1430D03*
X1013Y1530D03*
X713Y1530D03*
X1713Y630D03*
X1413Y630D03*
X1713Y730D03*
X1413Y730D03*
X1713Y1033D03*
X1413Y1033D03*
X1713Y1133D03*
X1413Y1133D03*
X1713Y1433D03*
X1413Y1433D03*
X1713Y1533D03*
X1413Y1533D03*
G54D16*
X1713Y1323D03*
X1613Y1323D03*
X1513Y1323D03*
X1713Y923D03*
X1613Y923D03*
X1513Y923D03*
X1713Y523D03*
X1613Y523D03*
X1513Y523D03*
X1013Y1323D03*
X913Y1323D03*
X813Y1323D03*
X1013Y913D03*
X913Y913D03*
X813Y913D03*
X1013Y523D03*
X913Y523D03*
X813Y523D03*
G54D17*
X1013Y630D03*
X1013Y1023D03*
X1013Y1430D03*
X1713Y630D03*
X1713Y1033D03*
X1713Y1433D03*
G54D18*
X1713Y1323D03*
X1713Y923D03*
X1713Y523D03*
X1013Y1323D03*
X1013Y913D03*
X1013Y523D03*
G54D19*
X3225Y1185D02*
X3403Y1399D01*
D02*
X3225Y1538D02*
X3225Y1185D01*
D02*
X3400Y1702D02*
X3225Y1538D01*
D02*
X3220Y876D02*
X3403Y1099D01*
D02*
X3225Y1190D02*
X3220Y876D01*
D02*
X3403Y1399D02*
X3225Y1190D01*
D02*
X3220Y600D02*
X3402Y800D01*
D02*
X3220Y876D02*
X3220Y600D01*
D02*
X3403Y1099D02*
X3220Y876D01*
D02*
X3225Y457D02*
X3225Y295D01*
D02*
X3225Y295D02*
X3402Y500D01*
D02*
X3220Y600D02*
X3225Y457D01*
D02*
X3402Y800D02*
X3220Y600D01*
D02*
X3644Y1428D02*
X3487Y1838D01*
D02*
X3487Y1838D02*
X3344Y1847D01*
D02*
X3344Y1847D02*
X3320Y1753D01*
D02*
X3678Y1423D02*
X3644Y1428D01*
D02*
X3639Y1319D02*
X3678Y1318D01*
D02*
X3482Y1523D02*
X3639Y1319D01*
D02*
X3354Y1528D02*
X3482Y1523D01*
D02*
X3324Y1452D02*
X3354Y1528D01*
D02*
X3401Y1233D02*
X3678Y1220D01*
D02*
X3332Y1147D02*
X3401Y1233D01*
D02*
X3416Y964D02*
X3331Y848D01*
D02*
X3682Y1104D02*
X3416Y964D01*
D02*
X3689Y995D02*
X3332Y547D01*
D02*
X1409Y1221D02*
X1617Y1005D01*
D02*
X1617Y1005D02*
X1614Y953D01*
D02*
X1313Y1248D02*
X1409Y1221D01*
D02*
X1064Y1849D02*
X1309Y1623D01*
D02*
X288Y1856D02*
X1064Y1849D01*
D02*
X1309Y1623D02*
X1313Y1248D01*
D02*
X139Y1743D02*
X288Y1856D01*
D02*
X1609Y1427D02*
X1612Y1353D01*
D02*
X1268Y1905D02*
X1609Y1427D01*
D02*
X146Y1923D02*
X1268Y1905D01*
D02*
X2898Y612D02*
X2908Y1988D01*
D02*
X2707Y530D02*
X2898Y612D01*
D02*
X1740Y621D02*
X1985Y538D01*
D02*
X1985Y538D02*
X2707Y530D01*
D02*
X2117Y1579D02*
X2313Y1556D01*
D02*
X2313Y1556D02*
X2365Y1490D01*
D02*
X2380Y842D02*
X2491Y730D01*
D02*
X2365Y1490D02*
X2380Y842D01*
D02*
X1670Y1997D02*
X2117Y1579D01*
D02*
X2026Y908D02*
X2110Y731D01*
D02*
X1570Y1997D02*
X1973Y1610D01*
D02*
X2023Y1556D02*
X2026Y908D01*
D02*
X1973Y1610D02*
X2023Y1556D01*
D02*
X613Y284D02*
X242Y135D01*
D02*
X1103Y288D02*
X613Y284D01*
D02*
X1285Y137D02*
X1103Y288D01*
D02*
X609Y628D02*
X143Y436D01*
D02*
X684Y629D02*
X609Y628D01*
D02*
X1608Y647D02*
X1612Y553D01*
D02*
X1364Y860D02*
X1608Y647D01*
D02*
X1194Y888D02*
X1364Y860D01*
D02*
X1194Y1562D02*
X1194Y888D01*
D02*
X976Y1772D02*
X1194Y1562D01*
D02*
X422Y1765D02*
X976Y1772D01*
D02*
X139Y1544D02*
X422Y1765D01*
D02*
X689Y1684D02*
X897Y1349D01*
D02*
X494Y1684D02*
X689Y1684D01*
D02*
X334Y1539D02*
X494Y1684D01*
D02*
X126Y1054D02*
X334Y1539D01*
D02*
X911Y1038D02*
X913Y943D01*
D02*
X793Y1183D02*
X911Y1038D01*
D02*
X494Y1172D02*
X793Y1183D01*
D02*
X137Y845D02*
X494Y1172D01*
D02*
X896Y632D02*
X908Y553D01*
D02*
X732Y804D02*
X896Y632D01*
D02*
X372Y797D02*
X732Y804D01*
D02*
X140Y642D02*
X372Y797D01*
D02*
X724Y483D02*
X715Y601D01*
D02*
X804Y406D02*
X724Y483D01*
D02*
X1026Y414D02*
X804Y406D01*
D02*
X1137Y487D02*
X1026Y414D01*
D02*
X1149Y709D02*
X1137Y487D01*
D02*
X1049Y820D02*
X1149Y709D01*
D02*
X804Y808D02*
X1049Y820D01*
D02*
X712Y908D02*
X804Y808D01*
D02*
X713Y995D02*
X712Y908D01*
D02*
X797Y820D02*
X716Y900D01*
D02*
X716Y900D02*
X714Y995D01*
D02*
X1053Y823D02*
X797Y820D01*
D02*
X1114Y911D02*
X1053Y823D01*
D02*
X1106Y1172D02*
X1114Y911D01*
D02*
X1064Y1229D02*
X1106Y1172D01*
D02*
X781Y1229D02*
X1064Y1229D01*
D02*
X716Y1286D02*
X781Y1229D01*
D02*
X714Y1401D02*
X716Y1286D01*
D02*
X1495Y146D02*
X1413Y329D01*
D02*
X1413Y329D02*
X1413Y601D01*
D02*
X2509Y1584D02*
X2596Y1712D01*
D02*
X2240Y1724D02*
X2509Y1584D01*
D02*
X2623Y1107D02*
X2623Y739D01*
D02*
X3220Y605D02*
X3402Y800D01*
D02*
X3136Y795D02*
X3220Y605D01*
D02*
X3220Y876D02*
X3403Y1099D01*
D02*
X3134Y1094D02*
X3220Y876D01*
D02*
X3225Y1176D02*
X3403Y1399D01*
D02*
X3135Y1394D02*
X3225Y1176D01*
D02*
X3225Y1538D02*
X3400Y1702D01*
D02*
X3138Y1696D02*
X3225Y1538D01*
D02*
X3225Y295D02*
X3402Y500D01*
D02*
X3136Y495D02*
X3225Y295D01*
D02*
X3684Y336D02*
X3448Y505D01*
D02*
X1421Y1406D02*
X1477Y1210D01*
D02*
X1477Y1210D02*
X1741Y1210D01*
D02*
X1741Y1210D02*
X1789Y1162D01*
D02*
X1789Y1162D02*
X1789Y850D01*
D02*
X1789Y850D02*
X1453Y850D01*
D02*
X1453Y850D02*
X1419Y1005D01*
D02*
X1415Y601D02*
X1426Y449D01*
D02*
X1751Y438D02*
X1796Y458D01*
D02*
X1426Y449D02*
X1751Y438D01*
D02*
X1809Y677D02*
X1789Y778D01*
D02*
X1789Y778D02*
X1786Y852D01*
D02*
X1786Y852D02*
X1453Y850D01*
D02*
X2707Y530D02*
X2719Y434D01*
D02*
X1985Y538D02*
X2164Y534D01*
D02*
X2164Y534D02*
X2249Y427D01*
D02*
X2164Y301D02*
X2012Y224D01*
D02*
X2012Y224D02*
X2009Y148D01*
D02*
X2166Y362D02*
X2164Y301D01*
D02*
X2495Y252D02*
X2259Y267D01*
D02*
X2259Y267D02*
X2111Y197D01*
D02*
X2620Y362D02*
X2615Y310D01*
D02*
X2615Y310D02*
X2495Y252D01*
D02*
X2111Y197D02*
X2109Y148D01*
G54D20*
X34Y1960D02*
X117Y1960D01*
X29Y1959D02*
X122Y1959D01*
X26Y1958D02*
X125Y1958D01*
X24Y1957D02*
X127Y1957D01*
X21Y1956D02*
X129Y1956D01*
X20Y1955D02*
X131Y1955D01*
X18Y1954D02*
X133Y1954D01*
X17Y1953D02*
X134Y1953D01*
X15Y1952D02*
X135Y1952D01*
X14Y1951D02*
X136Y1951D01*
X13Y1950D02*
X138Y1950D01*
X12Y1949D02*
X139Y1949D01*
X11Y1948D02*
X139Y1948D01*
X10Y1947D02*
X140Y1947D01*
X10Y1946D02*
X141Y1946D01*
X9Y1945D02*
X108Y1945D01*
X117Y1945D02*
X142Y1945D01*
X8Y1944D02*
X104Y1944D01*
X120Y1944D02*
X143Y1944D01*
X8Y1943D02*
X102Y1943D01*
X123Y1943D02*
X143Y1943D01*
X7Y1942D02*
X100Y1942D01*
X124Y1942D02*
X144Y1942D01*
X6Y1941D02*
X99Y1941D01*
X126Y1941D02*
X144Y1941D01*
X6Y1940D02*
X98Y1940D01*
X127Y1940D02*
X145Y1940D01*
X5Y1939D02*
X96Y1939D01*
X128Y1939D02*
X145Y1939D01*
X5Y1938D02*
X96Y1938D01*
X129Y1938D02*
X146Y1938D01*
X5Y1937D02*
X95Y1937D01*
X130Y1937D02*
X146Y1937D01*
X4Y1936D02*
X94Y1936D01*
X131Y1936D02*
X147Y1936D01*
X4Y1935D02*
X93Y1935D01*
X131Y1935D02*
X147Y1935D01*
X3Y1934D02*
X93Y1934D01*
X132Y1934D02*
X147Y1934D01*
X3Y1933D02*
X92Y1933D01*
X133Y1933D02*
X148Y1933D01*
X3Y1932D02*
X92Y1932D01*
X133Y1932D02*
X148Y1932D01*
X3Y1931D02*
X91Y1931D01*
X133Y1931D02*
X148Y1931D01*
X3Y1930D02*
X91Y1930D01*
X134Y1930D02*
X148Y1930D01*
X2Y1929D02*
X91Y1929D01*
X134Y1929D02*
X148Y1929D01*
X2Y1928D02*
X90Y1928D01*
X134Y1928D02*
X149Y1928D01*
X2Y1927D02*
X90Y1927D01*
X135Y1927D02*
X149Y1927D01*
X2Y1926D02*
X90Y1926D01*
X135Y1926D02*
X149Y1926D01*
X2Y1925D02*
X90Y1925D01*
X135Y1925D02*
X149Y1925D01*
X2Y1924D02*
X90Y1924D01*
X135Y1924D02*
X149Y1924D01*
X2Y1923D02*
X90Y1923D01*
X135Y1923D02*
X149Y1923D01*
X2Y1922D02*
X90Y1922D01*
X135Y1922D02*
X149Y1922D01*
X2Y1921D02*
X90Y1921D01*
X135Y1921D02*
X149Y1921D01*
X2Y1920D02*
X90Y1920D01*
X135Y1920D02*
X149Y1920D01*
X2Y1919D02*
X90Y1919D01*
X134Y1919D02*
X149Y1919D01*
X2Y1918D02*
X91Y1918D01*
X134Y1918D02*
X148Y1918D01*
X2Y1917D02*
X91Y1917D01*
X134Y1917D02*
X148Y1917D01*
X3Y1916D02*
X91Y1916D01*
X134Y1916D02*
X148Y1916D01*
X3Y1915D02*
X92Y1915D01*
X133Y1915D02*
X148Y1915D01*
X3Y1914D02*
X92Y1914D01*
X133Y1914D02*
X148Y1914D01*
X3Y1913D02*
X93Y1913D01*
X132Y1913D02*
X147Y1913D01*
X4Y1912D02*
X93Y1912D01*
X132Y1912D02*
X147Y1912D01*
X4Y1911D02*
X94Y1911D01*
X131Y1911D02*
X147Y1911D01*
X4Y1910D02*
X95Y1910D01*
X130Y1910D02*
X146Y1910D01*
X5Y1909D02*
X95Y1909D01*
X129Y1909D02*
X146Y1909D01*
X5Y1908D02*
X96Y1908D01*
X129Y1908D02*
X145Y1908D01*
X6Y1907D02*
X97Y1907D01*
X127Y1907D02*
X145Y1907D01*
X6Y1906D02*
X99Y1906D01*
X126Y1906D02*
X145Y1906D01*
X7Y1905D02*
X100Y1905D01*
X125Y1905D02*
X144Y1905D01*
X7Y1904D02*
X102Y1904D01*
X123Y1904D02*
X143Y1904D01*
X8Y1903D02*
X104Y1903D01*
X121Y1903D02*
X143Y1903D01*
X9Y1902D02*
X107Y1902D01*
X118Y1902D02*
X142Y1902D01*
X9Y1901D02*
X141Y1901D01*
X10Y1900D02*
X141Y1900D01*
X11Y1899D02*
X140Y1899D01*
X12Y1898D02*
X139Y1898D01*
X13Y1897D02*
X138Y1897D01*
X14Y1896D02*
X137Y1896D01*
X15Y1895D02*
X136Y1895D01*
X16Y1894D02*
X134Y1894D01*
X18Y1893D02*
X133Y1893D01*
X19Y1892D02*
X131Y1892D01*
X21Y1891D02*
X130Y1891D01*
X23Y1890D02*
X128Y1890D01*
X25Y1889D02*
X125Y1889D01*
X28Y1888D02*
X123Y1888D01*
X32Y1887D02*
X118Y1887D01*
X2066Y1775D02*
X2139Y1775D01*
X2466Y1775D02*
X2538Y1775D01*
X2066Y1774D02*
X2139Y1774D01*
X2466Y1774D02*
X2539Y1774D01*
X2066Y1773D02*
X2139Y1773D01*
X2466Y1773D02*
X2539Y1773D01*
X2066Y1772D02*
X2139Y1772D01*
X2466Y1772D02*
X2539Y1772D01*
X2066Y1771D02*
X2139Y1771D01*
X2466Y1771D02*
X2539Y1771D01*
X2066Y1770D02*
X2139Y1770D01*
X2466Y1770D02*
X2539Y1770D01*
X2066Y1769D02*
X2139Y1769D01*
X2466Y1769D02*
X2539Y1769D01*
X2066Y1768D02*
X2139Y1768D01*
X2466Y1768D02*
X2539Y1768D01*
X2066Y1767D02*
X2139Y1767D01*
X2466Y1767D02*
X2539Y1767D01*
X2066Y1766D02*
X2139Y1766D01*
X2466Y1766D02*
X2539Y1766D01*
X2066Y1765D02*
X2139Y1765D01*
X2466Y1765D02*
X2539Y1765D01*
X2066Y1764D02*
X2139Y1764D01*
X2466Y1764D02*
X2539Y1764D01*
X2066Y1763D02*
X2139Y1763D01*
X2466Y1763D02*
X2539Y1763D01*
X2066Y1762D02*
X2139Y1762D01*
X2466Y1762D02*
X2539Y1762D01*
X2066Y1761D02*
X2139Y1761D01*
X2466Y1761D02*
X2539Y1761D01*
X34Y1760D02*
X117Y1760D01*
X2066Y1760D02*
X2139Y1760D01*
X2466Y1760D02*
X2539Y1760D01*
X2976Y1760D02*
X3048Y1760D01*
X3275Y1760D02*
X3348Y1760D01*
X29Y1759D02*
X122Y1759D01*
X2066Y1759D02*
X2139Y1759D01*
X2466Y1759D02*
X2539Y1759D01*
X2975Y1759D02*
X3048Y1759D01*
X3275Y1759D02*
X3348Y1759D01*
X26Y1758D02*
X125Y1758D01*
X2066Y1758D02*
X2098Y1758D01*
X2106Y1758D02*
X2139Y1758D01*
X2466Y1758D02*
X2498Y1758D01*
X2506Y1758D02*
X2539Y1758D01*
X2975Y1758D02*
X3048Y1758D01*
X3275Y1758D02*
X3348Y1758D01*
X23Y1757D02*
X127Y1757D01*
X2066Y1757D02*
X2094Y1757D01*
X2110Y1757D02*
X2139Y1757D01*
X2466Y1757D02*
X2494Y1757D01*
X2510Y1757D02*
X2539Y1757D01*
X2975Y1757D02*
X3048Y1757D01*
X3275Y1757D02*
X3348Y1757D01*
X21Y1756D02*
X129Y1756D01*
X2066Y1756D02*
X2092Y1756D01*
X2112Y1756D02*
X2139Y1756D01*
X2466Y1756D02*
X2492Y1756D01*
X2512Y1756D02*
X2539Y1756D01*
X2975Y1756D02*
X3048Y1756D01*
X3275Y1756D02*
X3348Y1756D01*
X20Y1755D02*
X131Y1755D01*
X2066Y1755D02*
X2090Y1755D01*
X2114Y1755D02*
X2139Y1755D01*
X2466Y1755D02*
X2490Y1755D01*
X2514Y1755D02*
X2539Y1755D01*
X2975Y1755D02*
X3048Y1755D01*
X3275Y1755D02*
X3348Y1755D01*
X18Y1754D02*
X133Y1754D01*
X2066Y1754D02*
X2089Y1754D01*
X2115Y1754D02*
X2139Y1754D01*
X2466Y1754D02*
X2489Y1754D01*
X2515Y1754D02*
X2539Y1754D01*
X2975Y1754D02*
X3048Y1754D01*
X3275Y1754D02*
X3348Y1754D01*
X17Y1753D02*
X134Y1753D01*
X2066Y1753D02*
X2088Y1753D01*
X2116Y1753D02*
X2139Y1753D01*
X2466Y1753D02*
X2488Y1753D01*
X2516Y1753D02*
X2539Y1753D01*
X2975Y1753D02*
X3048Y1753D01*
X3275Y1753D02*
X3348Y1753D01*
X15Y1752D02*
X135Y1752D01*
X2066Y1752D02*
X2087Y1752D01*
X2117Y1752D02*
X2139Y1752D01*
X2466Y1752D02*
X2487Y1752D01*
X2517Y1752D02*
X2539Y1752D01*
X2975Y1752D02*
X3048Y1752D01*
X3275Y1752D02*
X3348Y1752D01*
X14Y1751D02*
X136Y1751D01*
X2066Y1751D02*
X2086Y1751D01*
X2118Y1751D02*
X2139Y1751D01*
X2466Y1751D02*
X2486Y1751D01*
X2518Y1751D02*
X2539Y1751D01*
X2975Y1751D02*
X3048Y1751D01*
X3275Y1751D02*
X3348Y1751D01*
X13Y1750D02*
X138Y1750D01*
X2066Y1750D02*
X2085Y1750D01*
X2119Y1750D02*
X2139Y1750D01*
X2466Y1750D02*
X2485Y1750D01*
X2519Y1750D02*
X2539Y1750D01*
X2975Y1750D02*
X3048Y1750D01*
X3275Y1750D02*
X3348Y1750D01*
X12Y1749D02*
X139Y1749D01*
X2066Y1749D02*
X2085Y1749D01*
X2119Y1749D02*
X2139Y1749D01*
X2466Y1749D02*
X2485Y1749D01*
X2519Y1749D02*
X2539Y1749D01*
X2975Y1749D02*
X3048Y1749D01*
X3275Y1749D02*
X3348Y1749D01*
X11Y1748D02*
X139Y1748D01*
X2066Y1748D02*
X2084Y1748D01*
X2120Y1748D02*
X2139Y1748D01*
X2466Y1748D02*
X2484Y1748D01*
X2520Y1748D02*
X2539Y1748D01*
X2975Y1748D02*
X3048Y1748D01*
X3275Y1748D02*
X3348Y1748D01*
X10Y1747D02*
X140Y1747D01*
X2066Y1747D02*
X2084Y1747D01*
X2121Y1747D02*
X2139Y1747D01*
X2466Y1747D02*
X2484Y1747D01*
X2521Y1747D02*
X2539Y1747D01*
X2975Y1747D02*
X3048Y1747D01*
X3275Y1747D02*
X3348Y1747D01*
X10Y1746D02*
X141Y1746D01*
X2066Y1746D02*
X2083Y1746D01*
X2121Y1746D02*
X2139Y1746D01*
X2466Y1746D02*
X2483Y1746D01*
X2521Y1746D02*
X2539Y1746D01*
X2975Y1746D02*
X3048Y1746D01*
X3275Y1746D02*
X3348Y1746D01*
X9Y1745D02*
X108Y1745D01*
X117Y1745D02*
X142Y1745D01*
X2066Y1745D02*
X2083Y1745D01*
X2121Y1745D02*
X2139Y1745D01*
X2466Y1745D02*
X2483Y1745D01*
X2521Y1745D02*
X2539Y1745D01*
X2975Y1745D02*
X3048Y1745D01*
X3275Y1745D02*
X3348Y1745D01*
X8Y1744D02*
X104Y1744D01*
X120Y1744D02*
X143Y1744D01*
X2066Y1744D02*
X2082Y1744D01*
X2122Y1744D02*
X2139Y1744D01*
X2466Y1744D02*
X2482Y1744D01*
X2522Y1744D02*
X2539Y1744D01*
X2975Y1744D02*
X3048Y1744D01*
X3275Y1744D02*
X3348Y1744D01*
X8Y1743D02*
X102Y1743D01*
X123Y1743D02*
X143Y1743D01*
X2066Y1743D02*
X2082Y1743D01*
X2122Y1743D02*
X2139Y1743D01*
X2466Y1743D02*
X2482Y1743D01*
X2522Y1743D02*
X2539Y1743D01*
X2975Y1743D02*
X3008Y1743D01*
X3016Y1743D02*
X3048Y1743D01*
X3275Y1743D02*
X3308Y1743D01*
X3316Y1743D02*
X3348Y1743D01*
X7Y1742D02*
X100Y1742D01*
X125Y1742D02*
X144Y1742D01*
X2066Y1742D02*
X2082Y1742D01*
X2122Y1742D02*
X2139Y1742D01*
X2466Y1742D02*
X2482Y1742D01*
X2522Y1742D02*
X2539Y1742D01*
X2975Y1742D02*
X3004Y1742D01*
X3020Y1742D02*
X3048Y1742D01*
X3275Y1742D02*
X3304Y1742D01*
X3320Y1742D02*
X3348Y1742D01*
X6Y1741D02*
X99Y1741D01*
X126Y1741D02*
X144Y1741D01*
X2066Y1741D02*
X2082Y1741D01*
X2122Y1741D02*
X2139Y1741D01*
X2466Y1741D02*
X2482Y1741D01*
X2522Y1741D02*
X2539Y1741D01*
X2975Y1741D02*
X3002Y1741D01*
X3022Y1741D02*
X3048Y1741D01*
X3275Y1741D02*
X3302Y1741D01*
X3322Y1741D02*
X3348Y1741D01*
X6Y1740D02*
X98Y1740D01*
X127Y1740D02*
X145Y1740D01*
X2066Y1740D02*
X2082Y1740D01*
X2122Y1740D02*
X2139Y1740D01*
X2466Y1740D02*
X2482Y1740D01*
X2522Y1740D02*
X2539Y1740D01*
X2975Y1740D02*
X3000Y1740D01*
X3024Y1740D02*
X3048Y1740D01*
X3275Y1740D02*
X3300Y1740D01*
X3324Y1740D02*
X3348Y1740D01*
X5Y1739D02*
X96Y1739D01*
X128Y1739D02*
X145Y1739D01*
X2066Y1739D02*
X2082Y1739D01*
X2123Y1739D02*
X2139Y1739D01*
X2466Y1739D02*
X2482Y1739D01*
X2522Y1739D02*
X2539Y1739D01*
X2975Y1739D02*
X2999Y1739D01*
X3025Y1739D02*
X3048Y1739D01*
X3275Y1739D02*
X3299Y1739D01*
X3325Y1739D02*
X3348Y1739D01*
X5Y1738D02*
X96Y1738D01*
X129Y1738D02*
X146Y1738D01*
X2066Y1738D02*
X2082Y1738D01*
X2123Y1738D02*
X2139Y1738D01*
X2466Y1738D02*
X2482Y1738D01*
X2522Y1738D02*
X2539Y1738D01*
X2975Y1738D02*
X2998Y1738D01*
X3026Y1738D02*
X3048Y1738D01*
X3275Y1738D02*
X3298Y1738D01*
X3326Y1738D02*
X3348Y1738D01*
X4Y1737D02*
X95Y1737D01*
X130Y1737D02*
X146Y1737D01*
X2066Y1737D02*
X2082Y1737D01*
X2122Y1737D02*
X2139Y1737D01*
X2466Y1737D02*
X2482Y1737D01*
X2522Y1737D02*
X2539Y1737D01*
X2975Y1737D02*
X2997Y1737D01*
X3027Y1737D02*
X3048Y1737D01*
X3275Y1737D02*
X3297Y1737D01*
X3327Y1737D02*
X3348Y1737D01*
X4Y1736D02*
X94Y1736D01*
X131Y1736D02*
X147Y1736D01*
X2066Y1736D02*
X2082Y1736D01*
X2122Y1736D02*
X2139Y1736D01*
X2466Y1736D02*
X2482Y1736D01*
X2522Y1736D02*
X2539Y1736D01*
X2975Y1736D02*
X2996Y1736D01*
X3028Y1736D02*
X3048Y1736D01*
X3275Y1736D02*
X3296Y1736D01*
X3328Y1736D02*
X3348Y1736D01*
X4Y1735D02*
X93Y1735D01*
X131Y1735D02*
X147Y1735D01*
X2066Y1735D02*
X2082Y1735D01*
X2122Y1735D02*
X2139Y1735D01*
X2466Y1735D02*
X2482Y1735D01*
X2522Y1735D02*
X2539Y1735D01*
X2975Y1735D02*
X2995Y1735D01*
X3029Y1735D02*
X3048Y1735D01*
X3275Y1735D02*
X3295Y1735D01*
X3329Y1735D02*
X3348Y1735D01*
X3Y1734D02*
X93Y1734D01*
X132Y1734D02*
X147Y1734D01*
X2066Y1734D02*
X2082Y1734D01*
X2122Y1734D02*
X2139Y1734D01*
X2466Y1734D02*
X2482Y1734D01*
X2522Y1734D02*
X2539Y1734D01*
X2975Y1734D02*
X2995Y1734D01*
X3029Y1734D02*
X3048Y1734D01*
X3275Y1734D02*
X3295Y1734D01*
X3329Y1734D02*
X3348Y1734D01*
X3Y1733D02*
X92Y1733D01*
X133Y1733D02*
X148Y1733D01*
X2066Y1733D02*
X2082Y1733D01*
X2122Y1733D02*
X2139Y1733D01*
X2466Y1733D02*
X2482Y1733D01*
X2522Y1733D02*
X2539Y1733D01*
X2975Y1733D02*
X2994Y1733D01*
X3030Y1733D02*
X3048Y1733D01*
X3275Y1733D02*
X3294Y1733D01*
X3330Y1733D02*
X3348Y1733D01*
X3Y1732D02*
X92Y1732D01*
X133Y1732D02*
X148Y1732D01*
X2066Y1732D02*
X2083Y1732D01*
X2121Y1732D02*
X2139Y1732D01*
X2466Y1732D02*
X2483Y1732D01*
X2521Y1732D02*
X2539Y1732D01*
X2975Y1732D02*
X2993Y1732D01*
X3030Y1732D02*
X3048Y1732D01*
X3275Y1732D02*
X3293Y1732D01*
X3330Y1732D02*
X3348Y1732D01*
X3Y1731D02*
X91Y1731D01*
X133Y1731D02*
X148Y1731D01*
X2066Y1731D02*
X2083Y1731D01*
X2121Y1731D02*
X2139Y1731D01*
X2466Y1731D02*
X2483Y1731D01*
X2521Y1731D02*
X2539Y1731D01*
X2975Y1731D02*
X2993Y1731D01*
X3031Y1731D02*
X3048Y1731D01*
X3275Y1731D02*
X3293Y1731D01*
X3331Y1731D02*
X3348Y1731D01*
X3Y1730D02*
X91Y1730D01*
X134Y1730D02*
X148Y1730D01*
X2066Y1730D02*
X2084Y1730D01*
X2121Y1730D02*
X2139Y1730D01*
X2466Y1730D02*
X2483Y1730D01*
X2521Y1730D02*
X2539Y1730D01*
X2975Y1730D02*
X2993Y1730D01*
X3031Y1730D02*
X3048Y1730D01*
X3275Y1730D02*
X3293Y1730D01*
X3331Y1730D02*
X3348Y1730D01*
X2Y1729D02*
X91Y1729D01*
X134Y1729D02*
X148Y1729D01*
X2066Y1729D02*
X2084Y1729D01*
X2120Y1729D02*
X2139Y1729D01*
X2466Y1729D02*
X2484Y1729D01*
X2520Y1729D02*
X2539Y1729D01*
X2975Y1729D02*
X2992Y1729D01*
X3032Y1729D02*
X3048Y1729D01*
X3275Y1729D02*
X3292Y1729D01*
X3332Y1729D02*
X3348Y1729D01*
X2Y1728D02*
X90Y1728D01*
X134Y1728D02*
X149Y1728D01*
X2066Y1728D02*
X2085Y1728D01*
X2120Y1728D02*
X2139Y1728D01*
X2466Y1728D02*
X2485Y1728D01*
X2520Y1728D02*
X2539Y1728D01*
X2975Y1728D02*
X2992Y1728D01*
X3032Y1728D02*
X3048Y1728D01*
X3275Y1728D02*
X3292Y1728D01*
X3332Y1728D02*
X3348Y1728D01*
X2Y1727D02*
X90Y1727D01*
X135Y1727D02*
X149Y1727D01*
X2066Y1727D02*
X2085Y1727D01*
X2119Y1727D02*
X2139Y1727D01*
X2466Y1727D02*
X2485Y1727D01*
X2519Y1727D02*
X2539Y1727D01*
X2975Y1727D02*
X2992Y1727D01*
X3032Y1727D02*
X3048Y1727D01*
X3275Y1727D02*
X3292Y1727D01*
X3332Y1727D02*
X3348Y1727D01*
X2Y1726D02*
X90Y1726D01*
X135Y1726D02*
X149Y1726D01*
X2066Y1726D02*
X2086Y1726D01*
X2118Y1726D02*
X2139Y1726D01*
X2466Y1726D02*
X2486Y1726D01*
X2518Y1726D02*
X2539Y1726D01*
X2975Y1726D02*
X2992Y1726D01*
X3032Y1726D02*
X3048Y1726D01*
X3275Y1726D02*
X3292Y1726D01*
X3332Y1726D02*
X3348Y1726D01*
X2Y1725D02*
X90Y1725D01*
X135Y1725D02*
X149Y1725D01*
X2066Y1725D02*
X2087Y1725D01*
X2117Y1725D02*
X2139Y1725D01*
X2466Y1725D02*
X2487Y1725D01*
X2517Y1725D02*
X2539Y1725D01*
X2975Y1725D02*
X2992Y1725D01*
X3032Y1725D02*
X3048Y1725D01*
X3275Y1725D02*
X3292Y1725D01*
X3332Y1725D02*
X3348Y1725D01*
X2Y1724D02*
X90Y1724D01*
X135Y1724D02*
X149Y1724D01*
X2066Y1724D02*
X2088Y1724D01*
X2116Y1724D02*
X2139Y1724D01*
X2466Y1724D02*
X2488Y1724D01*
X2516Y1724D02*
X2539Y1724D01*
X2975Y1724D02*
X2992Y1724D01*
X3032Y1724D02*
X3048Y1724D01*
X3275Y1724D02*
X3291Y1724D01*
X3332Y1724D02*
X3348Y1724D01*
X2Y1723D02*
X90Y1723D01*
X135Y1723D02*
X149Y1723D01*
X2066Y1723D02*
X2089Y1723D01*
X2115Y1723D02*
X2139Y1723D01*
X2466Y1723D02*
X2489Y1723D01*
X2515Y1723D02*
X2539Y1723D01*
X2975Y1723D02*
X2992Y1723D01*
X3032Y1723D02*
X3048Y1723D01*
X3275Y1723D02*
X3291Y1723D01*
X3332Y1723D02*
X3348Y1723D01*
X2Y1722D02*
X90Y1722D01*
X135Y1722D02*
X149Y1722D01*
X2066Y1722D02*
X2090Y1722D01*
X2114Y1722D02*
X2139Y1722D01*
X2466Y1722D02*
X2490Y1722D01*
X2514Y1722D02*
X2539Y1722D01*
X2975Y1722D02*
X2992Y1722D01*
X3032Y1722D02*
X3048Y1722D01*
X3275Y1722D02*
X3292Y1722D01*
X3332Y1722D02*
X3348Y1722D01*
X2Y1721D02*
X90Y1721D01*
X135Y1721D02*
X149Y1721D01*
X2066Y1721D02*
X2092Y1721D01*
X2112Y1721D02*
X2139Y1721D01*
X2466Y1721D02*
X2492Y1721D01*
X2512Y1721D02*
X2539Y1721D01*
X2975Y1721D02*
X2992Y1721D01*
X3032Y1721D02*
X3048Y1721D01*
X3275Y1721D02*
X3292Y1721D01*
X3332Y1721D02*
X3348Y1721D01*
X2Y1720D02*
X90Y1720D01*
X135Y1720D02*
X149Y1720D01*
X2066Y1720D02*
X2094Y1720D01*
X2110Y1720D02*
X2139Y1720D01*
X2466Y1720D02*
X2494Y1720D01*
X2510Y1720D02*
X2539Y1720D01*
X2975Y1720D02*
X2992Y1720D01*
X3032Y1720D02*
X3048Y1720D01*
X3275Y1720D02*
X3292Y1720D01*
X3332Y1720D02*
X3348Y1720D01*
X2Y1719D02*
X90Y1719D01*
X134Y1719D02*
X149Y1719D01*
X2066Y1719D02*
X2097Y1719D01*
X2107Y1719D02*
X2139Y1719D01*
X2466Y1719D02*
X2497Y1719D01*
X2507Y1719D02*
X2539Y1719D01*
X2975Y1719D02*
X2992Y1719D01*
X3032Y1719D02*
X3048Y1719D01*
X3275Y1719D02*
X3292Y1719D01*
X3332Y1719D02*
X3348Y1719D01*
X2Y1718D02*
X91Y1718D01*
X134Y1718D02*
X148Y1718D01*
X2066Y1718D02*
X2139Y1718D01*
X2466Y1718D02*
X2539Y1718D01*
X2975Y1718D02*
X2992Y1718D01*
X3032Y1718D02*
X3048Y1718D01*
X3275Y1718D02*
X3292Y1718D01*
X3332Y1718D02*
X3348Y1718D01*
X2Y1717D02*
X91Y1717D01*
X134Y1717D02*
X148Y1717D01*
X2066Y1717D02*
X2139Y1717D01*
X2466Y1717D02*
X2539Y1717D01*
X2975Y1717D02*
X2993Y1717D01*
X3031Y1717D02*
X3048Y1717D01*
X3275Y1717D02*
X3293Y1717D01*
X3331Y1717D02*
X3348Y1717D01*
X3Y1716D02*
X91Y1716D01*
X133Y1716D02*
X148Y1716D01*
X2066Y1716D02*
X2139Y1716D01*
X2466Y1716D02*
X2539Y1716D01*
X2975Y1716D02*
X2993Y1716D01*
X3031Y1716D02*
X3048Y1716D01*
X3275Y1716D02*
X3293Y1716D01*
X3331Y1716D02*
X3348Y1716D01*
X3Y1715D02*
X92Y1715D01*
X133Y1715D02*
X148Y1715D01*
X2066Y1715D02*
X2139Y1715D01*
X2466Y1715D02*
X2539Y1715D01*
X2975Y1715D02*
X2993Y1715D01*
X3031Y1715D02*
X3048Y1715D01*
X3275Y1715D02*
X3293Y1715D01*
X3331Y1715D02*
X3348Y1715D01*
X3Y1714D02*
X92Y1714D01*
X133Y1714D02*
X148Y1714D01*
X2066Y1714D02*
X2139Y1714D01*
X2466Y1714D02*
X2539Y1714D01*
X2975Y1714D02*
X2994Y1714D01*
X3030Y1714D02*
X3048Y1714D01*
X3275Y1714D02*
X3294Y1714D01*
X3330Y1714D02*
X3348Y1714D01*
X3Y1713D02*
X93Y1713D01*
X132Y1713D02*
X147Y1713D01*
X2066Y1713D02*
X2139Y1713D01*
X2466Y1713D02*
X2539Y1713D01*
X2975Y1713D02*
X2994Y1713D01*
X3029Y1713D02*
X3048Y1713D01*
X3275Y1713D02*
X3294Y1713D01*
X3329Y1713D02*
X3348Y1713D01*
X4Y1712D02*
X93Y1712D01*
X132Y1712D02*
X147Y1712D01*
X2066Y1712D02*
X2139Y1712D01*
X2466Y1712D02*
X2539Y1712D01*
X2975Y1712D02*
X2995Y1712D01*
X3029Y1712D02*
X3048Y1712D01*
X3275Y1712D02*
X3295Y1712D01*
X3329Y1712D02*
X3348Y1712D01*
X4Y1711D02*
X94Y1711D01*
X131Y1711D02*
X147Y1711D01*
X2066Y1711D02*
X2139Y1711D01*
X2466Y1711D02*
X2539Y1711D01*
X2975Y1711D02*
X2996Y1711D01*
X3028Y1711D02*
X3048Y1711D01*
X3275Y1711D02*
X3296Y1711D01*
X3328Y1711D02*
X3348Y1711D01*
X4Y1710D02*
X95Y1710D01*
X130Y1710D02*
X146Y1710D01*
X2066Y1710D02*
X2139Y1710D01*
X2466Y1710D02*
X2539Y1710D01*
X2975Y1710D02*
X2997Y1710D01*
X3027Y1710D02*
X3048Y1710D01*
X3275Y1710D02*
X3297Y1710D01*
X3327Y1710D02*
X3348Y1710D01*
X5Y1709D02*
X95Y1709D01*
X129Y1709D02*
X146Y1709D01*
X2066Y1709D02*
X2139Y1709D01*
X2466Y1709D02*
X2539Y1709D01*
X2975Y1709D02*
X2998Y1709D01*
X3026Y1709D02*
X3048Y1709D01*
X3275Y1709D02*
X3298Y1709D01*
X3326Y1709D02*
X3348Y1709D01*
X5Y1708D02*
X96Y1708D01*
X129Y1708D02*
X145Y1708D01*
X2066Y1708D02*
X2139Y1708D01*
X2466Y1708D02*
X2539Y1708D01*
X2975Y1708D02*
X2999Y1708D01*
X3025Y1708D02*
X3048Y1708D01*
X3275Y1708D02*
X3299Y1708D01*
X3325Y1708D02*
X3348Y1708D01*
X6Y1707D02*
X97Y1707D01*
X127Y1707D02*
X145Y1707D01*
X2066Y1707D02*
X2139Y1707D01*
X2466Y1707D02*
X2539Y1707D01*
X2975Y1707D02*
X3000Y1707D01*
X3024Y1707D02*
X3048Y1707D01*
X3275Y1707D02*
X3300Y1707D01*
X3324Y1707D02*
X3348Y1707D01*
X6Y1706D02*
X99Y1706D01*
X126Y1706D02*
X145Y1706D01*
X2066Y1706D02*
X2139Y1706D01*
X2466Y1706D02*
X2539Y1706D01*
X2975Y1706D02*
X3002Y1706D01*
X3022Y1706D02*
X3048Y1706D01*
X3275Y1706D02*
X3302Y1706D01*
X3322Y1706D02*
X3348Y1706D01*
X7Y1705D02*
X100Y1705D01*
X125Y1705D02*
X144Y1705D01*
X2066Y1705D02*
X2139Y1705D01*
X2466Y1705D02*
X2539Y1705D01*
X2975Y1705D02*
X3004Y1705D01*
X3020Y1705D02*
X3048Y1705D01*
X3275Y1705D02*
X3304Y1705D01*
X3320Y1705D02*
X3348Y1705D01*
X7Y1704D02*
X102Y1704D01*
X123Y1704D02*
X143Y1704D01*
X2066Y1704D02*
X2139Y1704D01*
X2466Y1704D02*
X2539Y1704D01*
X2975Y1704D02*
X3007Y1704D01*
X3017Y1704D02*
X3048Y1704D01*
X3275Y1704D02*
X3307Y1704D01*
X3317Y1704D02*
X3348Y1704D01*
X8Y1703D02*
X104Y1703D01*
X121Y1703D02*
X143Y1703D01*
X2066Y1703D02*
X2139Y1703D01*
X2466Y1703D02*
X2539Y1703D01*
X2975Y1703D02*
X3048Y1703D01*
X3275Y1703D02*
X3348Y1703D01*
X9Y1702D02*
X107Y1702D01*
X118Y1702D02*
X142Y1702D01*
X2066Y1702D02*
X2139Y1702D01*
X2466Y1702D02*
X2539Y1702D01*
X2975Y1702D02*
X3048Y1702D01*
X3275Y1702D02*
X3348Y1702D01*
X9Y1701D02*
X141Y1701D01*
X2975Y1701D02*
X3048Y1701D01*
X3275Y1701D02*
X3348Y1701D01*
X10Y1700D02*
X141Y1700D01*
X2975Y1700D02*
X3048Y1700D01*
X3275Y1700D02*
X3348Y1700D01*
X11Y1699D02*
X140Y1699D01*
X2975Y1699D02*
X3048Y1699D01*
X3275Y1699D02*
X3348Y1699D01*
X12Y1698D02*
X139Y1698D01*
X2975Y1698D02*
X3048Y1698D01*
X3275Y1698D02*
X3348Y1698D01*
X13Y1697D02*
X138Y1697D01*
X2975Y1697D02*
X3048Y1697D01*
X3275Y1697D02*
X3348Y1697D01*
X14Y1696D02*
X137Y1696D01*
X2975Y1696D02*
X3048Y1696D01*
X3275Y1696D02*
X3348Y1696D01*
X15Y1695D02*
X136Y1695D01*
X2975Y1695D02*
X3048Y1695D01*
X3275Y1695D02*
X3348Y1695D01*
X16Y1694D02*
X134Y1694D01*
X2975Y1694D02*
X3048Y1694D01*
X3275Y1694D02*
X3348Y1694D01*
X18Y1693D02*
X133Y1693D01*
X2975Y1693D02*
X3048Y1693D01*
X3275Y1693D02*
X3348Y1693D01*
X19Y1692D02*
X131Y1692D01*
X2975Y1692D02*
X3048Y1692D01*
X3275Y1692D02*
X3348Y1692D01*
X21Y1691D02*
X130Y1691D01*
X2975Y1691D02*
X3048Y1691D01*
X3275Y1691D02*
X3348Y1691D01*
X23Y1690D02*
X128Y1690D01*
X2975Y1690D02*
X3048Y1690D01*
X3275Y1690D02*
X3348Y1690D01*
X25Y1689D02*
X125Y1689D01*
X2975Y1689D02*
X3048Y1689D01*
X3275Y1689D02*
X3348Y1689D01*
X28Y1688D02*
X123Y1688D01*
X2975Y1688D02*
X3048Y1688D01*
X3275Y1688D02*
X3348Y1688D01*
X32Y1687D02*
X118Y1687D01*
X2975Y1687D02*
X3048Y1687D01*
X3275Y1687D02*
X3348Y1687D01*
X34Y1560D02*
X117Y1560D01*
X29Y1559D02*
X122Y1559D01*
X26Y1558D02*
X125Y1558D01*
X23Y1557D02*
X127Y1557D01*
X21Y1556D02*
X129Y1556D01*
X20Y1555D02*
X131Y1555D01*
X18Y1554D02*
X133Y1554D01*
X17Y1553D02*
X134Y1553D01*
X15Y1552D02*
X135Y1552D01*
X14Y1551D02*
X136Y1551D01*
X13Y1550D02*
X138Y1550D01*
X12Y1549D02*
X139Y1549D01*
X11Y1548D02*
X139Y1548D01*
X10Y1547D02*
X140Y1547D01*
X10Y1546D02*
X141Y1546D01*
X9Y1545D02*
X108Y1545D01*
X117Y1545D02*
X142Y1545D01*
X8Y1544D02*
X104Y1544D01*
X120Y1544D02*
X143Y1544D01*
X8Y1543D02*
X102Y1543D01*
X123Y1543D02*
X143Y1543D01*
X7Y1542D02*
X100Y1542D01*
X125Y1542D02*
X144Y1542D01*
X6Y1541D02*
X99Y1541D01*
X126Y1541D02*
X144Y1541D01*
X6Y1540D02*
X98Y1540D01*
X127Y1540D02*
X145Y1540D01*
X5Y1539D02*
X96Y1539D01*
X128Y1539D02*
X145Y1539D01*
X5Y1538D02*
X95Y1538D01*
X129Y1538D02*
X146Y1538D01*
X4Y1537D02*
X95Y1537D01*
X130Y1537D02*
X146Y1537D01*
X4Y1536D02*
X94Y1536D01*
X131Y1536D02*
X147Y1536D01*
X4Y1535D02*
X93Y1535D01*
X132Y1535D02*
X147Y1535D01*
X3Y1534D02*
X93Y1534D01*
X132Y1534D02*
X147Y1534D01*
X3Y1533D02*
X92Y1533D01*
X133Y1533D02*
X148Y1533D01*
X3Y1532D02*
X92Y1532D01*
X133Y1532D02*
X148Y1532D01*
X3Y1531D02*
X91Y1531D01*
X133Y1531D02*
X148Y1531D01*
X2Y1530D02*
X91Y1530D01*
X134Y1530D02*
X148Y1530D01*
X2Y1529D02*
X91Y1529D01*
X134Y1529D02*
X148Y1529D01*
X2Y1528D02*
X90Y1528D01*
X134Y1528D02*
X149Y1528D01*
X2Y1527D02*
X90Y1527D01*
X135Y1527D02*
X149Y1527D01*
X2Y1526D02*
X90Y1526D01*
X135Y1526D02*
X149Y1526D01*
X2Y1525D02*
X90Y1525D01*
X135Y1525D02*
X149Y1525D01*
X2Y1524D02*
X90Y1524D01*
X135Y1524D02*
X149Y1524D01*
X2Y1523D02*
X90Y1523D01*
X135Y1523D02*
X149Y1523D01*
X2Y1522D02*
X90Y1522D01*
X135Y1522D02*
X149Y1522D01*
X2Y1521D02*
X90Y1521D01*
X135Y1521D02*
X149Y1521D01*
X2Y1520D02*
X90Y1520D01*
X135Y1520D02*
X149Y1520D01*
X2Y1519D02*
X90Y1519D01*
X134Y1519D02*
X149Y1519D01*
X2Y1518D02*
X91Y1518D01*
X134Y1518D02*
X148Y1518D01*
X2Y1517D02*
X91Y1517D01*
X134Y1517D02*
X148Y1517D01*
X3Y1516D02*
X91Y1516D01*
X133Y1516D02*
X148Y1516D01*
X3Y1515D02*
X92Y1515D01*
X133Y1515D02*
X148Y1515D01*
X3Y1514D02*
X92Y1514D01*
X133Y1514D02*
X148Y1514D01*
X3Y1513D02*
X93Y1513D01*
X132Y1513D02*
X147Y1513D01*
X4Y1512D02*
X93Y1512D01*
X132Y1512D02*
X147Y1512D01*
X4Y1511D02*
X94Y1511D01*
X131Y1511D02*
X147Y1511D01*
X4Y1510D02*
X95Y1510D01*
X130Y1510D02*
X146Y1510D01*
X5Y1509D02*
X95Y1509D01*
X129Y1509D02*
X146Y1509D01*
X5Y1508D02*
X96Y1508D01*
X128Y1508D02*
X145Y1508D01*
X6Y1507D02*
X97Y1507D01*
X127Y1507D02*
X145Y1507D01*
X6Y1506D02*
X99Y1506D01*
X126Y1506D02*
X145Y1506D01*
X7Y1505D02*
X100Y1505D01*
X125Y1505D02*
X144Y1505D01*
X7Y1504D02*
X102Y1504D01*
X123Y1504D02*
X143Y1504D01*
X8Y1503D02*
X104Y1503D01*
X121Y1503D02*
X143Y1503D01*
X9Y1502D02*
X107Y1502D01*
X118Y1502D02*
X142Y1502D01*
X10Y1501D02*
X141Y1501D01*
X10Y1500D02*
X140Y1500D01*
X11Y1499D02*
X140Y1499D01*
X12Y1498D02*
X139Y1498D01*
X13Y1497D02*
X138Y1497D01*
X14Y1496D02*
X137Y1496D01*
X15Y1495D02*
X136Y1495D01*
X17Y1494D02*
X134Y1494D01*
X18Y1493D02*
X133Y1493D01*
X19Y1492D02*
X131Y1492D01*
X21Y1491D02*
X130Y1491D01*
X23Y1490D02*
X128Y1490D01*
X25Y1489D02*
X125Y1489D01*
X28Y1488D02*
X123Y1488D01*
X33Y1487D02*
X118Y1487D01*
X2066Y1475D02*
X2139Y1475D01*
X2466Y1475D02*
X2539Y1475D01*
X2066Y1474D02*
X2139Y1474D01*
X2466Y1474D02*
X2539Y1474D01*
X2066Y1473D02*
X2139Y1473D01*
X2466Y1473D02*
X2539Y1473D01*
X2066Y1472D02*
X2139Y1472D01*
X2466Y1472D02*
X2539Y1472D01*
X2066Y1471D02*
X2139Y1471D01*
X2466Y1471D02*
X2539Y1471D01*
X2066Y1470D02*
X2139Y1470D01*
X2466Y1470D02*
X2539Y1470D01*
X2066Y1469D02*
X2139Y1469D01*
X2466Y1469D02*
X2539Y1469D01*
X2066Y1468D02*
X2139Y1468D01*
X2466Y1468D02*
X2539Y1468D01*
X2066Y1467D02*
X2139Y1467D01*
X2466Y1467D02*
X2539Y1467D01*
X2066Y1466D02*
X2139Y1466D01*
X2466Y1466D02*
X2539Y1466D01*
X2066Y1465D02*
X2139Y1465D01*
X2466Y1465D02*
X2539Y1465D01*
X2066Y1464D02*
X2139Y1464D01*
X2466Y1464D02*
X2539Y1464D01*
X2066Y1463D02*
X2139Y1463D01*
X2466Y1463D02*
X2539Y1463D01*
X2066Y1462D02*
X2139Y1462D01*
X2466Y1462D02*
X2539Y1462D01*
X2066Y1461D02*
X2139Y1461D01*
X2466Y1461D02*
X2539Y1461D01*
X2066Y1460D02*
X2139Y1460D01*
X2466Y1460D02*
X2539Y1460D01*
X2975Y1460D02*
X3048Y1460D01*
X3275Y1460D02*
X3348Y1460D01*
X2066Y1459D02*
X2139Y1459D01*
X2466Y1459D02*
X2539Y1459D01*
X2975Y1459D02*
X3048Y1459D01*
X3275Y1459D02*
X3348Y1459D01*
X2066Y1458D02*
X2098Y1458D01*
X2107Y1458D02*
X2139Y1458D01*
X2466Y1458D02*
X2497Y1458D01*
X2507Y1458D02*
X2539Y1458D01*
X2975Y1458D02*
X3048Y1458D01*
X3275Y1458D02*
X3348Y1458D01*
X2066Y1457D02*
X2094Y1457D01*
X2110Y1457D02*
X2139Y1457D01*
X2466Y1457D02*
X2494Y1457D01*
X2510Y1457D02*
X2539Y1457D01*
X2975Y1457D02*
X3048Y1457D01*
X3275Y1457D02*
X3348Y1457D01*
X2066Y1456D02*
X2092Y1456D01*
X2112Y1456D02*
X2139Y1456D01*
X2466Y1456D02*
X2492Y1456D01*
X2512Y1456D02*
X2539Y1456D01*
X2975Y1456D02*
X3048Y1456D01*
X3275Y1456D02*
X3348Y1456D01*
X2066Y1455D02*
X2090Y1455D01*
X2114Y1455D02*
X2139Y1455D01*
X2466Y1455D02*
X2490Y1455D01*
X2514Y1455D02*
X2539Y1455D01*
X2975Y1455D02*
X3048Y1455D01*
X3275Y1455D02*
X3348Y1455D01*
X2066Y1454D02*
X2089Y1454D01*
X2115Y1454D02*
X2139Y1454D01*
X2466Y1454D02*
X2489Y1454D01*
X2515Y1454D02*
X2539Y1454D01*
X2975Y1454D02*
X3048Y1454D01*
X3275Y1454D02*
X3348Y1454D01*
X2066Y1453D02*
X2088Y1453D01*
X2116Y1453D02*
X2139Y1453D01*
X2466Y1453D02*
X2488Y1453D01*
X2516Y1453D02*
X2539Y1453D01*
X2975Y1453D02*
X3048Y1453D01*
X3275Y1453D02*
X3348Y1453D01*
X2066Y1452D02*
X2087Y1452D01*
X2117Y1452D02*
X2139Y1452D01*
X2466Y1452D02*
X2487Y1452D01*
X2517Y1452D02*
X2539Y1452D01*
X2975Y1452D02*
X3048Y1452D01*
X3275Y1452D02*
X3348Y1452D01*
X2066Y1451D02*
X2086Y1451D01*
X2118Y1451D02*
X2139Y1451D01*
X2466Y1451D02*
X2486Y1451D01*
X2518Y1451D02*
X2539Y1451D01*
X2975Y1451D02*
X3048Y1451D01*
X3275Y1451D02*
X3348Y1451D01*
X2066Y1450D02*
X2085Y1450D01*
X2119Y1450D02*
X2139Y1450D01*
X2466Y1450D02*
X2485Y1450D01*
X2519Y1450D02*
X2539Y1450D01*
X2975Y1450D02*
X3048Y1450D01*
X3275Y1450D02*
X3348Y1450D01*
X2066Y1449D02*
X2085Y1449D01*
X2120Y1449D02*
X2139Y1449D01*
X2466Y1449D02*
X2485Y1449D01*
X2519Y1449D02*
X2539Y1449D01*
X2975Y1449D02*
X3048Y1449D01*
X3275Y1449D02*
X3348Y1449D01*
X2066Y1448D02*
X2084Y1448D01*
X2120Y1448D02*
X2139Y1448D01*
X2466Y1448D02*
X2484Y1448D01*
X2520Y1448D02*
X2539Y1448D01*
X2975Y1448D02*
X3048Y1448D01*
X3275Y1448D02*
X3348Y1448D01*
X2066Y1447D02*
X2084Y1447D01*
X2121Y1447D02*
X2139Y1447D01*
X2466Y1447D02*
X2484Y1447D01*
X2521Y1447D02*
X2539Y1447D01*
X2975Y1447D02*
X3048Y1447D01*
X3275Y1447D02*
X3348Y1447D01*
X2066Y1446D02*
X2083Y1446D01*
X2121Y1446D02*
X2139Y1446D01*
X2466Y1446D02*
X2483Y1446D01*
X2521Y1446D02*
X2539Y1446D01*
X2975Y1446D02*
X3048Y1446D01*
X3275Y1446D02*
X3348Y1446D01*
X2066Y1445D02*
X2083Y1445D01*
X2121Y1445D02*
X2139Y1445D01*
X2466Y1445D02*
X2483Y1445D01*
X2521Y1445D02*
X2539Y1445D01*
X2975Y1445D02*
X3048Y1445D01*
X3275Y1445D02*
X3348Y1445D01*
X2066Y1444D02*
X2082Y1444D01*
X2122Y1444D02*
X2139Y1444D01*
X2466Y1444D02*
X2482Y1444D01*
X2522Y1444D02*
X2539Y1444D01*
X2975Y1444D02*
X3048Y1444D01*
X3275Y1444D02*
X3348Y1444D01*
X2066Y1443D02*
X2082Y1443D01*
X2122Y1443D02*
X2139Y1443D01*
X2466Y1443D02*
X2482Y1443D01*
X2522Y1443D02*
X2539Y1443D01*
X2975Y1443D02*
X3007Y1443D01*
X3017Y1443D02*
X3048Y1443D01*
X3275Y1443D02*
X3307Y1443D01*
X3316Y1443D02*
X3348Y1443D01*
X2066Y1442D02*
X2082Y1442D01*
X2122Y1442D02*
X2139Y1442D01*
X2466Y1442D02*
X2482Y1442D01*
X2522Y1442D02*
X2539Y1442D01*
X2975Y1442D02*
X3004Y1442D01*
X3020Y1442D02*
X3048Y1442D01*
X3275Y1442D02*
X3304Y1442D01*
X3320Y1442D02*
X3348Y1442D01*
X2066Y1441D02*
X2082Y1441D01*
X2122Y1441D02*
X2139Y1441D01*
X2466Y1441D02*
X2482Y1441D01*
X2522Y1441D02*
X2539Y1441D01*
X2975Y1441D02*
X3002Y1441D01*
X3022Y1441D02*
X3048Y1441D01*
X3275Y1441D02*
X3302Y1441D01*
X3322Y1441D02*
X3348Y1441D01*
X2066Y1440D02*
X2082Y1440D01*
X2122Y1440D02*
X2139Y1440D01*
X2466Y1440D02*
X2482Y1440D01*
X2522Y1440D02*
X2539Y1440D01*
X2975Y1440D02*
X3000Y1440D01*
X3024Y1440D02*
X3048Y1440D01*
X3275Y1440D02*
X3300Y1440D01*
X3324Y1440D02*
X3348Y1440D01*
X2066Y1439D02*
X2082Y1439D01*
X2123Y1439D02*
X2139Y1439D01*
X2466Y1439D02*
X2482Y1439D01*
X2522Y1439D02*
X2539Y1439D01*
X2975Y1439D02*
X2999Y1439D01*
X3025Y1439D02*
X3048Y1439D01*
X3275Y1439D02*
X3299Y1439D01*
X3325Y1439D02*
X3348Y1439D01*
X2066Y1438D02*
X2082Y1438D01*
X2123Y1438D02*
X2139Y1438D01*
X2466Y1438D02*
X2482Y1438D01*
X2522Y1438D02*
X2539Y1438D01*
X2975Y1438D02*
X2998Y1438D01*
X3026Y1438D02*
X3048Y1438D01*
X3275Y1438D02*
X3298Y1438D01*
X3326Y1438D02*
X3348Y1438D01*
X2066Y1437D02*
X2082Y1437D01*
X2122Y1437D02*
X2139Y1437D01*
X2466Y1437D02*
X2482Y1437D01*
X2522Y1437D02*
X2539Y1437D01*
X2975Y1437D02*
X2997Y1437D01*
X3027Y1437D02*
X3048Y1437D01*
X3275Y1437D02*
X3297Y1437D01*
X3327Y1437D02*
X3348Y1437D01*
X2066Y1436D02*
X2082Y1436D01*
X2122Y1436D02*
X2139Y1436D01*
X2466Y1436D02*
X2482Y1436D01*
X2522Y1436D02*
X2539Y1436D01*
X2975Y1436D02*
X2996Y1436D01*
X3028Y1436D02*
X3048Y1436D01*
X3275Y1436D02*
X3296Y1436D01*
X3328Y1436D02*
X3348Y1436D01*
X2066Y1435D02*
X2082Y1435D01*
X2122Y1435D02*
X2139Y1435D01*
X2466Y1435D02*
X2482Y1435D01*
X2522Y1435D02*
X2539Y1435D01*
X2975Y1435D02*
X2995Y1435D01*
X3029Y1435D02*
X3048Y1435D01*
X3275Y1435D02*
X3295Y1435D01*
X3329Y1435D02*
X3348Y1435D01*
X2066Y1434D02*
X2082Y1434D01*
X2122Y1434D02*
X2139Y1434D01*
X2466Y1434D02*
X2482Y1434D01*
X2522Y1434D02*
X2539Y1434D01*
X2975Y1434D02*
X2995Y1434D01*
X3029Y1434D02*
X3048Y1434D01*
X3275Y1434D02*
X3295Y1434D01*
X3329Y1434D02*
X3348Y1434D01*
X2066Y1433D02*
X2082Y1433D01*
X2122Y1433D02*
X2139Y1433D01*
X2466Y1433D02*
X2482Y1433D01*
X2522Y1433D02*
X2539Y1433D01*
X2975Y1433D02*
X2994Y1433D01*
X3030Y1433D02*
X3048Y1433D01*
X3275Y1433D02*
X3294Y1433D01*
X3330Y1433D02*
X3348Y1433D01*
X2066Y1432D02*
X2083Y1432D01*
X2121Y1432D02*
X2139Y1432D01*
X2466Y1432D02*
X2483Y1432D01*
X2521Y1432D02*
X2539Y1432D01*
X2975Y1432D02*
X2993Y1432D01*
X3030Y1432D02*
X3048Y1432D01*
X3275Y1432D02*
X3293Y1432D01*
X3330Y1432D02*
X3348Y1432D01*
X2066Y1431D02*
X2083Y1431D01*
X2121Y1431D02*
X2139Y1431D01*
X2466Y1431D02*
X2483Y1431D01*
X2521Y1431D02*
X2539Y1431D01*
X2975Y1431D02*
X2993Y1431D01*
X3031Y1431D02*
X3048Y1431D01*
X3275Y1431D02*
X3293Y1431D01*
X3331Y1431D02*
X3348Y1431D01*
X2066Y1430D02*
X2084Y1430D01*
X2121Y1430D02*
X2139Y1430D01*
X2466Y1430D02*
X2483Y1430D01*
X2521Y1430D02*
X2539Y1430D01*
X2975Y1430D02*
X2993Y1430D01*
X3031Y1430D02*
X3048Y1430D01*
X3275Y1430D02*
X3293Y1430D01*
X3331Y1430D02*
X3348Y1430D01*
X2066Y1429D02*
X2084Y1429D01*
X2120Y1429D02*
X2139Y1429D01*
X2466Y1429D02*
X2484Y1429D01*
X2520Y1429D02*
X2539Y1429D01*
X2975Y1429D02*
X2992Y1429D01*
X3032Y1429D02*
X3048Y1429D01*
X3275Y1429D02*
X3292Y1429D01*
X3332Y1429D02*
X3348Y1429D01*
X2066Y1428D02*
X2085Y1428D01*
X2120Y1428D02*
X2139Y1428D01*
X2466Y1428D02*
X2485Y1428D01*
X2520Y1428D02*
X2539Y1428D01*
X2975Y1428D02*
X2992Y1428D01*
X3032Y1428D02*
X3048Y1428D01*
X3275Y1428D02*
X3292Y1428D01*
X3332Y1428D02*
X3348Y1428D01*
X2066Y1427D02*
X2085Y1427D01*
X2119Y1427D02*
X2139Y1427D01*
X2466Y1427D02*
X2485Y1427D01*
X2519Y1427D02*
X2539Y1427D01*
X2975Y1427D02*
X2992Y1427D01*
X3032Y1427D02*
X3048Y1427D01*
X3275Y1427D02*
X3292Y1427D01*
X3332Y1427D02*
X3348Y1427D01*
X2066Y1426D02*
X2086Y1426D01*
X2118Y1426D02*
X2139Y1426D01*
X2466Y1426D02*
X2486Y1426D01*
X2518Y1426D02*
X2539Y1426D01*
X2975Y1426D02*
X2992Y1426D01*
X3032Y1426D02*
X3048Y1426D01*
X3275Y1426D02*
X3292Y1426D01*
X3332Y1426D02*
X3348Y1426D01*
X2066Y1425D02*
X2087Y1425D01*
X2117Y1425D02*
X2139Y1425D01*
X2466Y1425D02*
X2487Y1425D01*
X2517Y1425D02*
X2539Y1425D01*
X2975Y1425D02*
X2992Y1425D01*
X3032Y1425D02*
X3048Y1425D01*
X3275Y1425D02*
X3292Y1425D01*
X3332Y1425D02*
X3348Y1425D01*
X2066Y1424D02*
X2088Y1424D01*
X2116Y1424D02*
X2139Y1424D01*
X2466Y1424D02*
X2488Y1424D01*
X2516Y1424D02*
X2539Y1424D01*
X2975Y1424D02*
X2992Y1424D01*
X3032Y1424D02*
X3048Y1424D01*
X3275Y1424D02*
X3291Y1424D01*
X3332Y1424D02*
X3348Y1424D01*
X2066Y1423D02*
X2089Y1423D01*
X2115Y1423D02*
X2139Y1423D01*
X2466Y1423D02*
X2489Y1423D01*
X2515Y1423D02*
X2539Y1423D01*
X2975Y1423D02*
X2992Y1423D01*
X3032Y1423D02*
X3048Y1423D01*
X3275Y1423D02*
X3291Y1423D01*
X3332Y1423D02*
X3348Y1423D01*
X2066Y1422D02*
X2090Y1422D01*
X2114Y1422D02*
X2139Y1422D01*
X2466Y1422D02*
X2490Y1422D01*
X2514Y1422D02*
X2539Y1422D01*
X2975Y1422D02*
X2992Y1422D01*
X3032Y1422D02*
X3048Y1422D01*
X3275Y1422D02*
X3292Y1422D01*
X3332Y1422D02*
X3348Y1422D01*
X2066Y1421D02*
X2092Y1421D01*
X2112Y1421D02*
X2139Y1421D01*
X2466Y1421D02*
X2492Y1421D01*
X2512Y1421D02*
X2539Y1421D01*
X2975Y1421D02*
X2992Y1421D01*
X3032Y1421D02*
X3048Y1421D01*
X3275Y1421D02*
X3292Y1421D01*
X3332Y1421D02*
X3348Y1421D01*
X2066Y1420D02*
X2094Y1420D01*
X2110Y1420D02*
X2139Y1420D01*
X2466Y1420D02*
X2494Y1420D01*
X2510Y1420D02*
X2539Y1420D01*
X2975Y1420D02*
X2992Y1420D01*
X3032Y1420D02*
X3048Y1420D01*
X3275Y1420D02*
X3292Y1420D01*
X3332Y1420D02*
X3348Y1420D01*
X2066Y1419D02*
X2097Y1419D01*
X2107Y1419D02*
X2139Y1419D01*
X2466Y1419D02*
X2497Y1419D01*
X2507Y1419D02*
X2539Y1419D01*
X2975Y1419D02*
X2992Y1419D01*
X3032Y1419D02*
X3048Y1419D01*
X3275Y1419D02*
X3292Y1419D01*
X3332Y1419D02*
X3348Y1419D01*
X2066Y1418D02*
X2139Y1418D01*
X2466Y1418D02*
X2539Y1418D01*
X2975Y1418D02*
X2992Y1418D01*
X3032Y1418D02*
X3048Y1418D01*
X3275Y1418D02*
X3292Y1418D01*
X3332Y1418D02*
X3348Y1418D01*
X2066Y1417D02*
X2139Y1417D01*
X2466Y1417D02*
X2539Y1417D01*
X2975Y1417D02*
X2993Y1417D01*
X3031Y1417D02*
X3048Y1417D01*
X3275Y1417D02*
X3293Y1417D01*
X3331Y1417D02*
X3348Y1417D01*
X2066Y1416D02*
X2139Y1416D01*
X2466Y1416D02*
X2539Y1416D01*
X2975Y1416D02*
X2993Y1416D01*
X3031Y1416D02*
X3048Y1416D01*
X3275Y1416D02*
X3293Y1416D01*
X3331Y1416D02*
X3348Y1416D01*
X2066Y1415D02*
X2139Y1415D01*
X2466Y1415D02*
X2539Y1415D01*
X2975Y1415D02*
X2993Y1415D01*
X3031Y1415D02*
X3048Y1415D01*
X3275Y1415D02*
X3293Y1415D01*
X3330Y1415D02*
X3348Y1415D01*
X2066Y1414D02*
X2139Y1414D01*
X2466Y1414D02*
X2539Y1414D01*
X2975Y1414D02*
X2994Y1414D01*
X3030Y1414D02*
X3048Y1414D01*
X3275Y1414D02*
X3294Y1414D01*
X3330Y1414D02*
X3348Y1414D01*
X2066Y1413D02*
X2139Y1413D01*
X2466Y1413D02*
X2539Y1413D01*
X2975Y1413D02*
X2994Y1413D01*
X3029Y1413D02*
X3048Y1413D01*
X3275Y1413D02*
X3294Y1413D01*
X3329Y1413D02*
X3348Y1413D01*
X2066Y1412D02*
X2139Y1412D01*
X2466Y1412D02*
X2539Y1412D01*
X2975Y1412D02*
X2995Y1412D01*
X3029Y1412D02*
X3048Y1412D01*
X3275Y1412D02*
X3295Y1412D01*
X3329Y1412D02*
X3348Y1412D01*
X2066Y1411D02*
X2139Y1411D01*
X2466Y1411D02*
X2539Y1411D01*
X2975Y1411D02*
X2996Y1411D01*
X3028Y1411D02*
X3048Y1411D01*
X3275Y1411D02*
X3296Y1411D01*
X3328Y1411D02*
X3348Y1411D01*
X2066Y1410D02*
X2139Y1410D01*
X2466Y1410D02*
X2539Y1410D01*
X2975Y1410D02*
X2997Y1410D01*
X3027Y1410D02*
X3048Y1410D01*
X3275Y1410D02*
X3297Y1410D01*
X3327Y1410D02*
X3348Y1410D01*
X2066Y1409D02*
X2139Y1409D01*
X2466Y1409D02*
X2539Y1409D01*
X2975Y1409D02*
X2998Y1409D01*
X3026Y1409D02*
X3048Y1409D01*
X3275Y1409D02*
X3298Y1409D01*
X3326Y1409D02*
X3348Y1409D01*
X2066Y1408D02*
X2139Y1408D01*
X2466Y1408D02*
X2539Y1408D01*
X2975Y1408D02*
X2999Y1408D01*
X3025Y1408D02*
X3048Y1408D01*
X3275Y1408D02*
X3299Y1408D01*
X3325Y1408D02*
X3348Y1408D01*
X2066Y1407D02*
X2139Y1407D01*
X2466Y1407D02*
X2539Y1407D01*
X2975Y1407D02*
X3000Y1407D01*
X3024Y1407D02*
X3048Y1407D01*
X3275Y1407D02*
X3300Y1407D01*
X3324Y1407D02*
X3348Y1407D01*
X2066Y1406D02*
X2139Y1406D01*
X2466Y1406D02*
X2539Y1406D01*
X2975Y1406D02*
X3002Y1406D01*
X3022Y1406D02*
X3048Y1406D01*
X3275Y1406D02*
X3302Y1406D01*
X3322Y1406D02*
X3348Y1406D01*
X2066Y1405D02*
X2139Y1405D01*
X2466Y1405D02*
X2539Y1405D01*
X2975Y1405D02*
X3004Y1405D01*
X3020Y1405D02*
X3048Y1405D01*
X3275Y1405D02*
X3304Y1405D01*
X3320Y1405D02*
X3348Y1405D01*
X2066Y1404D02*
X2139Y1404D01*
X2466Y1404D02*
X2539Y1404D01*
X2975Y1404D02*
X3007Y1404D01*
X3017Y1404D02*
X3048Y1404D01*
X3275Y1404D02*
X3307Y1404D01*
X3317Y1404D02*
X3348Y1404D01*
X2066Y1403D02*
X2139Y1403D01*
X2466Y1403D02*
X2539Y1403D01*
X2975Y1403D02*
X3048Y1403D01*
X3275Y1403D02*
X3348Y1403D01*
X2066Y1402D02*
X2139Y1402D01*
X2466Y1402D02*
X2539Y1402D01*
X2975Y1402D02*
X3048Y1402D01*
X3275Y1402D02*
X3348Y1402D01*
X2975Y1401D02*
X3048Y1401D01*
X3275Y1401D02*
X3348Y1401D01*
X2975Y1400D02*
X3048Y1400D01*
X3275Y1400D02*
X3348Y1400D01*
X2975Y1399D02*
X3048Y1399D01*
X3275Y1399D02*
X3348Y1399D01*
X2975Y1398D02*
X3048Y1398D01*
X3275Y1398D02*
X3348Y1398D01*
X2975Y1397D02*
X3048Y1397D01*
X3275Y1397D02*
X3348Y1397D01*
X2975Y1396D02*
X3048Y1396D01*
X3275Y1396D02*
X3348Y1396D01*
X2975Y1395D02*
X3048Y1395D01*
X3275Y1395D02*
X3348Y1395D01*
X2975Y1394D02*
X3048Y1394D01*
X3275Y1394D02*
X3348Y1394D01*
X2975Y1393D02*
X3048Y1393D01*
X3275Y1393D02*
X3348Y1393D01*
X2975Y1392D02*
X3048Y1392D01*
X3275Y1392D02*
X3348Y1392D01*
X2975Y1391D02*
X3048Y1391D01*
X3275Y1391D02*
X3348Y1391D01*
X2975Y1390D02*
X3048Y1390D01*
X3275Y1390D02*
X3348Y1390D01*
X2975Y1389D02*
X3048Y1389D01*
X3275Y1389D02*
X3348Y1389D01*
X2975Y1388D02*
X3048Y1388D01*
X3275Y1388D02*
X3348Y1388D01*
X2975Y1387D02*
X3048Y1387D01*
X3275Y1387D02*
X3348Y1387D01*
X33Y1360D02*
X117Y1360D01*
X29Y1359D02*
X122Y1359D01*
X26Y1358D02*
X125Y1358D01*
X23Y1357D02*
X127Y1357D01*
X21Y1356D02*
X129Y1356D01*
X20Y1355D02*
X131Y1355D01*
X18Y1354D02*
X133Y1354D01*
X17Y1353D02*
X134Y1353D01*
X15Y1352D02*
X135Y1352D01*
X14Y1351D02*
X137Y1351D01*
X13Y1350D02*
X138Y1350D01*
X12Y1349D02*
X139Y1349D01*
X11Y1348D02*
X139Y1348D01*
X10Y1347D02*
X140Y1347D01*
X10Y1346D02*
X141Y1346D01*
X9Y1345D02*
X108Y1345D01*
X117Y1345D02*
X142Y1345D01*
X8Y1344D02*
X104Y1344D01*
X121Y1344D02*
X143Y1344D01*
X8Y1343D02*
X102Y1343D01*
X123Y1343D02*
X143Y1343D01*
X7Y1342D02*
X100Y1342D01*
X125Y1342D02*
X144Y1342D01*
X6Y1341D02*
X99Y1341D01*
X126Y1341D02*
X144Y1341D01*
X6Y1340D02*
X98Y1340D01*
X127Y1340D02*
X145Y1340D01*
X5Y1339D02*
X96Y1339D01*
X128Y1339D02*
X145Y1339D01*
X5Y1338D02*
X95Y1338D01*
X129Y1338D02*
X146Y1338D01*
X4Y1337D02*
X95Y1337D01*
X130Y1337D02*
X146Y1337D01*
X4Y1336D02*
X94Y1336D01*
X131Y1336D02*
X147Y1336D01*
X4Y1335D02*
X93Y1335D01*
X132Y1335D02*
X147Y1335D01*
X3Y1334D02*
X93Y1334D01*
X132Y1334D02*
X147Y1334D01*
X3Y1333D02*
X92Y1333D01*
X133Y1333D02*
X148Y1333D01*
X3Y1332D02*
X92Y1332D01*
X133Y1332D02*
X148Y1332D01*
X3Y1331D02*
X91Y1331D01*
X133Y1331D02*
X148Y1331D01*
X2Y1330D02*
X91Y1330D01*
X134Y1330D02*
X148Y1330D01*
X2Y1329D02*
X91Y1329D01*
X134Y1329D02*
X148Y1329D01*
X2Y1328D02*
X90Y1328D01*
X134Y1328D02*
X149Y1328D01*
X2Y1327D02*
X90Y1327D01*
X135Y1327D02*
X149Y1327D01*
X2Y1326D02*
X90Y1326D01*
X135Y1326D02*
X149Y1326D01*
X2Y1325D02*
X90Y1325D01*
X135Y1325D02*
X149Y1325D01*
X2Y1324D02*
X90Y1324D01*
X135Y1324D02*
X149Y1324D01*
X2Y1323D02*
X90Y1323D01*
X135Y1323D02*
X149Y1323D01*
X2Y1322D02*
X90Y1322D01*
X135Y1322D02*
X149Y1322D01*
X2Y1321D02*
X90Y1321D01*
X135Y1321D02*
X149Y1321D01*
X2Y1320D02*
X90Y1320D01*
X135Y1320D02*
X149Y1320D01*
X2Y1319D02*
X90Y1319D01*
X134Y1319D02*
X149Y1319D01*
X2Y1318D02*
X91Y1318D01*
X134Y1318D02*
X148Y1318D01*
X2Y1317D02*
X91Y1317D01*
X134Y1317D02*
X148Y1317D01*
X3Y1316D02*
X91Y1316D01*
X133Y1316D02*
X148Y1316D01*
X3Y1315D02*
X92Y1315D01*
X133Y1315D02*
X148Y1315D01*
X3Y1314D02*
X92Y1314D01*
X133Y1314D02*
X148Y1314D01*
X3Y1313D02*
X93Y1313D01*
X132Y1313D02*
X147Y1313D01*
X4Y1312D02*
X93Y1312D01*
X132Y1312D02*
X147Y1312D01*
X4Y1311D02*
X94Y1311D01*
X131Y1311D02*
X147Y1311D01*
X4Y1310D02*
X95Y1310D01*
X130Y1310D02*
X146Y1310D01*
X5Y1309D02*
X95Y1309D01*
X129Y1309D02*
X146Y1309D01*
X5Y1308D02*
X96Y1308D01*
X128Y1308D02*
X145Y1308D01*
X6Y1307D02*
X97Y1307D01*
X127Y1307D02*
X145Y1307D01*
X6Y1306D02*
X99Y1306D01*
X126Y1306D02*
X144Y1306D01*
X7Y1305D02*
X100Y1305D01*
X125Y1305D02*
X144Y1305D01*
X7Y1304D02*
X102Y1304D01*
X123Y1304D02*
X143Y1304D01*
X8Y1303D02*
X104Y1303D01*
X121Y1303D02*
X143Y1303D01*
X9Y1302D02*
X107Y1302D01*
X118Y1302D02*
X142Y1302D01*
X10Y1301D02*
X141Y1301D01*
X10Y1300D02*
X140Y1300D01*
X11Y1299D02*
X140Y1299D01*
X12Y1298D02*
X139Y1298D01*
X13Y1297D02*
X138Y1297D01*
X14Y1296D02*
X137Y1296D01*
X15Y1295D02*
X135Y1295D01*
X17Y1294D02*
X134Y1294D01*
X18Y1293D02*
X133Y1293D01*
X19Y1292D02*
X131Y1292D01*
X21Y1291D02*
X130Y1291D01*
X23Y1290D02*
X128Y1290D01*
X25Y1289D02*
X125Y1289D01*
X28Y1288D02*
X122Y1288D01*
X33Y1287D02*
X118Y1287D01*
X2076Y1175D02*
X2149Y1175D01*
X2476Y1175D02*
X2549Y1175D01*
X2076Y1174D02*
X2149Y1174D01*
X2476Y1174D02*
X2549Y1174D01*
X2076Y1173D02*
X2149Y1173D01*
X2476Y1173D02*
X2549Y1173D01*
X2076Y1172D02*
X2149Y1172D01*
X2476Y1172D02*
X2549Y1172D01*
X2076Y1171D02*
X2149Y1171D01*
X2476Y1171D02*
X2549Y1171D01*
X2076Y1170D02*
X2149Y1170D01*
X2476Y1170D02*
X2549Y1170D01*
X2076Y1169D02*
X2149Y1169D01*
X2476Y1169D02*
X2549Y1169D01*
X2076Y1168D02*
X2149Y1168D01*
X2476Y1168D02*
X2549Y1168D01*
X2076Y1167D02*
X2149Y1167D01*
X2476Y1167D02*
X2549Y1167D01*
X2076Y1166D02*
X2149Y1166D01*
X2476Y1166D02*
X2549Y1166D01*
X2076Y1165D02*
X2149Y1165D01*
X2476Y1165D02*
X2549Y1165D01*
X2076Y1164D02*
X2149Y1164D01*
X2476Y1164D02*
X2549Y1164D01*
X2076Y1163D02*
X2149Y1163D01*
X2476Y1163D02*
X2549Y1163D01*
X2076Y1162D02*
X2149Y1162D01*
X2476Y1162D02*
X2549Y1162D01*
X2076Y1161D02*
X2149Y1161D01*
X2476Y1161D02*
X2549Y1161D01*
X2076Y1160D02*
X2149Y1160D01*
X2476Y1160D02*
X2549Y1160D01*
X2975Y1160D02*
X3048Y1160D01*
X3275Y1160D02*
X3348Y1160D01*
X2076Y1159D02*
X2149Y1159D01*
X2476Y1159D02*
X2549Y1159D01*
X2975Y1159D02*
X3048Y1159D01*
X3275Y1159D02*
X3348Y1159D01*
X2076Y1158D02*
X2107Y1158D01*
X2117Y1158D02*
X2149Y1158D01*
X2476Y1158D02*
X2507Y1158D01*
X2517Y1158D02*
X2549Y1158D01*
X2975Y1158D02*
X3048Y1158D01*
X3275Y1158D02*
X3348Y1158D01*
X2076Y1157D02*
X2104Y1157D01*
X2120Y1157D02*
X2149Y1157D01*
X2476Y1157D02*
X2504Y1157D01*
X2520Y1157D02*
X2549Y1157D01*
X2975Y1157D02*
X3048Y1157D01*
X3275Y1157D02*
X3348Y1157D01*
X2076Y1156D02*
X2102Y1156D01*
X2122Y1156D02*
X2149Y1156D01*
X2476Y1156D02*
X2502Y1156D01*
X2522Y1156D02*
X2549Y1156D01*
X2975Y1156D02*
X3048Y1156D01*
X3275Y1156D02*
X3348Y1156D01*
X2076Y1155D02*
X2100Y1155D01*
X2124Y1155D02*
X2149Y1155D01*
X2476Y1155D02*
X2500Y1155D01*
X2524Y1155D02*
X2549Y1155D01*
X2975Y1155D02*
X3048Y1155D01*
X3275Y1155D02*
X3348Y1155D01*
X2076Y1154D02*
X2099Y1154D01*
X2125Y1154D02*
X2149Y1154D01*
X2476Y1154D02*
X2499Y1154D01*
X2525Y1154D02*
X2549Y1154D01*
X2975Y1154D02*
X3048Y1154D01*
X3275Y1154D02*
X3348Y1154D01*
X2076Y1153D02*
X2098Y1153D01*
X2126Y1153D02*
X2149Y1153D01*
X2476Y1153D02*
X2498Y1153D01*
X2526Y1153D02*
X2549Y1153D01*
X2975Y1153D02*
X3048Y1153D01*
X3275Y1153D02*
X3348Y1153D01*
X2076Y1152D02*
X2097Y1152D01*
X2127Y1152D02*
X2149Y1152D01*
X2476Y1152D02*
X2497Y1152D01*
X2527Y1152D02*
X2549Y1152D01*
X2975Y1152D02*
X3048Y1152D01*
X3275Y1152D02*
X3348Y1152D01*
X2076Y1151D02*
X2096Y1151D01*
X2128Y1151D02*
X2149Y1151D01*
X2476Y1151D02*
X2496Y1151D01*
X2528Y1151D02*
X2549Y1151D01*
X2975Y1151D02*
X3048Y1151D01*
X3275Y1151D02*
X3348Y1151D01*
X2076Y1150D02*
X2095Y1150D01*
X2129Y1150D02*
X2149Y1150D01*
X2476Y1150D02*
X2495Y1150D01*
X2529Y1150D02*
X2549Y1150D01*
X2975Y1150D02*
X3048Y1150D01*
X3275Y1150D02*
X3348Y1150D01*
X2076Y1149D02*
X2095Y1149D01*
X2130Y1149D02*
X2149Y1149D01*
X2476Y1149D02*
X2495Y1149D01*
X2529Y1149D02*
X2549Y1149D01*
X2975Y1149D02*
X3048Y1149D01*
X3275Y1149D02*
X3348Y1149D01*
X2076Y1148D02*
X2094Y1148D01*
X2130Y1148D02*
X2149Y1148D01*
X2476Y1148D02*
X2494Y1148D01*
X2530Y1148D02*
X2549Y1148D01*
X2975Y1148D02*
X3048Y1148D01*
X3275Y1148D02*
X3348Y1148D01*
X2076Y1147D02*
X2094Y1147D01*
X2131Y1147D02*
X2149Y1147D01*
X2476Y1147D02*
X2494Y1147D01*
X2531Y1147D02*
X2549Y1147D01*
X2975Y1147D02*
X3048Y1147D01*
X3275Y1147D02*
X3348Y1147D01*
X2076Y1146D02*
X2093Y1146D01*
X2131Y1146D02*
X2149Y1146D01*
X2476Y1146D02*
X2493Y1146D01*
X2531Y1146D02*
X2549Y1146D01*
X2975Y1146D02*
X3048Y1146D01*
X3275Y1146D02*
X3348Y1146D01*
X2076Y1145D02*
X2093Y1145D01*
X2131Y1145D02*
X2149Y1145D01*
X2476Y1145D02*
X2493Y1145D01*
X2531Y1145D02*
X2549Y1145D01*
X2975Y1145D02*
X3048Y1145D01*
X3275Y1145D02*
X3348Y1145D01*
X2076Y1144D02*
X2092Y1144D01*
X2132Y1144D02*
X2149Y1144D01*
X2476Y1144D02*
X2492Y1144D01*
X2532Y1144D02*
X2549Y1144D01*
X2975Y1144D02*
X3048Y1144D01*
X3275Y1144D02*
X3348Y1144D01*
X2076Y1143D02*
X2092Y1143D01*
X2132Y1143D02*
X2149Y1143D01*
X2476Y1143D02*
X2492Y1143D01*
X2532Y1143D02*
X2549Y1143D01*
X2975Y1143D02*
X3007Y1143D01*
X3017Y1143D02*
X3048Y1143D01*
X3275Y1143D02*
X3307Y1143D01*
X3317Y1143D02*
X3348Y1143D01*
X2076Y1142D02*
X2092Y1142D01*
X2132Y1142D02*
X2149Y1142D01*
X2476Y1142D02*
X2492Y1142D01*
X2532Y1142D02*
X2549Y1142D01*
X2975Y1142D02*
X3004Y1142D01*
X3020Y1142D02*
X3048Y1142D01*
X3275Y1142D02*
X3304Y1142D01*
X3320Y1142D02*
X3348Y1142D01*
X2076Y1141D02*
X2092Y1141D01*
X2132Y1141D02*
X2149Y1141D01*
X2476Y1141D02*
X2492Y1141D01*
X2532Y1141D02*
X2549Y1141D01*
X2975Y1141D02*
X3002Y1141D01*
X3022Y1141D02*
X3048Y1141D01*
X3275Y1141D02*
X3302Y1141D01*
X3322Y1141D02*
X3348Y1141D01*
X2076Y1140D02*
X2092Y1140D01*
X2132Y1140D02*
X2149Y1140D01*
X2476Y1140D02*
X2492Y1140D01*
X2532Y1140D02*
X2549Y1140D01*
X2975Y1140D02*
X3000Y1140D01*
X3024Y1140D02*
X3048Y1140D01*
X3275Y1140D02*
X3300Y1140D01*
X3324Y1140D02*
X3348Y1140D01*
X2076Y1139D02*
X2092Y1139D01*
X2133Y1139D02*
X2149Y1139D01*
X2476Y1139D02*
X2492Y1139D01*
X2532Y1139D02*
X2549Y1139D01*
X2975Y1139D02*
X2999Y1139D01*
X3025Y1139D02*
X3048Y1139D01*
X3275Y1139D02*
X3299Y1139D01*
X3325Y1139D02*
X3348Y1139D01*
X2076Y1138D02*
X2092Y1138D01*
X2133Y1138D02*
X2149Y1138D01*
X2476Y1138D02*
X2492Y1138D01*
X2532Y1138D02*
X2549Y1138D01*
X2975Y1138D02*
X2998Y1138D01*
X3026Y1138D02*
X3048Y1138D01*
X3275Y1138D02*
X3298Y1138D01*
X3326Y1138D02*
X3348Y1138D01*
X2076Y1137D02*
X2092Y1137D01*
X2132Y1137D02*
X2149Y1137D01*
X2476Y1137D02*
X2492Y1137D01*
X2532Y1137D02*
X2549Y1137D01*
X2975Y1137D02*
X2997Y1137D01*
X3027Y1137D02*
X3048Y1137D01*
X3275Y1137D02*
X3297Y1137D01*
X3327Y1137D02*
X3348Y1137D01*
X2076Y1136D02*
X2092Y1136D01*
X2132Y1136D02*
X2149Y1136D01*
X2476Y1136D02*
X2492Y1136D01*
X2532Y1136D02*
X2549Y1136D01*
X2975Y1136D02*
X2996Y1136D01*
X3028Y1136D02*
X3048Y1136D01*
X3275Y1136D02*
X3296Y1136D01*
X3328Y1136D02*
X3348Y1136D01*
X2076Y1135D02*
X2092Y1135D01*
X2132Y1135D02*
X2149Y1135D01*
X2476Y1135D02*
X2492Y1135D01*
X2532Y1135D02*
X2549Y1135D01*
X2975Y1135D02*
X2995Y1135D01*
X3029Y1135D02*
X3048Y1135D01*
X3275Y1135D02*
X3295Y1135D01*
X3329Y1135D02*
X3348Y1135D01*
X2076Y1134D02*
X2092Y1134D01*
X2132Y1134D02*
X2149Y1134D01*
X2476Y1134D02*
X2492Y1134D01*
X2532Y1134D02*
X2549Y1134D01*
X2975Y1134D02*
X2995Y1134D01*
X3029Y1134D02*
X3048Y1134D01*
X3275Y1134D02*
X3294Y1134D01*
X3329Y1134D02*
X3348Y1134D01*
X2076Y1133D02*
X2092Y1133D01*
X2132Y1133D02*
X2149Y1133D01*
X2476Y1133D02*
X2492Y1133D01*
X2532Y1133D02*
X2549Y1133D01*
X2975Y1133D02*
X2994Y1133D01*
X3030Y1133D02*
X3048Y1133D01*
X3275Y1133D02*
X3294Y1133D01*
X3330Y1133D02*
X3348Y1133D01*
X2076Y1132D02*
X2093Y1132D01*
X2131Y1132D02*
X2149Y1132D01*
X2476Y1132D02*
X2493Y1132D01*
X2531Y1132D02*
X2549Y1132D01*
X2975Y1132D02*
X2993Y1132D01*
X3030Y1132D02*
X3048Y1132D01*
X3275Y1132D02*
X3293Y1132D01*
X3330Y1132D02*
X3348Y1132D01*
X2076Y1131D02*
X2093Y1131D01*
X2131Y1131D02*
X2149Y1131D01*
X2476Y1131D02*
X2493Y1131D01*
X2531Y1131D02*
X2549Y1131D01*
X2975Y1131D02*
X2993Y1131D01*
X3031Y1131D02*
X3048Y1131D01*
X3275Y1131D02*
X3293Y1131D01*
X3331Y1131D02*
X3348Y1131D01*
X2076Y1130D02*
X2094Y1130D01*
X2131Y1130D02*
X2149Y1130D01*
X2476Y1130D02*
X2493Y1130D01*
X2531Y1130D02*
X2549Y1130D01*
X2975Y1130D02*
X2993Y1130D01*
X3031Y1130D02*
X3048Y1130D01*
X3275Y1130D02*
X3293Y1130D01*
X3331Y1130D02*
X3348Y1130D01*
X2076Y1129D02*
X2094Y1129D01*
X2130Y1129D02*
X2149Y1129D01*
X2476Y1129D02*
X2494Y1129D01*
X2530Y1129D02*
X2549Y1129D01*
X2975Y1129D02*
X2992Y1129D01*
X3032Y1129D02*
X3048Y1129D01*
X3275Y1129D02*
X3292Y1129D01*
X3332Y1129D02*
X3348Y1129D01*
X2076Y1128D02*
X2095Y1128D01*
X2130Y1128D02*
X2149Y1128D01*
X2476Y1128D02*
X2495Y1128D01*
X2529Y1128D02*
X2549Y1128D01*
X2975Y1128D02*
X2992Y1128D01*
X3032Y1128D02*
X3048Y1128D01*
X3275Y1128D02*
X3292Y1128D01*
X3332Y1128D02*
X3348Y1128D01*
X2076Y1127D02*
X2095Y1127D01*
X2129Y1127D02*
X2149Y1127D01*
X2476Y1127D02*
X2495Y1127D01*
X2529Y1127D02*
X2549Y1127D01*
X2975Y1127D02*
X2992Y1127D01*
X3032Y1127D02*
X3048Y1127D01*
X3275Y1127D02*
X3292Y1127D01*
X3332Y1127D02*
X3348Y1127D01*
X2076Y1126D02*
X2096Y1126D01*
X2128Y1126D02*
X2149Y1126D01*
X2476Y1126D02*
X2496Y1126D01*
X2528Y1126D02*
X2549Y1126D01*
X2975Y1126D02*
X2992Y1126D01*
X3032Y1126D02*
X3048Y1126D01*
X3275Y1126D02*
X3292Y1126D01*
X3332Y1126D02*
X3348Y1126D01*
X2076Y1125D02*
X2097Y1125D01*
X2127Y1125D02*
X2149Y1125D01*
X2476Y1125D02*
X2497Y1125D01*
X2527Y1125D02*
X2549Y1125D01*
X2975Y1125D02*
X2992Y1125D01*
X3032Y1125D02*
X3048Y1125D01*
X3275Y1125D02*
X3292Y1125D01*
X3332Y1125D02*
X3348Y1125D01*
X2076Y1124D02*
X2098Y1124D01*
X2126Y1124D02*
X2149Y1124D01*
X2476Y1124D02*
X2498Y1124D01*
X2526Y1124D02*
X2549Y1124D01*
X2975Y1124D02*
X2992Y1124D01*
X3032Y1124D02*
X3048Y1124D01*
X3275Y1124D02*
X3291Y1124D01*
X3332Y1124D02*
X3348Y1124D01*
X2076Y1123D02*
X2099Y1123D01*
X2125Y1123D02*
X2149Y1123D01*
X2476Y1123D02*
X2499Y1123D01*
X2525Y1123D02*
X2549Y1123D01*
X2975Y1123D02*
X2992Y1123D01*
X3032Y1123D02*
X3048Y1123D01*
X3275Y1123D02*
X3291Y1123D01*
X3332Y1123D02*
X3348Y1123D01*
X2076Y1122D02*
X2100Y1122D01*
X2124Y1122D02*
X2149Y1122D01*
X2476Y1122D02*
X2500Y1122D01*
X2524Y1122D02*
X2549Y1122D01*
X2975Y1122D02*
X2992Y1122D01*
X3032Y1122D02*
X3048Y1122D01*
X3275Y1122D02*
X3292Y1122D01*
X3332Y1122D02*
X3348Y1122D01*
X2076Y1121D02*
X2102Y1121D01*
X2122Y1121D02*
X2149Y1121D01*
X2476Y1121D02*
X2502Y1121D01*
X2522Y1121D02*
X2549Y1121D01*
X2975Y1121D02*
X2992Y1121D01*
X3032Y1121D02*
X3048Y1121D01*
X3275Y1121D02*
X3292Y1121D01*
X3332Y1121D02*
X3348Y1121D01*
X2076Y1120D02*
X2104Y1120D01*
X2120Y1120D02*
X2149Y1120D01*
X2476Y1120D02*
X2504Y1120D01*
X2520Y1120D02*
X2549Y1120D01*
X2975Y1120D02*
X2992Y1120D01*
X3032Y1120D02*
X3048Y1120D01*
X3275Y1120D02*
X3292Y1120D01*
X3332Y1120D02*
X3348Y1120D01*
X2076Y1119D02*
X2107Y1119D01*
X2117Y1119D02*
X2149Y1119D01*
X2476Y1119D02*
X2507Y1119D01*
X2517Y1119D02*
X2549Y1119D01*
X2975Y1119D02*
X2992Y1119D01*
X3032Y1119D02*
X3048Y1119D01*
X3275Y1119D02*
X3292Y1119D01*
X3332Y1119D02*
X3348Y1119D01*
X2076Y1118D02*
X2149Y1118D01*
X2476Y1118D02*
X2549Y1118D01*
X2975Y1118D02*
X2992Y1118D01*
X3032Y1118D02*
X3048Y1118D01*
X3275Y1118D02*
X3292Y1118D01*
X3332Y1118D02*
X3348Y1118D01*
X2076Y1117D02*
X2149Y1117D01*
X2476Y1117D02*
X2549Y1117D01*
X2975Y1117D02*
X2993Y1117D01*
X3031Y1117D02*
X3048Y1117D01*
X3275Y1117D02*
X3293Y1117D01*
X3331Y1117D02*
X3348Y1117D01*
X2076Y1116D02*
X2149Y1116D01*
X2476Y1116D02*
X2549Y1116D01*
X2975Y1116D02*
X2993Y1116D01*
X3031Y1116D02*
X3048Y1116D01*
X3275Y1116D02*
X3293Y1116D01*
X3331Y1116D02*
X3348Y1116D01*
X2076Y1115D02*
X2149Y1115D01*
X2476Y1115D02*
X2549Y1115D01*
X2975Y1115D02*
X2993Y1115D01*
X3031Y1115D02*
X3048Y1115D01*
X3275Y1115D02*
X3293Y1115D01*
X3330Y1115D02*
X3348Y1115D01*
X2076Y1114D02*
X2149Y1114D01*
X2476Y1114D02*
X2549Y1114D01*
X2975Y1114D02*
X2994Y1114D01*
X3030Y1114D02*
X3048Y1114D01*
X3275Y1114D02*
X3294Y1114D01*
X3330Y1114D02*
X3348Y1114D01*
X2076Y1113D02*
X2149Y1113D01*
X2476Y1113D02*
X2549Y1113D01*
X2975Y1113D02*
X2994Y1113D01*
X3029Y1113D02*
X3048Y1113D01*
X3275Y1113D02*
X3294Y1113D01*
X3329Y1113D02*
X3348Y1113D01*
X2076Y1112D02*
X2149Y1112D01*
X2476Y1112D02*
X2549Y1112D01*
X2975Y1112D02*
X2995Y1112D01*
X3029Y1112D02*
X3048Y1112D01*
X3275Y1112D02*
X3295Y1112D01*
X3329Y1112D02*
X3348Y1112D01*
X2076Y1111D02*
X2149Y1111D01*
X2476Y1111D02*
X2549Y1111D01*
X2975Y1111D02*
X2996Y1111D01*
X3028Y1111D02*
X3048Y1111D01*
X3275Y1111D02*
X3296Y1111D01*
X3328Y1111D02*
X3348Y1111D01*
X2076Y1110D02*
X2149Y1110D01*
X2476Y1110D02*
X2549Y1110D01*
X2975Y1110D02*
X2997Y1110D01*
X3027Y1110D02*
X3048Y1110D01*
X3275Y1110D02*
X3297Y1110D01*
X3327Y1110D02*
X3348Y1110D01*
X2076Y1109D02*
X2149Y1109D01*
X2476Y1109D02*
X2549Y1109D01*
X2975Y1109D02*
X2998Y1109D01*
X3026Y1109D02*
X3048Y1109D01*
X3275Y1109D02*
X3298Y1109D01*
X3326Y1109D02*
X3348Y1109D01*
X2076Y1108D02*
X2149Y1108D01*
X2476Y1108D02*
X2549Y1108D01*
X2975Y1108D02*
X2999Y1108D01*
X3025Y1108D02*
X3048Y1108D01*
X3275Y1108D02*
X3299Y1108D01*
X3325Y1108D02*
X3348Y1108D01*
X2076Y1107D02*
X2149Y1107D01*
X2476Y1107D02*
X2549Y1107D01*
X2975Y1107D02*
X3000Y1107D01*
X3024Y1107D02*
X3048Y1107D01*
X3275Y1107D02*
X3300Y1107D01*
X3324Y1107D02*
X3348Y1107D01*
X2076Y1106D02*
X2149Y1106D01*
X2476Y1106D02*
X2549Y1106D01*
X2975Y1106D02*
X3002Y1106D01*
X3022Y1106D02*
X3048Y1106D01*
X3275Y1106D02*
X3302Y1106D01*
X3322Y1106D02*
X3348Y1106D01*
X2076Y1105D02*
X2149Y1105D01*
X2476Y1105D02*
X2549Y1105D01*
X2975Y1105D02*
X3004Y1105D01*
X3020Y1105D02*
X3048Y1105D01*
X3275Y1105D02*
X3304Y1105D01*
X3320Y1105D02*
X3348Y1105D01*
X2076Y1104D02*
X2149Y1104D01*
X2476Y1104D02*
X2549Y1104D01*
X2975Y1104D02*
X3007Y1104D01*
X3017Y1104D02*
X3048Y1104D01*
X3275Y1104D02*
X3307Y1104D01*
X3317Y1104D02*
X3348Y1104D01*
X2076Y1103D02*
X2149Y1103D01*
X2476Y1103D02*
X2549Y1103D01*
X2975Y1103D02*
X3048Y1103D01*
X3275Y1103D02*
X3348Y1103D01*
X2076Y1102D02*
X2149Y1102D01*
X2476Y1102D02*
X2549Y1102D01*
X2975Y1102D02*
X3048Y1102D01*
X3275Y1102D02*
X3348Y1102D01*
X2975Y1101D02*
X3048Y1101D01*
X3275Y1101D02*
X3348Y1101D01*
X2975Y1100D02*
X3048Y1100D01*
X3275Y1100D02*
X3348Y1100D01*
X2975Y1099D02*
X3048Y1099D01*
X3275Y1099D02*
X3348Y1099D01*
X2975Y1098D02*
X3048Y1098D01*
X3275Y1098D02*
X3348Y1098D01*
X2975Y1097D02*
X3048Y1097D01*
X3275Y1097D02*
X3348Y1097D01*
X2975Y1096D02*
X3048Y1096D01*
X3275Y1096D02*
X3348Y1096D01*
X2975Y1095D02*
X3048Y1095D01*
X3275Y1095D02*
X3348Y1095D01*
X2975Y1094D02*
X3048Y1094D01*
X3275Y1094D02*
X3348Y1094D01*
X2975Y1093D02*
X3048Y1093D01*
X3275Y1093D02*
X3348Y1093D01*
X2975Y1092D02*
X3048Y1092D01*
X3275Y1092D02*
X3348Y1092D01*
X2975Y1091D02*
X3048Y1091D01*
X3275Y1091D02*
X3348Y1091D01*
X2975Y1090D02*
X3048Y1090D01*
X3275Y1090D02*
X3348Y1090D01*
X2975Y1089D02*
X3048Y1089D01*
X3275Y1089D02*
X3348Y1089D01*
X2975Y1088D02*
X3048Y1088D01*
X3275Y1088D02*
X3348Y1088D01*
X2975Y1087D02*
X3048Y1087D01*
X3275Y1087D02*
X3348Y1087D01*
X33Y1060D02*
X118Y1060D01*
X29Y1059D02*
X122Y1059D01*
X26Y1058D02*
X125Y1058D01*
X23Y1057D02*
X127Y1057D01*
X21Y1056D02*
X130Y1056D01*
X20Y1055D02*
X131Y1055D01*
X18Y1054D02*
X133Y1054D01*
X17Y1053D02*
X134Y1053D01*
X15Y1052D02*
X135Y1052D01*
X14Y1051D02*
X137Y1051D01*
X13Y1050D02*
X138Y1050D01*
X12Y1049D02*
X139Y1049D01*
X11Y1048D02*
X140Y1048D01*
X10Y1047D02*
X140Y1047D01*
X10Y1046D02*
X141Y1046D01*
X9Y1045D02*
X107Y1045D01*
X117Y1045D02*
X142Y1045D01*
X8Y1044D02*
X104Y1044D01*
X121Y1044D02*
X143Y1044D01*
X7Y1043D02*
X102Y1043D01*
X123Y1043D02*
X143Y1043D01*
X7Y1042D02*
X100Y1042D01*
X125Y1042D02*
X144Y1042D01*
X6Y1041D02*
X99Y1041D01*
X126Y1041D02*
X144Y1041D01*
X6Y1040D02*
X97Y1040D01*
X127Y1040D02*
X145Y1040D01*
X5Y1039D02*
X96Y1039D01*
X128Y1039D02*
X145Y1039D01*
X5Y1038D02*
X95Y1038D01*
X129Y1038D02*
X146Y1038D01*
X4Y1037D02*
X95Y1037D01*
X130Y1037D02*
X146Y1037D01*
X4Y1036D02*
X94Y1036D01*
X131Y1036D02*
X147Y1036D01*
X4Y1035D02*
X93Y1035D01*
X132Y1035D02*
X147Y1035D01*
X3Y1034D02*
X93Y1034D01*
X132Y1034D02*
X147Y1034D01*
X3Y1033D02*
X92Y1033D01*
X133Y1033D02*
X148Y1033D01*
X3Y1032D02*
X92Y1032D01*
X133Y1032D02*
X148Y1032D01*
X3Y1031D02*
X91Y1031D01*
X133Y1031D02*
X148Y1031D01*
X2Y1030D02*
X91Y1030D01*
X134Y1030D02*
X148Y1030D01*
X2Y1029D02*
X91Y1029D01*
X134Y1029D02*
X148Y1029D01*
X2Y1028D02*
X90Y1028D01*
X134Y1028D02*
X149Y1028D01*
X2Y1027D02*
X90Y1027D01*
X135Y1027D02*
X149Y1027D01*
X2Y1026D02*
X90Y1026D01*
X135Y1026D02*
X149Y1026D01*
X2Y1025D02*
X90Y1025D01*
X135Y1025D02*
X149Y1025D01*
X2Y1024D02*
X90Y1024D01*
X135Y1024D02*
X149Y1024D01*
X2Y1023D02*
X90Y1023D01*
X135Y1023D02*
X149Y1023D01*
X2Y1022D02*
X90Y1022D01*
X135Y1022D02*
X149Y1022D01*
X2Y1021D02*
X90Y1021D01*
X135Y1021D02*
X149Y1021D01*
X2Y1020D02*
X90Y1020D01*
X135Y1020D02*
X149Y1020D01*
X2Y1019D02*
X90Y1019D01*
X134Y1019D02*
X149Y1019D01*
X2Y1018D02*
X91Y1018D01*
X134Y1018D02*
X148Y1018D01*
X2Y1017D02*
X91Y1017D01*
X134Y1017D02*
X148Y1017D01*
X3Y1016D02*
X91Y1016D01*
X133Y1016D02*
X148Y1016D01*
X3Y1015D02*
X92Y1015D01*
X133Y1015D02*
X148Y1015D01*
X3Y1014D02*
X92Y1014D01*
X133Y1014D02*
X148Y1014D01*
X3Y1013D02*
X93Y1013D01*
X132Y1013D02*
X147Y1013D01*
X4Y1012D02*
X93Y1012D01*
X132Y1012D02*
X147Y1012D01*
X4Y1011D02*
X94Y1011D01*
X131Y1011D02*
X147Y1011D01*
X4Y1010D02*
X95Y1010D01*
X130Y1010D02*
X146Y1010D01*
X5Y1009D02*
X95Y1009D01*
X129Y1009D02*
X146Y1009D01*
X5Y1008D02*
X96Y1008D01*
X128Y1008D02*
X145Y1008D01*
X6Y1007D02*
X97Y1007D01*
X127Y1007D02*
X145Y1007D01*
X6Y1006D02*
X99Y1006D01*
X126Y1006D02*
X144Y1006D01*
X7Y1005D02*
X100Y1005D01*
X125Y1005D02*
X144Y1005D01*
X7Y1004D02*
X102Y1004D01*
X123Y1004D02*
X143Y1004D01*
X8Y1003D02*
X104Y1003D01*
X121Y1003D02*
X143Y1003D01*
X9Y1002D02*
X107Y1002D01*
X117Y1002D02*
X142Y1002D01*
X10Y1001D02*
X141Y1001D01*
X10Y1000D02*
X140Y1000D01*
X11Y999D02*
X140Y999D01*
X12Y998D02*
X139Y998D01*
X13Y997D02*
X138Y997D01*
X14Y996D02*
X137Y996D01*
X15Y995D02*
X135Y995D01*
X17Y994D02*
X134Y994D01*
X18Y993D02*
X133Y993D01*
X20Y992D02*
X131Y992D01*
X21Y991D02*
X130Y991D01*
X23Y990D02*
X127Y990D01*
X26Y989D02*
X125Y989D01*
X29Y988D02*
X122Y988D01*
X33Y987D02*
X118Y987D01*
X33Y860D02*
X118Y860D01*
X2975Y860D02*
X3048Y860D01*
X3275Y860D02*
X3348Y860D01*
X28Y859D02*
X122Y859D01*
X2975Y859D02*
X3048Y859D01*
X3275Y859D02*
X3348Y859D01*
X26Y858D02*
X125Y858D01*
X2975Y858D02*
X3048Y858D01*
X3275Y858D02*
X3348Y858D01*
X23Y857D02*
X128Y857D01*
X2975Y857D02*
X3048Y857D01*
X3275Y857D02*
X3348Y857D01*
X21Y856D02*
X130Y856D01*
X2975Y856D02*
X3048Y856D01*
X3275Y856D02*
X3348Y856D01*
X20Y855D02*
X131Y855D01*
X2975Y855D02*
X3048Y855D01*
X3275Y855D02*
X3348Y855D01*
X18Y854D02*
X133Y854D01*
X2975Y854D02*
X3048Y854D01*
X3275Y854D02*
X3348Y854D01*
X17Y853D02*
X134Y853D01*
X2975Y853D02*
X3048Y853D01*
X3275Y853D02*
X3348Y853D01*
X15Y852D02*
X135Y852D01*
X2975Y852D02*
X3048Y852D01*
X3275Y852D02*
X3348Y852D01*
X14Y851D02*
X137Y851D01*
X2975Y851D02*
X3048Y851D01*
X3275Y851D02*
X3348Y851D01*
X13Y850D02*
X138Y850D01*
X2975Y850D02*
X3048Y850D01*
X3275Y850D02*
X3348Y850D01*
X12Y849D02*
X139Y849D01*
X2975Y849D02*
X3048Y849D01*
X3275Y849D02*
X3348Y849D01*
X11Y848D02*
X140Y848D01*
X2975Y848D02*
X3048Y848D01*
X3275Y848D02*
X3348Y848D01*
X10Y847D02*
X140Y847D01*
X2975Y847D02*
X3048Y847D01*
X3275Y847D02*
X3348Y847D01*
X10Y846D02*
X141Y846D01*
X2975Y846D02*
X3048Y846D01*
X3275Y846D02*
X3348Y846D01*
X9Y845D02*
X107Y845D01*
X118Y845D02*
X142Y845D01*
X2975Y845D02*
X3048Y845D01*
X3275Y845D02*
X3348Y845D01*
X8Y844D02*
X104Y844D01*
X121Y844D02*
X143Y844D01*
X2975Y844D02*
X3048Y844D01*
X3275Y844D02*
X3348Y844D01*
X7Y843D02*
X102Y843D01*
X123Y843D02*
X143Y843D01*
X2975Y843D02*
X3007Y843D01*
X3017Y843D02*
X3048Y843D01*
X3275Y843D02*
X3307Y843D01*
X3317Y843D02*
X3348Y843D01*
X7Y842D02*
X100Y842D01*
X125Y842D02*
X144Y842D01*
X2975Y842D02*
X3004Y842D01*
X3020Y842D02*
X3048Y842D01*
X3275Y842D02*
X3304Y842D01*
X3320Y842D02*
X3348Y842D01*
X6Y841D02*
X99Y841D01*
X126Y841D02*
X144Y841D01*
X2975Y841D02*
X3002Y841D01*
X3022Y841D02*
X3048Y841D01*
X3275Y841D02*
X3302Y841D01*
X3322Y841D02*
X3348Y841D01*
X6Y840D02*
X97Y840D01*
X127Y840D02*
X145Y840D01*
X2975Y840D02*
X3000Y840D01*
X3024Y840D02*
X3048Y840D01*
X3275Y840D02*
X3300Y840D01*
X3324Y840D02*
X3348Y840D01*
X5Y839D02*
X96Y839D01*
X128Y839D02*
X145Y839D01*
X2975Y839D02*
X2999Y839D01*
X3025Y839D02*
X3048Y839D01*
X3275Y839D02*
X3299Y839D01*
X3325Y839D02*
X3348Y839D01*
X5Y838D02*
X95Y838D01*
X129Y838D02*
X146Y838D01*
X2975Y838D02*
X2998Y838D01*
X3026Y838D02*
X3048Y838D01*
X3275Y838D02*
X3298Y838D01*
X3326Y838D02*
X3348Y838D01*
X4Y837D02*
X95Y837D01*
X130Y837D02*
X146Y837D01*
X2975Y837D02*
X2997Y837D01*
X3027Y837D02*
X3048Y837D01*
X3275Y837D02*
X3297Y837D01*
X3327Y837D02*
X3348Y837D01*
X4Y836D02*
X94Y836D01*
X131Y836D02*
X147Y836D01*
X2975Y836D02*
X2996Y836D01*
X3028Y836D02*
X3048Y836D01*
X3275Y836D02*
X3296Y836D01*
X3328Y836D02*
X3348Y836D01*
X4Y835D02*
X93Y835D01*
X132Y835D02*
X147Y835D01*
X2975Y835D02*
X2995Y835D01*
X3029Y835D02*
X3048Y835D01*
X3275Y835D02*
X3295Y835D01*
X3329Y835D02*
X3348Y835D01*
X3Y834D02*
X93Y834D01*
X132Y834D02*
X147Y834D01*
X2975Y834D02*
X2994Y834D01*
X3029Y834D02*
X3048Y834D01*
X3275Y834D02*
X3294Y834D01*
X3329Y834D02*
X3348Y834D01*
X3Y833D02*
X92Y833D01*
X133Y833D02*
X148Y833D01*
X2975Y833D02*
X2994Y833D01*
X3030Y833D02*
X3048Y833D01*
X3275Y833D02*
X3294Y833D01*
X3330Y833D02*
X3348Y833D01*
X3Y832D02*
X92Y832D01*
X133Y832D02*
X148Y832D01*
X2975Y832D02*
X2993Y832D01*
X3031Y832D02*
X3048Y832D01*
X3275Y832D02*
X3293Y832D01*
X3330Y832D02*
X3348Y832D01*
X3Y831D02*
X91Y831D01*
X133Y831D02*
X148Y831D01*
X2975Y831D02*
X2993Y831D01*
X3031Y831D02*
X3048Y831D01*
X3275Y831D02*
X3293Y831D01*
X3331Y831D02*
X3348Y831D01*
X2Y830D02*
X91Y830D01*
X134Y830D02*
X148Y830D01*
X2975Y830D02*
X2993Y830D01*
X3031Y830D02*
X3048Y830D01*
X3275Y830D02*
X3293Y830D01*
X3331Y830D02*
X3348Y830D01*
X2Y829D02*
X91Y829D01*
X134Y829D02*
X148Y829D01*
X2975Y829D02*
X2992Y829D01*
X3032Y829D02*
X3048Y829D01*
X3275Y829D02*
X3292Y829D01*
X3332Y829D02*
X3348Y829D01*
X2Y828D02*
X90Y828D01*
X134Y828D02*
X149Y828D01*
X2975Y828D02*
X2992Y828D01*
X3032Y828D02*
X3048Y828D01*
X3275Y828D02*
X3292Y828D01*
X3332Y828D02*
X3348Y828D01*
X2Y827D02*
X90Y827D01*
X135Y827D02*
X149Y827D01*
X2975Y827D02*
X2992Y827D01*
X3032Y827D02*
X3048Y827D01*
X3275Y827D02*
X3292Y827D01*
X3332Y827D02*
X3348Y827D01*
X2Y826D02*
X90Y826D01*
X135Y826D02*
X149Y826D01*
X2975Y826D02*
X2992Y826D01*
X3032Y826D02*
X3048Y826D01*
X3275Y826D02*
X3292Y826D01*
X3332Y826D02*
X3348Y826D01*
X2Y825D02*
X90Y825D01*
X135Y825D02*
X149Y825D01*
X2975Y825D02*
X2992Y825D01*
X3032Y825D02*
X3048Y825D01*
X3275Y825D02*
X3292Y825D01*
X3332Y825D02*
X3348Y825D01*
X2Y824D02*
X90Y824D01*
X135Y824D02*
X149Y824D01*
X2975Y824D02*
X2992Y824D01*
X3032Y824D02*
X3048Y824D01*
X3275Y824D02*
X3291Y824D01*
X3332Y824D02*
X3348Y824D01*
X2Y823D02*
X90Y823D01*
X135Y823D02*
X149Y823D01*
X2975Y823D02*
X2992Y823D01*
X3032Y823D02*
X3048Y823D01*
X3275Y823D02*
X3291Y823D01*
X3332Y823D02*
X3348Y823D01*
X2Y822D02*
X90Y822D01*
X135Y822D02*
X149Y822D01*
X2975Y822D02*
X2992Y822D01*
X3032Y822D02*
X3048Y822D01*
X3275Y822D02*
X3292Y822D01*
X3332Y822D02*
X3348Y822D01*
X2Y821D02*
X90Y821D01*
X135Y821D02*
X149Y821D01*
X2975Y821D02*
X2992Y821D01*
X3032Y821D02*
X3048Y821D01*
X3275Y821D02*
X3292Y821D01*
X3332Y821D02*
X3348Y821D01*
X2Y820D02*
X90Y820D01*
X135Y820D02*
X149Y820D01*
X2975Y820D02*
X2992Y820D01*
X3032Y820D02*
X3048Y820D01*
X3275Y820D02*
X3292Y820D01*
X3332Y820D02*
X3348Y820D01*
X2Y819D02*
X90Y819D01*
X134Y819D02*
X149Y819D01*
X2975Y819D02*
X2992Y819D01*
X3032Y819D02*
X3048Y819D01*
X3275Y819D02*
X3292Y819D01*
X3332Y819D02*
X3348Y819D01*
X2Y818D02*
X91Y818D01*
X134Y818D02*
X148Y818D01*
X2975Y818D02*
X2992Y818D01*
X3032Y818D02*
X3048Y818D01*
X3275Y818D02*
X3292Y818D01*
X3332Y818D02*
X3348Y818D01*
X2Y817D02*
X91Y817D01*
X134Y817D02*
X148Y817D01*
X2975Y817D02*
X2993Y817D01*
X3031Y817D02*
X3048Y817D01*
X3275Y817D02*
X3293Y817D01*
X3331Y817D02*
X3348Y817D01*
X3Y816D02*
X91Y816D01*
X133Y816D02*
X148Y816D01*
X2975Y816D02*
X2993Y816D01*
X3031Y816D02*
X3048Y816D01*
X3275Y816D02*
X3293Y816D01*
X3331Y816D02*
X3348Y816D01*
X3Y815D02*
X92Y815D01*
X133Y815D02*
X148Y815D01*
X2975Y815D02*
X2993Y815D01*
X3030Y815D02*
X3048Y815D01*
X3275Y815D02*
X3293Y815D01*
X3330Y815D02*
X3348Y815D01*
X3Y814D02*
X92Y814D01*
X133Y814D02*
X148Y814D01*
X2975Y814D02*
X2994Y814D01*
X3030Y814D02*
X3048Y814D01*
X3275Y814D02*
X3294Y814D01*
X3330Y814D02*
X3348Y814D01*
X3Y813D02*
X93Y813D01*
X132Y813D02*
X147Y813D01*
X2975Y813D02*
X2995Y813D01*
X3029Y813D02*
X3048Y813D01*
X3275Y813D02*
X3294Y813D01*
X3329Y813D02*
X3348Y813D01*
X4Y812D02*
X93Y812D01*
X132Y812D02*
X147Y812D01*
X2975Y812D02*
X2995Y812D01*
X3029Y812D02*
X3048Y812D01*
X3275Y812D02*
X3295Y812D01*
X3329Y812D02*
X3348Y812D01*
X4Y811D02*
X94Y811D01*
X131Y811D02*
X147Y811D01*
X2975Y811D02*
X2996Y811D01*
X3028Y811D02*
X3048Y811D01*
X3275Y811D02*
X3296Y811D01*
X3328Y811D02*
X3348Y811D01*
X4Y810D02*
X95Y810D01*
X130Y810D02*
X146Y810D01*
X2975Y810D02*
X2997Y810D01*
X3027Y810D02*
X3048Y810D01*
X3275Y810D02*
X3297Y810D01*
X3327Y810D02*
X3348Y810D01*
X5Y809D02*
X95Y809D01*
X129Y809D02*
X146Y809D01*
X2975Y809D02*
X2998Y809D01*
X3026Y809D02*
X3048Y809D01*
X3275Y809D02*
X3298Y809D01*
X3326Y809D02*
X3348Y809D01*
X5Y808D02*
X96Y808D01*
X128Y808D02*
X145Y808D01*
X2975Y808D02*
X2999Y808D01*
X3025Y808D02*
X3048Y808D01*
X3275Y808D02*
X3299Y808D01*
X3325Y808D02*
X3348Y808D01*
X6Y807D02*
X97Y807D01*
X127Y807D02*
X145Y807D01*
X2975Y807D02*
X3000Y807D01*
X3024Y807D02*
X3048Y807D01*
X3275Y807D02*
X3300Y807D01*
X3324Y807D02*
X3348Y807D01*
X6Y806D02*
X99Y806D01*
X126Y806D02*
X144Y806D01*
X2975Y806D02*
X3002Y806D01*
X3022Y806D02*
X3048Y806D01*
X3275Y806D02*
X3302Y806D01*
X3322Y806D02*
X3348Y806D01*
X7Y805D02*
X100Y805D01*
X125Y805D02*
X144Y805D01*
X2975Y805D02*
X3004Y805D01*
X3020Y805D02*
X3048Y805D01*
X3275Y805D02*
X3304Y805D01*
X3320Y805D02*
X3348Y805D01*
X7Y804D02*
X102Y804D01*
X123Y804D02*
X143Y804D01*
X2975Y804D02*
X3007Y804D01*
X3017Y804D02*
X3048Y804D01*
X3275Y804D02*
X3307Y804D01*
X3317Y804D02*
X3348Y804D01*
X8Y803D02*
X104Y803D01*
X121Y803D02*
X143Y803D01*
X2975Y803D02*
X3048Y803D01*
X3275Y803D02*
X3348Y803D01*
X9Y802D02*
X107Y802D01*
X117Y802D02*
X142Y802D01*
X2975Y802D02*
X3048Y802D01*
X3275Y802D02*
X3348Y802D01*
X10Y801D02*
X141Y801D01*
X2975Y801D02*
X3048Y801D01*
X3275Y801D02*
X3348Y801D01*
X10Y800D02*
X140Y800D01*
X2975Y800D02*
X3048Y800D01*
X3275Y800D02*
X3348Y800D01*
X11Y799D02*
X140Y799D01*
X2975Y799D02*
X3048Y799D01*
X3275Y799D02*
X3348Y799D01*
X12Y798D02*
X139Y798D01*
X2975Y798D02*
X3048Y798D01*
X3275Y798D02*
X3348Y798D01*
X13Y797D02*
X138Y797D01*
X2975Y797D02*
X3048Y797D01*
X3275Y797D02*
X3348Y797D01*
X14Y796D02*
X137Y796D01*
X2975Y796D02*
X3048Y796D01*
X3275Y796D02*
X3348Y796D01*
X15Y795D02*
X135Y795D01*
X2975Y795D02*
X3048Y795D01*
X3275Y795D02*
X3348Y795D01*
X17Y794D02*
X134Y794D01*
X2975Y794D02*
X3048Y794D01*
X3275Y794D02*
X3348Y794D01*
X18Y793D02*
X133Y793D01*
X2975Y793D02*
X3048Y793D01*
X3275Y793D02*
X3348Y793D01*
X20Y792D02*
X131Y792D01*
X2975Y792D02*
X3048Y792D01*
X3275Y792D02*
X3348Y792D01*
X21Y791D02*
X129Y791D01*
X2975Y791D02*
X3048Y791D01*
X3275Y791D02*
X3348Y791D01*
X23Y790D02*
X127Y790D01*
X2975Y790D02*
X3048Y790D01*
X3275Y790D02*
X3348Y790D01*
X26Y789D02*
X125Y789D01*
X2975Y789D02*
X3048Y789D01*
X3275Y789D02*
X3348Y789D01*
X29Y788D02*
X122Y788D01*
X2975Y788D02*
X3048Y788D01*
X3275Y788D02*
X3348Y788D01*
X33Y787D02*
X118Y787D01*
X2975Y787D02*
X3048Y787D01*
X3275Y787D02*
X3348Y787D01*
X2476Y745D02*
X2549Y745D01*
X2476Y744D02*
X2549Y744D01*
X2476Y743D02*
X2549Y743D01*
X2476Y742D02*
X2549Y742D01*
X2476Y741D02*
X2549Y741D01*
X2086Y740D02*
X2159Y740D01*
X2476Y740D02*
X2549Y740D01*
X2086Y739D02*
X2159Y739D01*
X2476Y739D02*
X2549Y739D01*
X2086Y738D02*
X2159Y738D01*
X2476Y738D02*
X2549Y738D01*
X2086Y737D02*
X2159Y737D01*
X2476Y737D02*
X2549Y737D01*
X2086Y736D02*
X2159Y736D01*
X2476Y736D02*
X2549Y736D01*
X2086Y735D02*
X2159Y735D01*
X2476Y735D02*
X2549Y735D01*
X2086Y734D02*
X2159Y734D01*
X2476Y734D02*
X2549Y734D01*
X2086Y733D02*
X2159Y733D01*
X2476Y733D02*
X2549Y733D01*
X2086Y732D02*
X2159Y732D01*
X2476Y732D02*
X2549Y732D01*
X2086Y731D02*
X2159Y731D01*
X2476Y731D02*
X2549Y731D01*
X2086Y730D02*
X2159Y730D01*
X2476Y730D02*
X2549Y730D01*
X2086Y729D02*
X2159Y729D01*
X2476Y729D02*
X2549Y729D01*
X2086Y728D02*
X2159Y728D01*
X2476Y728D02*
X2507Y728D01*
X2517Y728D02*
X2549Y728D01*
X2086Y727D02*
X2159Y727D01*
X2476Y727D02*
X2504Y727D01*
X2520Y727D02*
X2549Y727D01*
X2086Y726D02*
X2159Y726D01*
X2476Y726D02*
X2502Y726D01*
X2522Y726D02*
X2549Y726D01*
X2086Y725D02*
X2159Y725D01*
X2476Y725D02*
X2500Y725D01*
X2524Y725D02*
X2549Y725D01*
X2086Y724D02*
X2159Y724D01*
X2476Y724D02*
X2499Y724D01*
X2525Y724D02*
X2549Y724D01*
X2086Y723D02*
X2117Y723D01*
X2127Y723D02*
X2159Y723D01*
X2476Y723D02*
X2498Y723D01*
X2526Y723D02*
X2549Y723D01*
X2086Y722D02*
X2114Y722D01*
X2130Y722D02*
X2159Y722D01*
X2476Y722D02*
X2497Y722D01*
X2527Y722D02*
X2549Y722D01*
X2086Y721D02*
X2112Y721D01*
X2132Y721D02*
X2159Y721D01*
X2476Y721D02*
X2496Y721D01*
X2528Y721D02*
X2549Y721D01*
X2086Y720D02*
X2110Y720D01*
X2134Y720D02*
X2159Y720D01*
X2476Y720D02*
X2495Y720D01*
X2529Y720D02*
X2549Y720D01*
X2086Y719D02*
X2109Y719D01*
X2135Y719D02*
X2159Y719D01*
X2476Y719D02*
X2495Y719D01*
X2529Y719D02*
X2549Y719D01*
X2086Y718D02*
X2108Y718D01*
X2136Y718D02*
X2159Y718D01*
X2476Y718D02*
X2494Y718D01*
X2530Y718D02*
X2549Y718D01*
X2086Y717D02*
X2107Y717D01*
X2137Y717D02*
X2159Y717D01*
X2476Y717D02*
X2493Y717D01*
X2531Y717D02*
X2549Y717D01*
X2086Y716D02*
X2106Y716D01*
X2138Y716D02*
X2159Y716D01*
X2476Y716D02*
X2493Y716D01*
X2531Y716D02*
X2549Y716D01*
X2086Y715D02*
X2105Y715D01*
X2139Y715D02*
X2159Y715D01*
X2476Y715D02*
X2493Y715D01*
X2531Y715D02*
X2549Y715D01*
X2086Y714D02*
X2105Y714D01*
X2140Y714D02*
X2159Y714D01*
X2476Y714D02*
X2492Y714D01*
X2532Y714D02*
X2549Y714D01*
X2086Y713D02*
X2104Y713D01*
X2140Y713D02*
X2159Y713D01*
X2476Y713D02*
X2492Y713D01*
X2532Y713D02*
X2549Y713D01*
X2086Y712D02*
X2104Y712D01*
X2141Y712D02*
X2159Y712D01*
X2476Y712D02*
X2492Y712D01*
X2532Y712D02*
X2549Y712D01*
X2086Y711D02*
X2103Y711D01*
X2141Y711D02*
X2159Y711D01*
X2476Y711D02*
X2492Y711D01*
X2532Y711D02*
X2549Y711D01*
X2086Y710D02*
X2103Y710D01*
X2141Y710D02*
X2159Y710D01*
X2476Y710D02*
X2492Y710D01*
X2532Y710D02*
X2549Y710D01*
X2086Y709D02*
X2102Y709D01*
X2142Y709D02*
X2159Y709D01*
X2476Y709D02*
X2492Y709D01*
X2532Y709D02*
X2549Y709D01*
X2086Y708D02*
X2102Y708D01*
X2142Y708D02*
X2159Y708D01*
X2476Y708D02*
X2492Y708D01*
X2532Y708D02*
X2549Y708D01*
X2086Y707D02*
X2102Y707D01*
X2142Y707D02*
X2159Y707D01*
X2476Y707D02*
X2492Y707D01*
X2532Y707D02*
X2549Y707D01*
X2086Y706D02*
X2102Y706D01*
X2142Y706D02*
X2159Y706D01*
X2476Y706D02*
X2492Y706D01*
X2532Y706D02*
X2549Y706D01*
X2086Y705D02*
X2102Y705D01*
X2142Y705D02*
X2159Y705D01*
X2476Y705D02*
X2492Y705D01*
X2532Y705D02*
X2549Y705D01*
X2086Y704D02*
X2102Y704D01*
X2143Y704D02*
X2159Y704D01*
X2476Y704D02*
X2492Y704D01*
X2532Y704D02*
X2549Y704D01*
X2086Y703D02*
X2102Y703D01*
X2143Y703D02*
X2159Y703D01*
X2476Y703D02*
X2492Y703D01*
X2532Y703D02*
X2549Y703D01*
X2086Y702D02*
X2102Y702D01*
X2142Y702D02*
X2159Y702D01*
X2476Y702D02*
X2493Y702D01*
X2531Y702D02*
X2549Y702D01*
X2086Y701D02*
X2102Y701D01*
X2142Y701D02*
X2159Y701D01*
X2476Y701D02*
X2493Y701D01*
X2531Y701D02*
X2549Y701D01*
X2086Y700D02*
X2102Y700D01*
X2142Y700D02*
X2159Y700D01*
X2476Y700D02*
X2494Y700D01*
X2531Y700D02*
X2549Y700D01*
X2086Y699D02*
X2102Y699D01*
X2142Y699D02*
X2159Y699D01*
X2476Y699D02*
X2494Y699D01*
X2530Y699D02*
X2549Y699D01*
X2086Y698D02*
X2102Y698D01*
X2142Y698D02*
X2159Y698D01*
X2476Y698D02*
X2495Y698D01*
X2529Y698D02*
X2549Y698D01*
X2086Y697D02*
X2103Y697D01*
X2141Y697D02*
X2159Y697D01*
X2476Y697D02*
X2495Y697D01*
X2529Y697D02*
X2549Y697D01*
X2086Y696D02*
X2103Y696D01*
X2141Y696D02*
X2159Y696D01*
X2476Y696D02*
X2496Y696D01*
X2528Y696D02*
X2549Y696D01*
X2086Y695D02*
X2104Y695D01*
X2141Y695D02*
X2159Y695D01*
X2476Y695D02*
X2497Y695D01*
X2527Y695D02*
X2549Y695D01*
X2086Y694D02*
X2104Y694D01*
X2140Y694D02*
X2159Y694D01*
X2476Y694D02*
X2498Y694D01*
X2526Y694D02*
X2549Y694D01*
X2086Y693D02*
X2105Y693D01*
X2140Y693D02*
X2159Y693D01*
X2476Y693D02*
X2499Y693D01*
X2525Y693D02*
X2549Y693D01*
X2086Y692D02*
X2105Y692D01*
X2139Y692D02*
X2159Y692D01*
X2476Y692D02*
X2500Y692D01*
X2524Y692D02*
X2549Y692D01*
X2086Y691D02*
X2106Y691D01*
X2138Y691D02*
X2159Y691D01*
X2476Y691D02*
X2502Y691D01*
X2522Y691D02*
X2549Y691D01*
X2086Y690D02*
X2107Y690D01*
X2137Y690D02*
X2159Y690D01*
X2476Y690D02*
X2504Y690D01*
X2520Y690D02*
X2549Y690D01*
X2086Y689D02*
X2108Y689D01*
X2136Y689D02*
X2159Y689D01*
X2476Y689D02*
X2507Y689D01*
X2517Y689D02*
X2549Y689D01*
X2086Y688D02*
X2109Y688D01*
X2135Y688D02*
X2159Y688D01*
X2476Y688D02*
X2549Y688D01*
X2086Y687D02*
X2110Y687D01*
X2134Y687D02*
X2159Y687D01*
X2476Y687D02*
X2549Y687D01*
X2086Y686D02*
X2112Y686D01*
X2132Y686D02*
X2159Y686D01*
X2476Y686D02*
X2549Y686D01*
X2086Y685D02*
X2114Y685D01*
X2130Y685D02*
X2159Y685D01*
X2476Y685D02*
X2549Y685D01*
X2086Y684D02*
X2117Y684D01*
X2127Y684D02*
X2159Y684D01*
X2476Y684D02*
X2549Y684D01*
X2086Y683D02*
X2159Y683D01*
X2476Y683D02*
X2549Y683D01*
X2086Y682D02*
X2159Y682D01*
X2476Y682D02*
X2549Y682D01*
X2086Y681D02*
X2159Y681D01*
X2476Y681D02*
X2549Y681D01*
X2086Y680D02*
X2159Y680D01*
X2476Y680D02*
X2549Y680D01*
X2086Y679D02*
X2159Y679D01*
X2476Y679D02*
X2549Y679D01*
X2086Y678D02*
X2159Y678D01*
X2476Y678D02*
X2549Y678D01*
X2086Y677D02*
X2159Y677D01*
X2476Y677D02*
X2549Y677D01*
X2086Y676D02*
X2159Y676D01*
X2476Y676D02*
X2549Y676D01*
X2086Y675D02*
X2159Y675D01*
X2476Y675D02*
X2549Y675D01*
X2086Y674D02*
X2159Y674D01*
X2476Y674D02*
X2549Y674D01*
X2086Y673D02*
X2159Y673D01*
X2476Y673D02*
X2549Y673D01*
X2086Y672D02*
X2159Y672D01*
X2476Y672D02*
X2549Y672D01*
X2086Y671D02*
X2159Y671D01*
X2086Y670D02*
X2159Y670D01*
X2086Y669D02*
X2159Y669D01*
X2086Y668D02*
X2159Y668D01*
X2086Y667D02*
X2159Y667D01*
X33Y660D02*
X118Y660D01*
X28Y659D02*
X122Y659D01*
X25Y658D02*
X125Y658D01*
X23Y657D02*
X128Y657D01*
X21Y656D02*
X130Y656D01*
X19Y655D02*
X131Y655D01*
X18Y654D02*
X133Y654D01*
X17Y653D02*
X134Y653D01*
X15Y652D02*
X135Y652D01*
X14Y651D02*
X137Y651D01*
X13Y650D02*
X138Y650D01*
X12Y649D02*
X139Y649D01*
X11Y648D02*
X140Y648D01*
X10Y647D02*
X140Y647D01*
X10Y646D02*
X141Y646D01*
X9Y645D02*
X107Y645D01*
X118Y645D02*
X142Y645D01*
X8Y644D02*
X104Y644D01*
X121Y644D02*
X143Y644D01*
X7Y643D02*
X102Y643D01*
X123Y643D02*
X143Y643D01*
X7Y642D02*
X100Y642D01*
X125Y642D02*
X144Y642D01*
X6Y641D02*
X99Y641D01*
X126Y641D02*
X144Y641D01*
X6Y640D02*
X97Y640D01*
X127Y640D02*
X145Y640D01*
X5Y639D02*
X96Y639D01*
X128Y639D02*
X145Y639D01*
X5Y638D02*
X95Y638D01*
X129Y638D02*
X146Y638D01*
X4Y637D02*
X95Y637D01*
X130Y637D02*
X146Y637D01*
X4Y636D02*
X94Y636D01*
X131Y636D02*
X147Y636D01*
X4Y635D02*
X93Y635D01*
X132Y635D02*
X147Y635D01*
X3Y634D02*
X93Y634D01*
X132Y634D02*
X147Y634D01*
X3Y633D02*
X92Y633D01*
X133Y633D02*
X148Y633D01*
X3Y632D02*
X92Y632D01*
X133Y632D02*
X148Y632D01*
X3Y631D02*
X91Y631D01*
X133Y631D02*
X148Y631D01*
X2Y630D02*
X91Y630D01*
X134Y630D02*
X148Y630D01*
X2Y629D02*
X91Y629D01*
X134Y629D02*
X148Y629D01*
X2Y628D02*
X90Y628D01*
X134Y628D02*
X149Y628D01*
X2Y627D02*
X90Y627D01*
X135Y627D02*
X149Y627D01*
X2Y626D02*
X90Y626D01*
X135Y626D02*
X149Y626D01*
X2Y625D02*
X90Y625D01*
X135Y625D02*
X149Y625D01*
X2Y624D02*
X90Y624D01*
X135Y624D02*
X149Y624D01*
X2Y623D02*
X90Y623D01*
X135Y623D02*
X149Y623D01*
X2Y622D02*
X90Y622D01*
X135Y622D02*
X149Y622D01*
X2Y621D02*
X90Y621D01*
X135Y621D02*
X149Y621D01*
X2Y620D02*
X90Y620D01*
X135Y620D02*
X149Y620D01*
X2Y619D02*
X90Y619D01*
X134Y619D02*
X149Y619D01*
X2Y618D02*
X91Y618D01*
X134Y618D02*
X148Y618D01*
X2Y617D02*
X91Y617D01*
X134Y617D02*
X148Y617D01*
X3Y616D02*
X91Y616D01*
X133Y616D02*
X148Y616D01*
X3Y615D02*
X92Y615D01*
X133Y615D02*
X148Y615D01*
X3Y614D02*
X92Y614D01*
X133Y614D02*
X148Y614D01*
X3Y613D02*
X93Y613D01*
X132Y613D02*
X147Y613D01*
X4Y612D02*
X93Y612D01*
X132Y612D02*
X147Y612D01*
X4Y611D02*
X94Y611D01*
X131Y611D02*
X147Y611D01*
X4Y610D02*
X95Y610D01*
X130Y610D02*
X146Y610D01*
X5Y609D02*
X95Y609D01*
X129Y609D02*
X146Y609D01*
X5Y608D02*
X96Y608D01*
X128Y608D02*
X145Y608D01*
X6Y607D02*
X98Y607D01*
X127Y607D02*
X145Y607D01*
X6Y606D02*
X99Y606D01*
X126Y606D02*
X144Y606D01*
X7Y605D02*
X100Y605D01*
X125Y605D02*
X144Y605D01*
X8Y604D02*
X102Y604D01*
X123Y604D02*
X143Y604D01*
X8Y603D02*
X104Y603D01*
X121Y603D02*
X143Y603D01*
X9Y602D02*
X108Y602D01*
X117Y602D02*
X142Y602D01*
X10Y601D02*
X141Y601D01*
X10Y600D02*
X140Y600D01*
X11Y599D02*
X139Y599D01*
X12Y598D02*
X139Y598D01*
X13Y597D02*
X138Y597D01*
X14Y596D02*
X137Y596D01*
X15Y595D02*
X135Y595D01*
X17Y594D02*
X134Y594D01*
X18Y593D02*
X133Y593D01*
X20Y592D02*
X131Y592D01*
X21Y591D02*
X129Y591D01*
X23Y590D02*
X127Y590D01*
X26Y589D02*
X125Y589D01*
X29Y588D02*
X122Y588D01*
X33Y587D02*
X117Y587D01*
X2975Y560D02*
X3048Y560D01*
X3275Y560D02*
X3348Y560D01*
X2975Y559D02*
X3048Y559D01*
X3275Y559D02*
X3348Y559D01*
X2975Y558D02*
X3048Y558D01*
X3275Y558D02*
X3348Y558D01*
X2975Y557D02*
X3048Y557D01*
X3275Y557D02*
X3348Y557D01*
X2975Y556D02*
X3048Y556D01*
X3275Y556D02*
X3348Y556D01*
X2975Y555D02*
X3048Y555D01*
X3275Y555D02*
X3348Y555D01*
X2975Y554D02*
X3048Y554D01*
X3275Y554D02*
X3348Y554D01*
X2975Y553D02*
X3048Y553D01*
X3275Y553D02*
X3348Y553D01*
X2975Y552D02*
X3048Y552D01*
X3275Y552D02*
X3348Y552D01*
X2975Y551D02*
X3048Y551D01*
X3275Y551D02*
X3348Y551D01*
X2975Y550D02*
X3048Y550D01*
X3275Y550D02*
X3348Y550D01*
X2975Y549D02*
X3048Y549D01*
X3275Y549D02*
X3348Y549D01*
X2975Y548D02*
X3048Y548D01*
X3275Y548D02*
X3348Y548D01*
X2975Y547D02*
X3048Y547D01*
X3275Y547D02*
X3348Y547D01*
X2975Y546D02*
X3048Y546D01*
X3275Y546D02*
X3348Y546D01*
X2975Y545D02*
X3048Y545D01*
X3275Y545D02*
X3348Y545D01*
X2975Y544D02*
X3048Y544D01*
X3275Y544D02*
X3348Y544D01*
X2975Y543D02*
X3007Y543D01*
X3017Y543D02*
X3048Y543D01*
X3275Y543D02*
X3307Y543D01*
X3317Y543D02*
X3348Y543D01*
X2975Y542D02*
X3004Y542D01*
X3020Y542D02*
X3048Y542D01*
X3275Y542D02*
X3304Y542D01*
X3320Y542D02*
X3348Y542D01*
X2975Y541D02*
X3002Y541D01*
X3022Y541D02*
X3048Y541D01*
X3275Y541D02*
X3302Y541D01*
X3322Y541D02*
X3348Y541D01*
X2975Y540D02*
X3000Y540D01*
X3024Y540D02*
X3048Y540D01*
X3275Y540D02*
X3300Y540D01*
X3324Y540D02*
X3348Y540D01*
X2975Y539D02*
X2999Y539D01*
X3025Y539D02*
X3048Y539D01*
X3275Y539D02*
X3299Y539D01*
X3325Y539D02*
X3348Y539D01*
X2975Y538D02*
X2998Y538D01*
X3026Y538D02*
X3048Y538D01*
X3275Y538D02*
X3298Y538D01*
X3326Y538D02*
X3348Y538D01*
X2975Y537D02*
X2997Y537D01*
X3027Y537D02*
X3048Y537D01*
X3275Y537D02*
X3297Y537D01*
X3327Y537D02*
X3348Y537D01*
X2975Y536D02*
X2996Y536D01*
X3028Y536D02*
X3048Y536D01*
X3275Y536D02*
X3296Y536D01*
X3328Y536D02*
X3348Y536D01*
X2975Y535D02*
X2995Y535D01*
X3029Y535D02*
X3048Y535D01*
X3275Y535D02*
X3295Y535D01*
X3329Y535D02*
X3348Y535D01*
X2975Y534D02*
X2994Y534D01*
X3029Y534D02*
X3048Y534D01*
X3275Y534D02*
X3294Y534D01*
X3329Y534D02*
X3348Y534D01*
X2975Y533D02*
X2994Y533D01*
X3030Y533D02*
X3048Y533D01*
X3275Y533D02*
X3294Y533D01*
X3330Y533D02*
X3348Y533D01*
X2975Y532D02*
X2993Y532D01*
X3031Y532D02*
X3048Y532D01*
X3275Y532D02*
X3293Y532D01*
X3330Y532D02*
X3348Y532D01*
X2975Y531D02*
X2993Y531D01*
X3031Y531D02*
X3048Y531D01*
X3275Y531D02*
X3293Y531D01*
X3331Y531D02*
X3348Y531D01*
X2975Y530D02*
X2993Y530D01*
X3031Y530D02*
X3048Y530D01*
X3275Y530D02*
X3293Y530D01*
X3331Y530D02*
X3348Y530D01*
X2975Y529D02*
X2992Y529D01*
X3032Y529D02*
X3048Y529D01*
X3275Y529D02*
X3292Y529D01*
X3332Y529D02*
X3348Y529D01*
X2975Y528D02*
X2992Y528D01*
X3032Y528D02*
X3048Y528D01*
X3275Y528D02*
X3292Y528D01*
X3332Y528D02*
X3348Y528D01*
X2975Y527D02*
X2992Y527D01*
X3032Y527D02*
X3048Y527D01*
X3275Y527D02*
X3292Y527D01*
X3332Y527D02*
X3348Y527D01*
X2975Y526D02*
X2992Y526D01*
X3032Y526D02*
X3048Y526D01*
X3275Y526D02*
X3292Y526D01*
X3332Y526D02*
X3348Y526D01*
X2975Y525D02*
X2992Y525D01*
X3032Y525D02*
X3048Y525D01*
X3275Y525D02*
X3292Y525D01*
X3332Y525D02*
X3348Y525D01*
X2975Y524D02*
X2992Y524D01*
X3032Y524D02*
X3048Y524D01*
X3275Y524D02*
X3291Y524D01*
X3332Y524D02*
X3348Y524D01*
X2975Y523D02*
X2992Y523D01*
X3032Y523D02*
X3048Y523D01*
X3275Y523D02*
X3291Y523D01*
X3332Y523D02*
X3348Y523D01*
X2975Y522D02*
X2992Y522D01*
X3032Y522D02*
X3048Y522D01*
X3275Y522D02*
X3292Y522D01*
X3332Y522D02*
X3348Y522D01*
X2975Y521D02*
X2992Y521D01*
X3032Y521D02*
X3048Y521D01*
X3275Y521D02*
X3292Y521D01*
X3332Y521D02*
X3348Y521D01*
X2975Y520D02*
X2992Y520D01*
X3032Y520D02*
X3048Y520D01*
X3275Y520D02*
X3292Y520D01*
X3332Y520D02*
X3348Y520D01*
X2975Y519D02*
X2992Y519D01*
X3032Y519D02*
X3048Y519D01*
X3275Y519D02*
X3292Y519D01*
X3332Y519D02*
X3348Y519D01*
X2975Y518D02*
X2992Y518D01*
X3032Y518D02*
X3048Y518D01*
X3275Y518D02*
X3292Y518D01*
X3332Y518D02*
X3348Y518D01*
X2975Y517D02*
X2993Y517D01*
X3031Y517D02*
X3048Y517D01*
X3275Y517D02*
X3293Y517D01*
X3331Y517D02*
X3348Y517D01*
X2975Y516D02*
X2993Y516D01*
X3031Y516D02*
X3048Y516D01*
X3275Y516D02*
X3293Y516D01*
X3331Y516D02*
X3348Y516D01*
X2975Y515D02*
X2993Y515D01*
X3030Y515D02*
X3048Y515D01*
X3275Y515D02*
X3293Y515D01*
X3330Y515D02*
X3348Y515D01*
X2975Y514D02*
X2994Y514D01*
X3030Y514D02*
X3048Y514D01*
X3275Y514D02*
X3294Y514D01*
X3330Y514D02*
X3348Y514D01*
X2975Y513D02*
X2995Y513D01*
X3029Y513D02*
X3048Y513D01*
X3275Y513D02*
X3295Y513D01*
X3329Y513D02*
X3348Y513D01*
X2975Y512D02*
X2995Y512D01*
X3029Y512D02*
X3048Y512D01*
X3275Y512D02*
X3295Y512D01*
X3329Y512D02*
X3348Y512D01*
X2975Y511D02*
X2996Y511D01*
X3028Y511D02*
X3048Y511D01*
X3275Y511D02*
X3296Y511D01*
X3328Y511D02*
X3348Y511D01*
X2975Y510D02*
X2997Y510D01*
X3027Y510D02*
X3048Y510D01*
X3275Y510D02*
X3297Y510D01*
X3327Y510D02*
X3348Y510D01*
X2975Y509D02*
X2998Y509D01*
X3026Y509D02*
X3048Y509D01*
X3275Y509D02*
X3298Y509D01*
X3326Y509D02*
X3348Y509D01*
X2975Y508D02*
X2999Y508D01*
X3025Y508D02*
X3048Y508D01*
X3275Y508D02*
X3299Y508D01*
X3325Y508D02*
X3348Y508D01*
X2975Y507D02*
X3000Y507D01*
X3024Y507D02*
X3048Y507D01*
X3275Y507D02*
X3300Y507D01*
X3324Y507D02*
X3348Y507D01*
X2975Y506D02*
X3002Y506D01*
X3022Y506D02*
X3048Y506D01*
X3275Y506D02*
X3302Y506D01*
X3322Y506D02*
X3348Y506D01*
X2975Y505D02*
X3004Y505D01*
X3020Y505D02*
X3048Y505D01*
X3275Y505D02*
X3304Y505D01*
X3320Y505D02*
X3348Y505D01*
X2975Y504D02*
X3007Y504D01*
X3016Y504D02*
X3048Y504D01*
X3275Y504D02*
X3307Y504D01*
X3316Y504D02*
X3348Y504D01*
X2975Y503D02*
X3048Y503D01*
X3275Y503D02*
X3348Y503D01*
X2975Y502D02*
X3048Y502D01*
X3275Y502D02*
X3348Y502D01*
X2975Y501D02*
X3048Y501D01*
X3275Y501D02*
X3348Y501D01*
X2975Y500D02*
X3048Y500D01*
X3275Y500D02*
X3348Y500D01*
X2975Y499D02*
X3048Y499D01*
X3275Y499D02*
X3348Y499D01*
X2975Y498D02*
X3048Y498D01*
X3275Y498D02*
X3348Y498D01*
X2975Y497D02*
X3048Y497D01*
X3275Y497D02*
X3348Y497D01*
X2975Y496D02*
X3048Y496D01*
X3275Y496D02*
X3348Y496D01*
X2975Y495D02*
X3048Y495D01*
X3275Y495D02*
X3348Y495D01*
X2975Y494D02*
X3048Y494D01*
X3275Y494D02*
X3348Y494D01*
X2975Y493D02*
X3048Y493D01*
X3275Y493D02*
X3348Y493D01*
X2975Y492D02*
X3048Y492D01*
X3275Y492D02*
X3348Y492D01*
X2975Y491D02*
X3048Y491D01*
X3275Y491D02*
X3348Y491D01*
X2975Y490D02*
X3048Y490D01*
X3275Y490D02*
X3348Y490D01*
X2975Y489D02*
X3048Y489D01*
X3275Y489D02*
X3348Y489D01*
X2975Y488D02*
X3048Y488D01*
X3275Y488D02*
X3348Y488D01*
X2975Y487D02*
X3048Y487D01*
X3275Y487D02*
X3348Y487D01*
X33Y460D02*
X118Y460D01*
X28Y459D02*
X123Y459D01*
X25Y458D02*
X125Y458D01*
X23Y457D02*
X128Y457D01*
X21Y456D02*
X130Y456D01*
X19Y455D02*
X131Y455D01*
X18Y454D02*
X133Y454D01*
X17Y453D02*
X134Y453D01*
X15Y452D02*
X136Y452D01*
X14Y451D02*
X137Y451D01*
X13Y450D02*
X138Y450D01*
X12Y449D02*
X139Y449D01*
X11Y448D02*
X140Y448D01*
X10Y447D02*
X140Y447D01*
X10Y446D02*
X141Y446D01*
X9Y445D02*
X107Y445D01*
X118Y445D02*
X142Y445D01*
X8Y444D02*
X104Y444D01*
X121Y444D02*
X143Y444D01*
X7Y443D02*
X102Y443D01*
X123Y443D02*
X143Y443D01*
X7Y442D02*
X100Y442D01*
X125Y442D02*
X144Y442D01*
X6Y441D02*
X99Y441D01*
X126Y441D02*
X145Y441D01*
X6Y440D02*
X97Y440D01*
X127Y440D02*
X145Y440D01*
X2031Y440D02*
X2104Y440D01*
X2486Y440D02*
X2559Y440D01*
X5Y439D02*
X96Y439D01*
X128Y439D02*
X145Y439D01*
X2031Y439D02*
X2104Y439D01*
X2486Y439D02*
X2559Y439D01*
X5Y438D02*
X95Y438D01*
X129Y438D02*
X146Y438D01*
X2031Y438D02*
X2104Y438D01*
X2486Y438D02*
X2559Y438D01*
X4Y437D02*
X95Y437D01*
X130Y437D02*
X146Y437D01*
X2031Y437D02*
X2104Y437D01*
X2486Y437D02*
X2559Y437D01*
X4Y436D02*
X94Y436D01*
X131Y436D02*
X147Y436D01*
X2031Y436D02*
X2104Y436D01*
X2486Y436D02*
X2559Y436D01*
X4Y435D02*
X93Y435D01*
X132Y435D02*
X147Y435D01*
X2031Y435D02*
X2104Y435D01*
X2486Y435D02*
X2559Y435D01*
X3Y434D02*
X93Y434D01*
X132Y434D02*
X147Y434D01*
X2031Y434D02*
X2104Y434D01*
X2486Y434D02*
X2559Y434D01*
X3Y433D02*
X92Y433D01*
X133Y433D02*
X148Y433D01*
X2031Y433D02*
X2104Y433D01*
X2486Y433D02*
X2559Y433D01*
X3Y432D02*
X92Y432D01*
X133Y432D02*
X148Y432D01*
X2031Y432D02*
X2104Y432D01*
X2486Y432D02*
X2559Y432D01*
X3Y431D02*
X91Y431D01*
X133Y431D02*
X148Y431D01*
X2031Y431D02*
X2104Y431D01*
X2486Y431D02*
X2559Y431D01*
X2Y430D02*
X91Y430D01*
X134Y430D02*
X148Y430D01*
X2031Y430D02*
X2104Y430D01*
X2486Y430D02*
X2559Y430D01*
X2Y429D02*
X91Y429D01*
X134Y429D02*
X148Y429D01*
X2031Y429D02*
X2104Y429D01*
X2486Y429D02*
X2559Y429D01*
X2Y428D02*
X90Y428D01*
X134Y428D02*
X149Y428D01*
X2031Y428D02*
X2104Y428D01*
X2486Y428D02*
X2559Y428D01*
X2Y427D02*
X90Y427D01*
X135Y427D02*
X149Y427D01*
X2031Y427D02*
X2104Y427D01*
X2486Y427D02*
X2559Y427D01*
X2Y426D02*
X90Y426D01*
X135Y426D02*
X149Y426D01*
X2031Y426D02*
X2104Y426D01*
X2486Y426D02*
X2559Y426D01*
X2Y425D02*
X90Y425D01*
X135Y425D02*
X149Y425D01*
X2031Y425D02*
X2104Y425D01*
X2486Y425D02*
X2559Y425D01*
X2Y424D02*
X90Y424D01*
X135Y424D02*
X149Y424D01*
X2031Y424D02*
X2104Y424D01*
X2486Y424D02*
X2559Y424D01*
X2Y423D02*
X90Y423D01*
X135Y423D02*
X149Y423D01*
X2031Y423D02*
X2062Y423D01*
X2072Y423D02*
X2104Y423D01*
X2486Y423D02*
X2517Y423D01*
X2527Y423D02*
X2559Y423D01*
X2Y422D02*
X90Y422D01*
X135Y422D02*
X149Y422D01*
X2031Y422D02*
X2059Y422D01*
X2075Y422D02*
X2104Y422D01*
X2486Y422D02*
X2514Y422D01*
X2530Y422D02*
X2559Y422D01*
X2Y421D02*
X90Y421D01*
X135Y421D02*
X149Y421D01*
X2031Y421D02*
X2057Y421D01*
X2077Y421D02*
X2104Y421D01*
X2486Y421D02*
X2512Y421D01*
X2532Y421D02*
X2559Y421D01*
X2Y420D02*
X90Y420D01*
X135Y420D02*
X149Y420D01*
X2031Y420D02*
X2055Y420D01*
X2079Y420D02*
X2104Y420D01*
X2486Y420D02*
X2510Y420D01*
X2534Y420D02*
X2559Y420D01*
X2Y419D02*
X90Y419D01*
X134Y419D02*
X149Y419D01*
X2031Y419D02*
X2054Y419D01*
X2080Y419D02*
X2104Y419D01*
X2486Y419D02*
X2509Y419D01*
X2535Y419D02*
X2559Y419D01*
X2Y418D02*
X91Y418D01*
X134Y418D02*
X148Y418D01*
X2031Y418D02*
X2053Y418D01*
X2081Y418D02*
X2104Y418D01*
X2486Y418D02*
X2508Y418D01*
X2536Y418D02*
X2559Y418D01*
X3Y417D02*
X91Y417D01*
X134Y417D02*
X148Y417D01*
X2031Y417D02*
X2052Y417D01*
X2082Y417D02*
X2104Y417D01*
X2486Y417D02*
X2507Y417D01*
X2537Y417D02*
X2559Y417D01*
X3Y416D02*
X91Y416D01*
X133Y416D02*
X148Y416D01*
X2031Y416D02*
X2051Y416D01*
X2083Y416D02*
X2104Y416D01*
X2486Y416D02*
X2506Y416D01*
X2538Y416D02*
X2559Y416D01*
X3Y415D02*
X92Y415D01*
X133Y415D02*
X148Y415D01*
X2031Y415D02*
X2050Y415D01*
X2084Y415D02*
X2104Y415D01*
X2486Y415D02*
X2505Y415D01*
X2539Y415D02*
X2559Y415D01*
X3Y414D02*
X92Y414D01*
X133Y414D02*
X148Y414D01*
X2031Y414D02*
X2050Y414D01*
X2085Y414D02*
X2104Y414D01*
X2486Y414D02*
X2505Y414D01*
X2540Y414D02*
X2559Y414D01*
X3Y413D02*
X93Y413D01*
X132Y413D02*
X147Y413D01*
X2031Y413D02*
X2049Y413D01*
X2085Y413D02*
X2104Y413D01*
X2486Y413D02*
X2504Y413D01*
X2540Y413D02*
X2559Y413D01*
X4Y412D02*
X93Y412D01*
X131Y412D02*
X147Y412D01*
X2031Y412D02*
X2049Y412D01*
X2086Y412D02*
X2104Y412D01*
X2486Y412D02*
X2503Y412D01*
X2541Y412D02*
X2559Y412D01*
X4Y411D02*
X94Y411D01*
X131Y411D02*
X147Y411D01*
X2031Y411D02*
X2048Y411D01*
X2086Y411D02*
X2104Y411D01*
X2486Y411D02*
X2503Y411D01*
X2541Y411D02*
X2559Y411D01*
X4Y410D02*
X95Y410D01*
X130Y410D02*
X146Y410D01*
X2031Y410D02*
X2048Y410D01*
X2086Y410D02*
X2104Y410D01*
X2486Y410D02*
X2503Y410D01*
X2541Y410D02*
X2559Y410D01*
X5Y409D02*
X96Y409D01*
X129Y409D02*
X146Y409D01*
X2031Y409D02*
X2047Y409D01*
X2087Y409D02*
X2104Y409D01*
X2486Y409D02*
X2502Y409D01*
X2542Y409D02*
X2559Y409D01*
X5Y408D02*
X96Y408D01*
X128Y408D02*
X145Y408D01*
X2031Y408D02*
X2047Y408D01*
X2087Y408D02*
X2104Y408D01*
X2486Y408D02*
X2502Y408D01*
X2542Y408D02*
X2559Y408D01*
X6Y407D02*
X98Y407D01*
X127Y407D02*
X145Y407D01*
X2031Y407D02*
X2047Y407D01*
X2087Y407D02*
X2104Y407D01*
X2486Y407D02*
X2502Y407D01*
X2542Y407D02*
X2559Y407D01*
X6Y406D02*
X99Y406D01*
X126Y406D02*
X144Y406D01*
X2031Y406D02*
X2047Y406D01*
X2087Y406D02*
X2104Y406D01*
X2486Y406D02*
X2502Y406D01*
X2542Y406D02*
X2559Y406D01*
X7Y405D02*
X100Y405D01*
X125Y405D02*
X144Y405D01*
X2031Y405D02*
X2047Y405D01*
X2087Y405D02*
X2104Y405D01*
X2486Y405D02*
X2502Y405D01*
X2542Y405D02*
X2559Y405D01*
X8Y404D02*
X102Y404D01*
X123Y404D02*
X143Y404D01*
X2031Y404D02*
X2047Y404D01*
X2088Y404D02*
X2104Y404D01*
X2486Y404D02*
X2502Y404D01*
X2542Y404D02*
X2559Y404D01*
X8Y403D02*
X104Y403D01*
X120Y403D02*
X143Y403D01*
X2031Y403D02*
X2047Y403D01*
X2088Y403D02*
X2104Y403D01*
X2486Y403D02*
X2502Y403D01*
X2542Y403D02*
X2559Y403D01*
X9Y402D02*
X108Y402D01*
X117Y402D02*
X142Y402D01*
X2031Y402D02*
X2047Y402D01*
X2087Y402D02*
X2104Y402D01*
X2486Y402D02*
X2502Y402D01*
X2542Y402D02*
X2559Y402D01*
X10Y401D02*
X141Y401D01*
X2031Y401D02*
X2047Y401D01*
X2087Y401D02*
X2104Y401D01*
X2486Y401D02*
X2502Y401D01*
X2542Y401D02*
X2559Y401D01*
X10Y400D02*
X140Y400D01*
X2031Y400D02*
X2047Y400D01*
X2087Y400D02*
X2104Y400D01*
X2486Y400D02*
X2502Y400D01*
X2542Y400D02*
X2559Y400D01*
X11Y399D02*
X139Y399D01*
X2031Y399D02*
X2047Y399D01*
X2087Y399D02*
X2104Y399D01*
X2486Y399D02*
X2502Y399D01*
X2542Y399D02*
X2559Y399D01*
X12Y398D02*
X139Y398D01*
X2031Y398D02*
X2047Y398D01*
X2087Y398D02*
X2104Y398D01*
X2486Y398D02*
X2502Y398D01*
X2542Y398D02*
X2559Y398D01*
X13Y397D02*
X138Y397D01*
X2031Y397D02*
X2048Y397D01*
X2086Y397D02*
X2104Y397D01*
X2486Y397D02*
X2503Y397D01*
X2541Y397D02*
X2559Y397D01*
X14Y396D02*
X136Y396D01*
X2031Y396D02*
X2048Y396D01*
X2086Y396D02*
X2104Y396D01*
X2486Y396D02*
X2503Y396D01*
X2541Y396D02*
X2559Y396D01*
X15Y395D02*
X135Y395D01*
X2031Y395D02*
X2049Y395D01*
X2086Y395D02*
X2104Y395D01*
X2486Y395D02*
X2504Y395D01*
X2541Y395D02*
X2559Y395D01*
X17Y394D02*
X134Y394D01*
X2031Y394D02*
X2049Y394D01*
X2085Y394D02*
X2104Y394D01*
X2486Y394D02*
X2504Y394D01*
X2540Y394D02*
X2559Y394D01*
X18Y393D02*
X133Y393D01*
X2031Y393D02*
X2050Y393D01*
X2084Y393D02*
X2104Y393D01*
X2486Y393D02*
X2505Y393D01*
X2539Y393D02*
X2559Y393D01*
X20Y392D02*
X131Y392D01*
X2031Y392D02*
X2050Y392D01*
X2084Y392D02*
X2104Y392D01*
X2486Y392D02*
X2505Y392D01*
X2539Y392D02*
X2559Y392D01*
X21Y391D02*
X129Y391D01*
X2031Y391D02*
X2051Y391D01*
X2083Y391D02*
X2104Y391D01*
X2486Y391D02*
X2506Y391D01*
X2538Y391D02*
X2559Y391D01*
X23Y390D02*
X127Y390D01*
X2031Y390D02*
X2052Y390D01*
X2082Y390D02*
X2104Y390D01*
X2486Y390D02*
X2507Y390D01*
X2537Y390D02*
X2559Y390D01*
X26Y389D02*
X125Y389D01*
X2031Y389D02*
X2053Y389D01*
X2081Y389D02*
X2104Y389D01*
X2486Y389D02*
X2508Y389D01*
X2536Y389D02*
X2559Y389D01*
X29Y388D02*
X122Y388D01*
X2031Y388D02*
X2054Y388D01*
X2080Y388D02*
X2104Y388D01*
X2486Y388D02*
X2509Y388D01*
X2535Y388D02*
X2559Y388D01*
X34Y387D02*
X117Y387D01*
X2031Y387D02*
X2055Y387D01*
X2079Y387D02*
X2104Y387D01*
X2486Y387D02*
X2510Y387D01*
X2534Y387D02*
X2559Y387D01*
X2031Y386D02*
X2057Y386D01*
X2077Y386D02*
X2104Y386D01*
X2486Y386D02*
X2512Y386D01*
X2532Y386D02*
X2559Y386D01*
X2031Y385D02*
X2059Y385D01*
X2075Y385D02*
X2104Y385D01*
X2486Y385D02*
X2514Y385D01*
X2530Y385D02*
X2559Y385D01*
X2031Y384D02*
X2063Y384D01*
X2072Y384D02*
X2104Y384D01*
X2486Y384D02*
X2518Y384D01*
X2526Y384D02*
X2559Y384D01*
X2031Y383D02*
X2104Y383D01*
X2486Y383D02*
X2559Y383D01*
X2031Y382D02*
X2104Y382D01*
X2486Y382D02*
X2559Y382D01*
X2031Y381D02*
X2104Y381D01*
X2486Y381D02*
X2559Y381D01*
X2031Y380D02*
X2104Y380D01*
X2486Y380D02*
X2559Y380D01*
X2031Y379D02*
X2104Y379D01*
X2486Y379D02*
X2559Y379D01*
X2031Y378D02*
X2104Y378D01*
X2486Y378D02*
X2559Y378D01*
X2031Y377D02*
X2104Y377D01*
X2486Y377D02*
X2559Y377D01*
X2031Y376D02*
X2104Y376D01*
X2486Y376D02*
X2559Y376D01*
X2031Y375D02*
X2104Y375D01*
X2486Y375D02*
X2559Y375D01*
X2031Y374D02*
X2104Y374D01*
X2486Y374D02*
X2559Y374D01*
X2031Y373D02*
X2104Y373D01*
X2486Y373D02*
X2559Y373D01*
X2031Y372D02*
X2104Y372D01*
X2486Y372D02*
X2559Y372D01*
X2031Y371D02*
X2104Y371D01*
X2486Y371D02*
X2559Y371D01*
X2031Y370D02*
X2104Y370D01*
X2486Y370D02*
X2559Y370D01*
X2031Y369D02*
X2104Y369D01*
X2486Y369D02*
X2559Y369D01*
X2031Y368D02*
X2104Y368D01*
X2486Y368D02*
X2559Y368D01*
X2031Y367D02*
X2104Y367D01*
X2486Y367D02*
X2558Y367D01*
X176Y160D02*
X249Y160D01*
X176Y159D02*
X249Y159D01*
X176Y158D02*
X249Y158D01*
X176Y157D02*
X249Y157D01*
X176Y156D02*
X249Y156D01*
X176Y155D02*
X249Y155D01*
X176Y154D02*
X249Y154D01*
X176Y153D02*
X249Y153D01*
X176Y152D02*
X249Y152D01*
X176Y151D02*
X249Y151D01*
X176Y150D02*
X249Y150D01*
X176Y149D02*
X249Y149D01*
X176Y148D02*
X249Y148D01*
X176Y147D02*
X249Y147D01*
X176Y146D02*
X249Y146D01*
X176Y145D02*
X249Y145D01*
X176Y144D02*
X249Y144D01*
X176Y143D02*
X207Y143D01*
X218Y143D02*
X249Y143D01*
X176Y142D02*
X204Y142D01*
X221Y142D02*
X249Y142D01*
X176Y141D02*
X202Y141D01*
X223Y141D02*
X249Y141D01*
X176Y140D02*
X200Y140D01*
X224Y140D02*
X249Y140D01*
X176Y139D02*
X199Y139D01*
X225Y139D02*
X249Y139D01*
X176Y138D02*
X198Y138D01*
X227Y138D02*
X249Y138D01*
X176Y137D02*
X197Y137D01*
X228Y137D02*
X249Y137D01*
X176Y136D02*
X196Y136D01*
X228Y136D02*
X249Y136D01*
X176Y135D02*
X195Y135D01*
X229Y135D02*
X249Y135D01*
X176Y134D02*
X195Y134D01*
X230Y134D02*
X249Y134D01*
X176Y133D02*
X194Y133D01*
X230Y133D02*
X249Y133D01*
X176Y132D02*
X194Y132D01*
X231Y132D02*
X249Y132D01*
X176Y131D02*
X193Y131D01*
X231Y131D02*
X249Y131D01*
X176Y130D02*
X193Y130D01*
X232Y130D02*
X249Y130D01*
X176Y129D02*
X193Y129D01*
X232Y129D02*
X249Y129D01*
X176Y128D02*
X192Y128D01*
X232Y128D02*
X249Y128D01*
X176Y127D02*
X192Y127D01*
X233Y127D02*
X249Y127D01*
X176Y126D02*
X192Y126D01*
X233Y126D02*
X249Y126D01*
X176Y125D02*
X192Y125D01*
X233Y125D02*
X249Y125D01*
X176Y124D02*
X192Y124D01*
X233Y124D02*
X249Y124D01*
X176Y123D02*
X192Y123D01*
X233Y123D02*
X249Y123D01*
X176Y122D02*
X192Y122D01*
X233Y122D02*
X249Y122D01*
X176Y121D02*
X192Y121D01*
X233Y121D02*
X249Y121D01*
X176Y120D02*
X192Y120D01*
X232Y120D02*
X249Y120D01*
X176Y119D02*
X192Y119D01*
X232Y119D02*
X249Y119D01*
X176Y118D02*
X193Y118D01*
X232Y118D02*
X249Y118D01*
X176Y117D02*
X193Y117D01*
X232Y117D02*
X249Y117D01*
X176Y116D02*
X193Y116D01*
X231Y116D02*
X249Y116D01*
X176Y115D02*
X194Y115D01*
X231Y115D02*
X249Y115D01*
X176Y114D02*
X194Y114D01*
X230Y114D02*
X249Y114D01*
X176Y113D02*
X195Y113D01*
X230Y113D02*
X249Y113D01*
X176Y112D02*
X196Y112D01*
X229Y112D02*
X249Y112D01*
X176Y111D02*
X196Y111D01*
X228Y111D02*
X249Y111D01*
X176Y110D02*
X197Y110D01*
X227Y110D02*
X249Y110D01*
X176Y109D02*
X198Y109D01*
X226Y109D02*
X249Y109D01*
X176Y108D02*
X200Y108D01*
X225Y108D02*
X249Y108D01*
X176Y107D02*
X201Y107D01*
X224Y107D02*
X249Y107D01*
X176Y106D02*
X203Y106D01*
X222Y106D02*
X249Y106D01*
X176Y105D02*
X205Y105D01*
X220Y105D02*
X249Y105D01*
X176Y104D02*
X208Y104D01*
X217Y104D02*
X249Y104D01*
X176Y103D02*
X249Y103D01*
X176Y102D02*
X249Y102D01*
X176Y101D02*
X249Y101D01*
X176Y100D02*
X249Y100D01*
X176Y99D02*
X249Y99D01*
X176Y98D02*
X249Y98D01*
X176Y97D02*
X249Y97D01*
X176Y96D02*
X249Y96D01*
X176Y95D02*
X249Y95D01*
X176Y94D02*
X249Y94D01*
X176Y93D02*
X249Y93D01*
X176Y92D02*
X249Y92D01*
X176Y91D02*
X249Y91D01*
X176Y90D02*
X249Y90D01*
X176Y89D02*
X249Y89D01*
X176Y88D02*
X249Y88D01*
X176Y87D02*
X249Y87D01*
D02*
G04 End of Copper0*
M02*