G04 MADE WITH FRITZING*
G04 WWW.FRITZING.ORG*
G04 DOUBLE SIDED*
G04 HOLES PLATED*
G04 CONTOUR ON CENTER OF CONTOUR VECTOR*
%ASAXBY*%
%FSLAX23Y23*%
%MOIN*%
%OFA0B0*%
%SFA1.0B1.0*%
%ADD10R,0.001000X0.001000*%
%LNSILK0*%
G90*
G70*
G54D10*
X0Y2152D02*
X4013Y2152D01*
X0Y2151D02*
X4013Y2151D01*
X0Y2150D02*
X4013Y2150D01*
X0Y2149D02*
X4013Y2149D01*
X0Y2148D02*
X4013Y2148D01*
X0Y2147D02*
X4013Y2147D01*
X0Y2146D02*
X4013Y2146D01*
X0Y2145D02*
X4013Y2145D01*
X0Y2144D02*
X7Y2144D01*
X4006Y2144D02*
X4013Y2144D01*
X0Y2143D02*
X7Y2143D01*
X4006Y2143D02*
X4013Y2143D01*
X0Y2142D02*
X7Y2142D01*
X4006Y2142D02*
X4013Y2142D01*
X0Y2141D02*
X7Y2141D01*
X4006Y2141D02*
X4013Y2141D01*
X0Y2140D02*
X7Y2140D01*
X4006Y2140D02*
X4013Y2140D01*
X0Y2139D02*
X7Y2139D01*
X4006Y2139D02*
X4013Y2139D01*
X0Y2138D02*
X7Y2138D01*
X4006Y2138D02*
X4013Y2138D01*
X0Y2137D02*
X7Y2137D01*
X4006Y2137D02*
X4013Y2137D01*
X0Y2136D02*
X7Y2136D01*
X4006Y2136D02*
X4013Y2136D01*
X0Y2135D02*
X7Y2135D01*
X4006Y2135D02*
X4013Y2135D01*
X0Y2134D02*
X7Y2134D01*
X4006Y2134D02*
X4013Y2134D01*
X0Y2133D02*
X7Y2133D01*
X4006Y2133D02*
X4013Y2133D01*
X0Y2132D02*
X7Y2132D01*
X4006Y2132D02*
X4013Y2132D01*
X0Y2131D02*
X7Y2131D01*
X4006Y2131D02*
X4013Y2131D01*
X0Y2130D02*
X7Y2130D01*
X4006Y2130D02*
X4013Y2130D01*
X0Y2129D02*
X7Y2129D01*
X4006Y2129D02*
X4013Y2129D01*
X0Y2128D02*
X7Y2128D01*
X4006Y2128D02*
X4013Y2128D01*
X0Y2127D02*
X7Y2127D01*
X4006Y2127D02*
X4013Y2127D01*
X0Y2126D02*
X7Y2126D01*
X4006Y2126D02*
X4013Y2126D01*
X0Y2125D02*
X7Y2125D01*
X4006Y2125D02*
X4013Y2125D01*
X0Y2124D02*
X7Y2124D01*
X4006Y2124D02*
X4013Y2124D01*
X0Y2123D02*
X7Y2123D01*
X4006Y2123D02*
X4013Y2123D01*
X0Y2122D02*
X7Y2122D01*
X4006Y2122D02*
X4013Y2122D01*
X0Y2121D02*
X7Y2121D01*
X4006Y2121D02*
X4013Y2121D01*
X0Y2120D02*
X7Y2120D01*
X4006Y2120D02*
X4013Y2120D01*
X0Y2119D02*
X7Y2119D01*
X4006Y2119D02*
X4013Y2119D01*
X0Y2118D02*
X7Y2118D01*
X4006Y2118D02*
X4013Y2118D01*
X0Y2117D02*
X7Y2117D01*
X4006Y2117D02*
X4013Y2117D01*
X0Y2116D02*
X7Y2116D01*
X4006Y2116D02*
X4013Y2116D01*
X0Y2115D02*
X7Y2115D01*
X4006Y2115D02*
X4013Y2115D01*
X0Y2114D02*
X7Y2114D01*
X4006Y2114D02*
X4013Y2114D01*
X0Y2113D02*
X7Y2113D01*
X4006Y2113D02*
X4013Y2113D01*
X0Y2112D02*
X7Y2112D01*
X4006Y2112D02*
X4013Y2112D01*
X0Y2111D02*
X7Y2111D01*
X4006Y2111D02*
X4013Y2111D01*
X0Y2110D02*
X7Y2110D01*
X4006Y2110D02*
X4013Y2110D01*
X0Y2109D02*
X7Y2109D01*
X4006Y2109D02*
X4013Y2109D01*
X0Y2108D02*
X7Y2108D01*
X4006Y2108D02*
X4013Y2108D01*
X0Y2107D02*
X7Y2107D01*
X4006Y2107D02*
X4013Y2107D01*
X0Y2106D02*
X7Y2106D01*
X4006Y2106D02*
X4013Y2106D01*
X0Y2105D02*
X7Y2105D01*
X4006Y2105D02*
X4013Y2105D01*
X0Y2104D02*
X7Y2104D01*
X4006Y2104D02*
X4013Y2104D01*
X0Y2103D02*
X7Y2103D01*
X4006Y2103D02*
X4013Y2103D01*
X0Y2102D02*
X7Y2102D01*
X4006Y2102D02*
X4013Y2102D01*
X0Y2101D02*
X7Y2101D01*
X4006Y2101D02*
X4013Y2101D01*
X0Y2100D02*
X7Y2100D01*
X4006Y2100D02*
X4013Y2100D01*
X0Y2099D02*
X7Y2099D01*
X4006Y2099D02*
X4013Y2099D01*
X0Y2098D02*
X7Y2098D01*
X4006Y2098D02*
X4013Y2098D01*
X0Y2097D02*
X7Y2097D01*
X4006Y2097D02*
X4013Y2097D01*
X0Y2096D02*
X7Y2096D01*
X4006Y2096D02*
X4013Y2096D01*
X0Y2095D02*
X7Y2095D01*
X4006Y2095D02*
X4013Y2095D01*
X0Y2094D02*
X7Y2094D01*
X4006Y2094D02*
X4013Y2094D01*
X0Y2093D02*
X7Y2093D01*
X4006Y2093D02*
X4013Y2093D01*
X0Y2092D02*
X7Y2092D01*
X4006Y2092D02*
X4013Y2092D01*
X0Y2091D02*
X7Y2091D01*
X4006Y2091D02*
X4013Y2091D01*
X0Y2090D02*
X7Y2090D01*
X4006Y2090D02*
X4013Y2090D01*
X0Y2089D02*
X7Y2089D01*
X4006Y2089D02*
X4013Y2089D01*
X0Y2088D02*
X7Y2088D01*
X4006Y2088D02*
X4013Y2088D01*
X0Y2087D02*
X7Y2087D01*
X4006Y2087D02*
X4013Y2087D01*
X0Y2086D02*
X7Y2086D01*
X4006Y2086D02*
X4013Y2086D01*
X0Y2085D02*
X7Y2085D01*
X4006Y2085D02*
X4013Y2085D01*
X0Y2084D02*
X7Y2084D01*
X4006Y2084D02*
X4013Y2084D01*
X0Y2083D02*
X7Y2083D01*
X4006Y2083D02*
X4013Y2083D01*
X0Y2082D02*
X7Y2082D01*
X4006Y2082D02*
X4013Y2082D01*
X0Y2081D02*
X7Y2081D01*
X4006Y2081D02*
X4013Y2081D01*
X0Y2080D02*
X7Y2080D01*
X4006Y2080D02*
X4013Y2080D01*
X0Y2079D02*
X7Y2079D01*
X4006Y2079D02*
X4013Y2079D01*
X0Y2078D02*
X7Y2078D01*
X4006Y2078D02*
X4013Y2078D01*
X0Y2077D02*
X7Y2077D01*
X4006Y2077D02*
X4013Y2077D01*
X0Y2076D02*
X7Y2076D01*
X4006Y2076D02*
X4013Y2076D01*
X0Y2075D02*
X7Y2075D01*
X4006Y2075D02*
X4013Y2075D01*
X0Y2074D02*
X7Y2074D01*
X4006Y2074D02*
X4013Y2074D01*
X0Y2073D02*
X7Y2073D01*
X4006Y2073D02*
X4013Y2073D01*
X0Y2072D02*
X7Y2072D01*
X4006Y2072D02*
X4013Y2072D01*
X0Y2071D02*
X7Y2071D01*
X4006Y2071D02*
X4013Y2071D01*
X0Y2070D02*
X7Y2070D01*
X4006Y2070D02*
X4013Y2070D01*
X0Y2069D02*
X7Y2069D01*
X4006Y2069D02*
X4013Y2069D01*
X0Y2068D02*
X7Y2068D01*
X4006Y2068D02*
X4013Y2068D01*
X0Y2067D02*
X7Y2067D01*
X4006Y2067D02*
X4013Y2067D01*
X0Y2066D02*
X7Y2066D01*
X4006Y2066D02*
X4013Y2066D01*
X0Y2065D02*
X7Y2065D01*
X4006Y2065D02*
X4013Y2065D01*
X0Y2064D02*
X7Y2064D01*
X4006Y2064D02*
X4013Y2064D01*
X0Y2063D02*
X7Y2063D01*
X4006Y2063D02*
X4013Y2063D01*
X0Y2062D02*
X7Y2062D01*
X4006Y2062D02*
X4013Y2062D01*
X0Y2061D02*
X7Y2061D01*
X4006Y2061D02*
X4013Y2061D01*
X0Y2060D02*
X7Y2060D01*
X4006Y2060D02*
X4013Y2060D01*
X0Y2059D02*
X7Y2059D01*
X4006Y2059D02*
X4013Y2059D01*
X0Y2058D02*
X7Y2058D01*
X4006Y2058D02*
X4013Y2058D01*
X0Y2057D02*
X7Y2057D01*
X4006Y2057D02*
X4013Y2057D01*
X0Y2056D02*
X7Y2056D01*
X4006Y2056D02*
X4013Y2056D01*
X0Y2055D02*
X7Y2055D01*
X4006Y2055D02*
X4013Y2055D01*
X0Y2054D02*
X7Y2054D01*
X4006Y2054D02*
X4013Y2054D01*
X0Y2053D02*
X7Y2053D01*
X4006Y2053D02*
X4013Y2053D01*
X0Y2052D02*
X7Y2052D01*
X4006Y2052D02*
X4013Y2052D01*
X0Y2051D02*
X7Y2051D01*
X4006Y2051D02*
X4013Y2051D01*
X0Y2050D02*
X7Y2050D01*
X4006Y2050D02*
X4013Y2050D01*
X0Y2049D02*
X7Y2049D01*
X4006Y2049D02*
X4013Y2049D01*
X0Y2048D02*
X7Y2048D01*
X4006Y2048D02*
X4013Y2048D01*
X0Y2047D02*
X7Y2047D01*
X4006Y2047D02*
X4013Y2047D01*
X0Y2046D02*
X7Y2046D01*
X4006Y2046D02*
X4013Y2046D01*
X0Y2045D02*
X7Y2045D01*
X4006Y2045D02*
X4013Y2045D01*
X0Y2044D02*
X7Y2044D01*
X4006Y2044D02*
X4013Y2044D01*
X0Y2043D02*
X7Y2043D01*
X4006Y2043D02*
X4013Y2043D01*
X0Y2042D02*
X7Y2042D01*
X4006Y2042D02*
X4013Y2042D01*
X0Y2041D02*
X7Y2041D01*
X4006Y2041D02*
X4013Y2041D01*
X0Y2040D02*
X7Y2040D01*
X4006Y2040D02*
X4013Y2040D01*
X0Y2039D02*
X7Y2039D01*
X4006Y2039D02*
X4013Y2039D01*
X0Y2038D02*
X7Y2038D01*
X4006Y2038D02*
X4013Y2038D01*
X0Y2037D02*
X7Y2037D01*
X4006Y2037D02*
X4013Y2037D01*
X0Y2036D02*
X7Y2036D01*
X4006Y2036D02*
X4013Y2036D01*
X0Y2035D02*
X7Y2035D01*
X4006Y2035D02*
X4013Y2035D01*
X0Y2034D02*
X7Y2034D01*
X4006Y2034D02*
X4013Y2034D01*
X0Y2033D02*
X7Y2033D01*
X4006Y2033D02*
X4013Y2033D01*
X0Y2032D02*
X7Y2032D01*
X4006Y2032D02*
X4013Y2032D01*
X0Y2031D02*
X7Y2031D01*
X4006Y2031D02*
X4013Y2031D01*
X0Y2030D02*
X7Y2030D01*
X4006Y2030D02*
X4013Y2030D01*
X0Y2029D02*
X7Y2029D01*
X4006Y2029D02*
X4013Y2029D01*
X0Y2028D02*
X7Y2028D01*
X4006Y2028D02*
X4013Y2028D01*
X0Y2027D02*
X7Y2027D01*
X4006Y2027D02*
X4013Y2027D01*
X0Y2026D02*
X7Y2026D01*
X4006Y2026D02*
X4013Y2026D01*
X0Y2025D02*
X7Y2025D01*
X4006Y2025D02*
X4013Y2025D01*
X0Y2024D02*
X7Y2024D01*
X4006Y2024D02*
X4013Y2024D01*
X0Y2023D02*
X7Y2023D01*
X4006Y2023D02*
X4013Y2023D01*
X0Y2022D02*
X7Y2022D01*
X4006Y2022D02*
X4013Y2022D01*
X0Y2021D02*
X7Y2021D01*
X4006Y2021D02*
X4013Y2021D01*
X0Y2020D02*
X7Y2020D01*
X4006Y2020D02*
X4013Y2020D01*
X0Y2019D02*
X7Y2019D01*
X4006Y2019D02*
X4013Y2019D01*
X0Y2018D02*
X7Y2018D01*
X4006Y2018D02*
X4013Y2018D01*
X0Y2017D02*
X7Y2017D01*
X4006Y2017D02*
X4013Y2017D01*
X0Y2016D02*
X7Y2016D01*
X4006Y2016D02*
X4013Y2016D01*
X0Y2015D02*
X7Y2015D01*
X4006Y2015D02*
X4013Y2015D01*
X0Y2014D02*
X7Y2014D01*
X4006Y2014D02*
X4013Y2014D01*
X0Y2013D02*
X7Y2013D01*
X4006Y2013D02*
X4013Y2013D01*
X0Y2012D02*
X7Y2012D01*
X4006Y2012D02*
X4013Y2012D01*
X0Y2011D02*
X7Y2011D01*
X4006Y2011D02*
X4013Y2011D01*
X0Y2010D02*
X7Y2010D01*
X4006Y2010D02*
X4013Y2010D01*
X0Y2009D02*
X7Y2009D01*
X4006Y2009D02*
X4013Y2009D01*
X0Y2008D02*
X7Y2008D01*
X4006Y2008D02*
X4013Y2008D01*
X0Y2007D02*
X7Y2007D01*
X4006Y2007D02*
X4013Y2007D01*
X0Y2006D02*
X7Y2006D01*
X4006Y2006D02*
X4013Y2006D01*
X0Y2005D02*
X7Y2005D01*
X4006Y2005D02*
X4013Y2005D01*
X0Y2004D02*
X7Y2004D01*
X4006Y2004D02*
X4013Y2004D01*
X0Y2003D02*
X7Y2003D01*
X4006Y2003D02*
X4013Y2003D01*
X0Y2002D02*
X7Y2002D01*
X4006Y2002D02*
X4013Y2002D01*
X0Y2001D02*
X7Y2001D01*
X4006Y2001D02*
X4013Y2001D01*
X0Y2000D02*
X7Y2000D01*
X4006Y2000D02*
X4013Y2000D01*
X0Y1999D02*
X7Y1999D01*
X4006Y1999D02*
X4013Y1999D01*
X0Y1998D02*
X7Y1998D01*
X4006Y1998D02*
X4013Y1998D01*
X0Y1997D02*
X7Y1997D01*
X4006Y1997D02*
X4013Y1997D01*
X0Y1996D02*
X7Y1996D01*
X4006Y1996D02*
X4013Y1996D01*
X0Y1995D02*
X7Y1995D01*
X4006Y1995D02*
X4013Y1995D01*
X0Y1994D02*
X7Y1994D01*
X4006Y1994D02*
X4013Y1994D01*
X0Y1993D02*
X7Y1993D01*
X4006Y1993D02*
X4013Y1993D01*
X0Y1992D02*
X7Y1992D01*
X4006Y1992D02*
X4013Y1992D01*
X0Y1991D02*
X7Y1991D01*
X4006Y1991D02*
X4013Y1991D01*
X0Y1990D02*
X7Y1990D01*
X4006Y1990D02*
X4013Y1990D01*
X0Y1989D02*
X7Y1989D01*
X4006Y1989D02*
X4013Y1989D01*
X0Y1988D02*
X7Y1988D01*
X4006Y1988D02*
X4013Y1988D01*
X0Y1987D02*
X7Y1987D01*
X4006Y1987D02*
X4013Y1987D01*
X0Y1986D02*
X7Y1986D01*
X4006Y1986D02*
X4013Y1986D01*
X0Y1985D02*
X7Y1985D01*
X4006Y1985D02*
X4013Y1985D01*
X0Y1984D02*
X7Y1984D01*
X4006Y1984D02*
X4013Y1984D01*
X0Y1983D02*
X7Y1983D01*
X4006Y1983D02*
X4013Y1983D01*
X0Y1982D02*
X7Y1982D01*
X4006Y1982D02*
X4013Y1982D01*
X0Y1981D02*
X7Y1981D01*
X4006Y1981D02*
X4013Y1981D01*
X0Y1980D02*
X7Y1980D01*
X4006Y1980D02*
X4013Y1980D01*
X0Y1979D02*
X7Y1979D01*
X4006Y1979D02*
X4013Y1979D01*
X0Y1978D02*
X7Y1978D01*
X4006Y1978D02*
X4013Y1978D01*
X0Y1977D02*
X7Y1977D01*
X4006Y1977D02*
X4013Y1977D01*
X0Y1976D02*
X7Y1976D01*
X4006Y1976D02*
X4013Y1976D01*
X0Y1975D02*
X7Y1975D01*
X4006Y1975D02*
X4013Y1975D01*
X0Y1974D02*
X7Y1974D01*
X4006Y1974D02*
X4013Y1974D01*
X0Y1973D02*
X7Y1973D01*
X4006Y1973D02*
X4013Y1973D01*
X0Y1972D02*
X7Y1972D01*
X4006Y1972D02*
X4013Y1972D01*
X0Y1971D02*
X7Y1971D01*
X4006Y1971D02*
X4013Y1971D01*
X0Y1970D02*
X7Y1970D01*
X4006Y1970D02*
X4013Y1970D01*
X0Y1969D02*
X7Y1969D01*
X4006Y1969D02*
X4013Y1969D01*
X0Y1968D02*
X7Y1968D01*
X4006Y1968D02*
X4013Y1968D01*
X0Y1967D02*
X7Y1967D01*
X4006Y1967D02*
X4013Y1967D01*
X0Y1966D02*
X7Y1966D01*
X4006Y1966D02*
X4013Y1966D01*
X0Y1965D02*
X7Y1965D01*
X4006Y1965D02*
X4013Y1965D01*
X0Y1964D02*
X7Y1964D01*
X4006Y1964D02*
X4013Y1964D01*
X0Y1963D02*
X7Y1963D01*
X4006Y1963D02*
X4013Y1963D01*
X0Y1962D02*
X7Y1962D01*
X4006Y1962D02*
X4013Y1962D01*
X0Y1961D02*
X7Y1961D01*
X4006Y1961D02*
X4013Y1961D01*
X0Y1960D02*
X7Y1960D01*
X4006Y1960D02*
X4013Y1960D01*
X0Y1959D02*
X7Y1959D01*
X4006Y1959D02*
X4013Y1959D01*
X0Y1958D02*
X7Y1958D01*
X4006Y1958D02*
X4013Y1958D01*
X0Y1957D02*
X7Y1957D01*
X4006Y1957D02*
X4013Y1957D01*
X0Y1956D02*
X7Y1956D01*
X4006Y1956D02*
X4013Y1956D01*
X0Y1955D02*
X7Y1955D01*
X4006Y1955D02*
X4013Y1955D01*
X0Y1954D02*
X7Y1954D01*
X4006Y1954D02*
X4013Y1954D01*
X0Y1953D02*
X7Y1953D01*
X4006Y1953D02*
X4013Y1953D01*
X0Y1952D02*
X7Y1952D01*
X4006Y1952D02*
X4013Y1952D01*
X0Y1951D02*
X6Y1951D01*
X4006Y1951D02*
X4013Y1951D01*
X0Y1950D02*
X5Y1950D01*
X4006Y1950D02*
X4013Y1950D01*
X0Y1949D02*
X5Y1949D01*
X4006Y1949D02*
X4013Y1949D01*
X0Y1948D02*
X4Y1948D01*
X4006Y1948D02*
X4013Y1948D01*
X0Y1947D02*
X3Y1947D01*
X4006Y1947D02*
X4013Y1947D01*
X0Y1946D02*
X3Y1946D01*
X4006Y1946D02*
X4013Y1946D01*
X0Y1945D02*
X2Y1945D01*
X4006Y1945D02*
X4013Y1945D01*
X0Y1944D02*
X1Y1944D01*
X4006Y1944D02*
X4013Y1944D01*
X0Y1943D02*
X1Y1943D01*
X4006Y1943D02*
X4013Y1943D01*
X0Y1942D02*
X0Y1942D01*
X4006Y1942D02*
X4013Y1942D01*
X0Y1941D02*
X0Y1941D01*
X4006Y1941D02*
X4013Y1941D01*
X4006Y1940D02*
X4013Y1940D01*
X4006Y1939D02*
X4013Y1939D01*
X4006Y1938D02*
X4013Y1938D01*
X4006Y1937D02*
X4013Y1937D01*
X4006Y1936D02*
X4013Y1936D01*
X4006Y1935D02*
X4013Y1935D01*
X4006Y1934D02*
X4013Y1934D01*
X4006Y1933D02*
X4013Y1933D01*
X4006Y1932D02*
X4013Y1932D01*
X4006Y1931D02*
X4013Y1931D01*
X4006Y1930D02*
X4013Y1930D01*
X4006Y1929D02*
X4013Y1929D01*
X4006Y1928D02*
X4013Y1928D01*
X4006Y1927D02*
X4013Y1927D01*
X4006Y1926D02*
X4013Y1926D01*
X4006Y1925D02*
X4013Y1925D01*
X4006Y1924D02*
X4013Y1924D01*
X4006Y1923D02*
X4013Y1923D01*
X4006Y1922D02*
X4013Y1922D01*
X4006Y1921D02*
X4013Y1921D01*
X4006Y1920D02*
X4013Y1920D01*
X4006Y1919D02*
X4013Y1919D01*
X4006Y1918D02*
X4013Y1918D01*
X4006Y1917D02*
X4013Y1917D01*
X4006Y1916D02*
X4013Y1916D01*
X4006Y1915D02*
X4013Y1915D01*
X4006Y1914D02*
X4013Y1914D01*
X4006Y1913D02*
X4013Y1913D01*
X4006Y1912D02*
X4013Y1912D01*
X4006Y1911D02*
X4013Y1911D01*
X4006Y1910D02*
X4013Y1910D01*
X4006Y1909D02*
X4013Y1909D01*
X4006Y1908D02*
X4013Y1908D01*
X4006Y1907D02*
X4013Y1907D01*
X0Y1906D02*
X0Y1906D01*
X4006Y1906D02*
X4013Y1906D01*
X0Y1905D02*
X0Y1905D01*
X4006Y1905D02*
X4013Y1905D01*
X0Y1904D02*
X1Y1904D01*
X4006Y1904D02*
X4013Y1904D01*
X0Y1903D02*
X1Y1903D01*
X4006Y1903D02*
X4013Y1903D01*
X0Y1902D02*
X2Y1902D01*
X4006Y1902D02*
X4013Y1902D01*
X0Y1901D02*
X2Y1901D01*
X4006Y1901D02*
X4013Y1901D01*
X0Y1900D02*
X3Y1900D01*
X4006Y1900D02*
X4013Y1900D01*
X0Y1899D02*
X4Y1899D01*
X4006Y1899D02*
X4013Y1899D01*
X0Y1898D02*
X5Y1898D01*
X4006Y1898D02*
X4013Y1898D01*
X0Y1897D02*
X5Y1897D01*
X4006Y1897D02*
X4013Y1897D01*
X0Y1896D02*
X6Y1896D01*
X4006Y1896D02*
X4013Y1896D01*
X0Y1895D02*
X7Y1895D01*
X4006Y1895D02*
X4013Y1895D01*
X0Y1894D02*
X7Y1894D01*
X4006Y1894D02*
X4013Y1894D01*
X0Y1893D02*
X7Y1893D01*
X4006Y1893D02*
X4013Y1893D01*
X0Y1892D02*
X7Y1892D01*
X4006Y1892D02*
X4013Y1892D01*
X0Y1891D02*
X7Y1891D01*
X4006Y1891D02*
X4013Y1891D01*
X0Y1890D02*
X7Y1890D01*
X4006Y1890D02*
X4013Y1890D01*
X0Y1889D02*
X7Y1889D01*
X4006Y1889D02*
X4013Y1889D01*
X0Y1888D02*
X7Y1888D01*
X4006Y1888D02*
X4013Y1888D01*
X0Y1887D02*
X7Y1887D01*
X4006Y1887D02*
X4013Y1887D01*
X0Y1886D02*
X7Y1886D01*
X4006Y1886D02*
X4013Y1886D01*
X0Y1885D02*
X7Y1885D01*
X4006Y1885D02*
X4013Y1885D01*
X0Y1884D02*
X7Y1884D01*
X4006Y1884D02*
X4013Y1884D01*
X0Y1883D02*
X7Y1883D01*
X4006Y1883D02*
X4013Y1883D01*
X0Y1882D02*
X7Y1882D01*
X4006Y1882D02*
X4013Y1882D01*
X0Y1881D02*
X7Y1881D01*
X4006Y1881D02*
X4013Y1881D01*
X0Y1880D02*
X7Y1880D01*
X4006Y1880D02*
X4013Y1880D01*
X0Y1879D02*
X7Y1879D01*
X4006Y1879D02*
X4013Y1879D01*
X0Y1878D02*
X7Y1878D01*
X4006Y1878D02*
X4013Y1878D01*
X0Y1877D02*
X7Y1877D01*
X4006Y1877D02*
X4013Y1877D01*
X0Y1876D02*
X7Y1876D01*
X4006Y1876D02*
X4013Y1876D01*
X0Y1875D02*
X7Y1875D01*
X4006Y1875D02*
X4013Y1875D01*
X0Y1874D02*
X7Y1874D01*
X4006Y1874D02*
X4013Y1874D01*
X0Y1873D02*
X7Y1873D01*
X4006Y1873D02*
X4013Y1873D01*
X0Y1872D02*
X7Y1872D01*
X4006Y1872D02*
X4013Y1872D01*
X0Y1871D02*
X7Y1871D01*
X4006Y1871D02*
X4013Y1871D01*
X0Y1870D02*
X7Y1870D01*
X4006Y1870D02*
X4013Y1870D01*
X0Y1869D02*
X7Y1869D01*
X4006Y1869D02*
X4013Y1869D01*
X0Y1868D02*
X7Y1868D01*
X4006Y1868D02*
X4013Y1868D01*
X0Y1867D02*
X7Y1867D01*
X4006Y1867D02*
X4013Y1867D01*
X0Y1866D02*
X7Y1866D01*
X4006Y1866D02*
X4013Y1866D01*
X0Y1865D02*
X7Y1865D01*
X4006Y1865D02*
X4013Y1865D01*
X0Y1864D02*
X7Y1864D01*
X4006Y1864D02*
X4013Y1864D01*
X0Y1863D02*
X7Y1863D01*
X4006Y1863D02*
X4013Y1863D01*
X0Y1862D02*
X7Y1862D01*
X4006Y1862D02*
X4013Y1862D01*
X0Y1861D02*
X7Y1861D01*
X4006Y1861D02*
X4013Y1861D01*
X0Y1860D02*
X7Y1860D01*
X4006Y1860D02*
X4013Y1860D01*
X0Y1859D02*
X7Y1859D01*
X4006Y1859D02*
X4013Y1859D01*
X0Y1858D02*
X7Y1858D01*
X4006Y1858D02*
X4013Y1858D01*
X0Y1857D02*
X7Y1857D01*
X4006Y1857D02*
X4013Y1857D01*
X0Y1856D02*
X7Y1856D01*
X4006Y1856D02*
X4013Y1856D01*
X0Y1855D02*
X7Y1855D01*
X4006Y1855D02*
X4013Y1855D01*
X0Y1854D02*
X7Y1854D01*
X4006Y1854D02*
X4013Y1854D01*
X0Y1853D02*
X7Y1853D01*
X4006Y1853D02*
X4013Y1853D01*
X0Y1852D02*
X7Y1852D01*
X4006Y1852D02*
X4013Y1852D01*
X0Y1851D02*
X7Y1851D01*
X4006Y1851D02*
X4013Y1851D01*
X0Y1850D02*
X7Y1850D01*
X4006Y1850D02*
X4013Y1850D01*
X0Y1849D02*
X7Y1849D01*
X4006Y1849D02*
X4013Y1849D01*
X0Y1848D02*
X7Y1848D01*
X4006Y1848D02*
X4013Y1848D01*
X0Y1847D02*
X7Y1847D01*
X4006Y1847D02*
X4013Y1847D01*
X0Y1846D02*
X7Y1846D01*
X4006Y1846D02*
X4013Y1846D01*
X0Y1845D02*
X7Y1845D01*
X4006Y1845D02*
X4013Y1845D01*
X0Y1844D02*
X7Y1844D01*
X4006Y1844D02*
X4013Y1844D01*
X0Y1843D02*
X7Y1843D01*
X4006Y1843D02*
X4013Y1843D01*
X0Y1842D02*
X7Y1842D01*
X4006Y1842D02*
X4013Y1842D01*
X0Y1841D02*
X7Y1841D01*
X4006Y1841D02*
X4013Y1841D01*
X0Y1840D02*
X7Y1840D01*
X4006Y1840D02*
X4013Y1840D01*
X0Y1839D02*
X7Y1839D01*
X4006Y1839D02*
X4013Y1839D01*
X0Y1838D02*
X7Y1838D01*
X4006Y1838D02*
X4013Y1838D01*
X0Y1837D02*
X7Y1837D01*
X4006Y1837D02*
X4013Y1837D01*
X0Y1836D02*
X7Y1836D01*
X4006Y1836D02*
X4013Y1836D01*
X0Y1835D02*
X7Y1835D01*
X4006Y1835D02*
X4013Y1835D01*
X0Y1834D02*
X7Y1834D01*
X4006Y1834D02*
X4013Y1834D01*
X0Y1833D02*
X7Y1833D01*
X4006Y1833D02*
X4013Y1833D01*
X0Y1832D02*
X7Y1832D01*
X4006Y1832D02*
X4013Y1832D01*
X0Y1831D02*
X7Y1831D01*
X4006Y1831D02*
X4013Y1831D01*
X0Y1830D02*
X7Y1830D01*
X4006Y1830D02*
X4013Y1830D01*
X0Y1829D02*
X7Y1829D01*
X4006Y1829D02*
X4013Y1829D01*
X0Y1828D02*
X7Y1828D01*
X4006Y1828D02*
X4013Y1828D01*
X0Y1827D02*
X7Y1827D01*
X4006Y1827D02*
X4013Y1827D01*
X0Y1826D02*
X7Y1826D01*
X4006Y1826D02*
X4013Y1826D01*
X0Y1825D02*
X7Y1825D01*
X4006Y1825D02*
X4013Y1825D01*
X0Y1824D02*
X7Y1824D01*
X4006Y1824D02*
X4013Y1824D01*
X0Y1823D02*
X7Y1823D01*
X4006Y1823D02*
X4013Y1823D01*
X0Y1822D02*
X7Y1822D01*
X4006Y1822D02*
X4013Y1822D01*
X0Y1821D02*
X7Y1821D01*
X4006Y1821D02*
X4013Y1821D01*
X0Y1820D02*
X7Y1820D01*
X4006Y1820D02*
X4013Y1820D01*
X0Y1819D02*
X7Y1819D01*
X4006Y1819D02*
X4013Y1819D01*
X0Y1818D02*
X7Y1818D01*
X4006Y1818D02*
X4013Y1818D01*
X0Y1817D02*
X7Y1817D01*
X4006Y1817D02*
X4013Y1817D01*
X0Y1816D02*
X7Y1816D01*
X4006Y1816D02*
X4013Y1816D01*
X0Y1815D02*
X7Y1815D01*
X4006Y1815D02*
X4013Y1815D01*
X0Y1814D02*
X7Y1814D01*
X4006Y1814D02*
X4013Y1814D01*
X0Y1813D02*
X7Y1813D01*
X4006Y1813D02*
X4013Y1813D01*
X0Y1812D02*
X7Y1812D01*
X4006Y1812D02*
X4013Y1812D01*
X0Y1811D02*
X7Y1811D01*
X4006Y1811D02*
X4013Y1811D01*
X0Y1810D02*
X7Y1810D01*
X4006Y1810D02*
X4013Y1810D01*
X0Y1809D02*
X7Y1809D01*
X4006Y1809D02*
X4013Y1809D01*
X0Y1808D02*
X7Y1808D01*
X4006Y1808D02*
X4013Y1808D01*
X0Y1807D02*
X7Y1807D01*
X4006Y1807D02*
X4013Y1807D01*
X0Y1806D02*
X7Y1806D01*
X4006Y1806D02*
X4013Y1806D01*
X0Y1805D02*
X7Y1805D01*
X4006Y1805D02*
X4013Y1805D01*
X0Y1804D02*
X7Y1804D01*
X4006Y1804D02*
X4013Y1804D01*
X0Y1803D02*
X7Y1803D01*
X4006Y1803D02*
X4013Y1803D01*
X0Y1802D02*
X7Y1802D01*
X4006Y1802D02*
X4013Y1802D01*
X0Y1801D02*
X7Y1801D01*
X4006Y1801D02*
X4013Y1801D01*
X0Y1800D02*
X7Y1800D01*
X4006Y1800D02*
X4013Y1800D01*
X0Y1799D02*
X7Y1799D01*
X4006Y1799D02*
X4013Y1799D01*
X0Y1798D02*
X7Y1798D01*
X4006Y1798D02*
X4013Y1798D01*
X0Y1797D02*
X7Y1797D01*
X4006Y1797D02*
X4013Y1797D01*
X0Y1796D02*
X7Y1796D01*
X4006Y1796D02*
X4013Y1796D01*
X0Y1795D02*
X7Y1795D01*
X4006Y1795D02*
X4013Y1795D01*
X0Y1794D02*
X7Y1794D01*
X4006Y1794D02*
X4013Y1794D01*
X0Y1793D02*
X7Y1793D01*
X4006Y1793D02*
X4013Y1793D01*
X0Y1792D02*
X7Y1792D01*
X4006Y1792D02*
X4013Y1792D01*
X0Y1791D02*
X7Y1791D01*
X4006Y1791D02*
X4013Y1791D01*
X0Y1790D02*
X7Y1790D01*
X4006Y1790D02*
X4013Y1790D01*
X0Y1789D02*
X7Y1789D01*
X4006Y1789D02*
X4013Y1789D01*
X0Y1788D02*
X7Y1788D01*
X4006Y1788D02*
X4013Y1788D01*
X0Y1787D02*
X7Y1787D01*
X4006Y1787D02*
X4013Y1787D01*
X0Y1786D02*
X7Y1786D01*
X4006Y1786D02*
X4013Y1786D01*
X0Y1785D02*
X7Y1785D01*
X4006Y1785D02*
X4013Y1785D01*
X0Y1784D02*
X7Y1784D01*
X4006Y1784D02*
X4013Y1784D01*
X0Y1783D02*
X7Y1783D01*
X4006Y1783D02*
X4013Y1783D01*
X0Y1782D02*
X7Y1782D01*
X4006Y1782D02*
X4013Y1782D01*
X0Y1781D02*
X7Y1781D01*
X4006Y1781D02*
X4013Y1781D01*
X0Y1780D02*
X7Y1780D01*
X4006Y1780D02*
X4013Y1780D01*
X0Y1779D02*
X7Y1779D01*
X4006Y1779D02*
X4013Y1779D01*
X0Y1778D02*
X7Y1778D01*
X4006Y1778D02*
X4013Y1778D01*
X0Y1777D02*
X7Y1777D01*
X4006Y1777D02*
X4013Y1777D01*
X0Y1776D02*
X7Y1776D01*
X4006Y1776D02*
X4013Y1776D01*
X0Y1775D02*
X7Y1775D01*
X4006Y1775D02*
X4013Y1775D01*
X0Y1774D02*
X7Y1774D01*
X4006Y1774D02*
X4013Y1774D01*
X0Y1773D02*
X7Y1773D01*
X4006Y1773D02*
X4013Y1773D01*
X0Y1772D02*
X7Y1772D01*
X4006Y1772D02*
X4013Y1772D01*
X0Y1771D02*
X7Y1771D01*
X4006Y1771D02*
X4013Y1771D01*
X0Y1770D02*
X7Y1770D01*
X4006Y1770D02*
X4013Y1770D01*
X0Y1769D02*
X7Y1769D01*
X4006Y1769D02*
X4013Y1769D01*
X0Y1768D02*
X7Y1768D01*
X4006Y1768D02*
X4013Y1768D01*
X0Y1767D02*
X7Y1767D01*
X4006Y1767D02*
X4013Y1767D01*
X0Y1766D02*
X7Y1766D01*
X4006Y1766D02*
X4013Y1766D01*
X0Y1765D02*
X7Y1765D01*
X4006Y1765D02*
X4013Y1765D01*
X0Y1764D02*
X7Y1764D01*
X4006Y1764D02*
X4013Y1764D01*
X0Y1763D02*
X7Y1763D01*
X4006Y1763D02*
X4013Y1763D01*
X0Y1762D02*
X7Y1762D01*
X4006Y1762D02*
X4013Y1762D01*
X0Y1761D02*
X7Y1761D01*
X4006Y1761D02*
X4013Y1761D01*
X0Y1760D02*
X7Y1760D01*
X4006Y1760D02*
X4013Y1760D01*
X0Y1759D02*
X7Y1759D01*
X4006Y1759D02*
X4013Y1759D01*
X0Y1758D02*
X7Y1758D01*
X4006Y1758D02*
X4013Y1758D01*
X0Y1757D02*
X7Y1757D01*
X4006Y1757D02*
X4013Y1757D01*
X0Y1756D02*
X7Y1756D01*
X4006Y1756D02*
X4013Y1756D01*
X0Y1755D02*
X7Y1755D01*
X4006Y1755D02*
X4013Y1755D01*
X0Y1754D02*
X7Y1754D01*
X4006Y1754D02*
X4013Y1754D01*
X0Y1753D02*
X7Y1753D01*
X4006Y1753D02*
X4013Y1753D01*
X0Y1752D02*
X7Y1752D01*
X4006Y1752D02*
X4013Y1752D01*
X0Y1751D02*
X6Y1751D01*
X4006Y1751D02*
X4013Y1751D01*
X0Y1750D02*
X5Y1750D01*
X4006Y1750D02*
X4013Y1750D01*
X0Y1749D02*
X5Y1749D01*
X4006Y1749D02*
X4013Y1749D01*
X0Y1748D02*
X4Y1748D01*
X4006Y1748D02*
X4013Y1748D01*
X0Y1747D02*
X3Y1747D01*
X4006Y1747D02*
X4013Y1747D01*
X0Y1746D02*
X3Y1746D01*
X4006Y1746D02*
X4013Y1746D01*
X0Y1745D02*
X2Y1745D01*
X4006Y1745D02*
X4013Y1745D01*
X0Y1744D02*
X1Y1744D01*
X4006Y1744D02*
X4013Y1744D01*
X0Y1743D02*
X1Y1743D01*
X4006Y1743D02*
X4013Y1743D01*
X0Y1742D02*
X0Y1742D01*
X4006Y1742D02*
X4013Y1742D01*
X0Y1741D02*
X0Y1741D01*
X4006Y1741D02*
X4013Y1741D01*
X4006Y1740D02*
X4013Y1740D01*
X4006Y1739D02*
X4013Y1739D01*
X4006Y1738D02*
X4013Y1738D01*
X4006Y1737D02*
X4013Y1737D01*
X4006Y1736D02*
X4013Y1736D01*
X4006Y1735D02*
X4013Y1735D01*
X4006Y1734D02*
X4013Y1734D01*
X4006Y1733D02*
X4013Y1733D01*
X4006Y1732D02*
X4013Y1732D01*
X4006Y1731D02*
X4013Y1731D01*
X4006Y1730D02*
X4013Y1730D01*
X4006Y1729D02*
X4013Y1729D01*
X4006Y1728D02*
X4013Y1728D01*
X4006Y1727D02*
X4013Y1727D01*
X4006Y1726D02*
X4013Y1726D01*
X4006Y1725D02*
X4013Y1725D01*
X4006Y1724D02*
X4013Y1724D01*
X4006Y1723D02*
X4013Y1723D01*
X4006Y1722D02*
X4013Y1722D01*
X4006Y1721D02*
X4013Y1721D01*
X4006Y1720D02*
X4013Y1720D01*
X4006Y1719D02*
X4013Y1719D01*
X4006Y1718D02*
X4013Y1718D01*
X4006Y1717D02*
X4013Y1717D01*
X4006Y1716D02*
X4013Y1716D01*
X4006Y1715D02*
X4013Y1715D01*
X4006Y1714D02*
X4013Y1714D01*
X4006Y1713D02*
X4013Y1713D01*
X4006Y1712D02*
X4013Y1712D01*
X4006Y1711D02*
X4013Y1711D01*
X4006Y1710D02*
X4013Y1710D01*
X4006Y1709D02*
X4013Y1709D01*
X4006Y1708D02*
X4013Y1708D01*
X4006Y1707D02*
X4013Y1707D01*
X0Y1706D02*
X0Y1706D01*
X4006Y1706D02*
X4013Y1706D01*
X0Y1705D02*
X0Y1705D01*
X4006Y1705D02*
X4013Y1705D01*
X0Y1704D02*
X1Y1704D01*
X4006Y1704D02*
X4013Y1704D01*
X0Y1703D02*
X1Y1703D01*
X4006Y1703D02*
X4013Y1703D01*
X0Y1702D02*
X2Y1702D01*
X4006Y1702D02*
X4013Y1702D01*
X0Y1701D02*
X2Y1701D01*
X4006Y1701D02*
X4013Y1701D01*
X0Y1700D02*
X3Y1700D01*
X4006Y1700D02*
X4013Y1700D01*
X0Y1699D02*
X4Y1699D01*
X4006Y1699D02*
X4013Y1699D01*
X0Y1698D02*
X5Y1698D01*
X4006Y1698D02*
X4013Y1698D01*
X0Y1697D02*
X5Y1697D01*
X4006Y1697D02*
X4013Y1697D01*
X0Y1696D02*
X6Y1696D01*
X4006Y1696D02*
X4013Y1696D01*
X0Y1695D02*
X7Y1695D01*
X4006Y1695D02*
X4013Y1695D01*
X0Y1694D02*
X7Y1694D01*
X4006Y1694D02*
X4013Y1694D01*
X0Y1693D02*
X7Y1693D01*
X4006Y1693D02*
X4013Y1693D01*
X0Y1692D02*
X7Y1692D01*
X4006Y1692D02*
X4013Y1692D01*
X0Y1691D02*
X7Y1691D01*
X4006Y1691D02*
X4013Y1691D01*
X0Y1690D02*
X7Y1690D01*
X4006Y1690D02*
X4013Y1690D01*
X0Y1689D02*
X7Y1689D01*
X4006Y1689D02*
X4013Y1689D01*
X0Y1688D02*
X7Y1688D01*
X4006Y1688D02*
X4013Y1688D01*
X0Y1687D02*
X7Y1687D01*
X4006Y1687D02*
X4013Y1687D01*
X0Y1686D02*
X7Y1686D01*
X4006Y1686D02*
X4013Y1686D01*
X0Y1685D02*
X7Y1685D01*
X4006Y1685D02*
X4013Y1685D01*
X0Y1684D02*
X7Y1684D01*
X4006Y1684D02*
X4013Y1684D01*
X0Y1683D02*
X7Y1683D01*
X4006Y1683D02*
X4013Y1683D01*
X0Y1682D02*
X7Y1682D01*
X4006Y1682D02*
X4013Y1682D01*
X0Y1681D02*
X7Y1681D01*
X4006Y1681D02*
X4013Y1681D01*
X0Y1680D02*
X7Y1680D01*
X4006Y1680D02*
X4013Y1680D01*
X0Y1679D02*
X7Y1679D01*
X4006Y1679D02*
X4013Y1679D01*
X0Y1678D02*
X7Y1678D01*
X4006Y1678D02*
X4013Y1678D01*
X0Y1677D02*
X7Y1677D01*
X4006Y1677D02*
X4013Y1677D01*
X0Y1676D02*
X7Y1676D01*
X4006Y1676D02*
X4013Y1676D01*
X0Y1675D02*
X7Y1675D01*
X4006Y1675D02*
X4013Y1675D01*
X0Y1674D02*
X7Y1674D01*
X4006Y1674D02*
X4013Y1674D01*
X0Y1673D02*
X7Y1673D01*
X4006Y1673D02*
X4013Y1673D01*
X0Y1672D02*
X7Y1672D01*
X4006Y1672D02*
X4013Y1672D01*
X0Y1671D02*
X7Y1671D01*
X4006Y1671D02*
X4013Y1671D01*
X0Y1670D02*
X7Y1670D01*
X4006Y1670D02*
X4013Y1670D01*
X0Y1669D02*
X7Y1669D01*
X4006Y1669D02*
X4013Y1669D01*
X0Y1668D02*
X7Y1668D01*
X4006Y1668D02*
X4013Y1668D01*
X0Y1667D02*
X7Y1667D01*
X4006Y1667D02*
X4013Y1667D01*
X0Y1666D02*
X7Y1666D01*
X4006Y1666D02*
X4013Y1666D01*
X0Y1665D02*
X7Y1665D01*
X4006Y1665D02*
X4013Y1665D01*
X0Y1664D02*
X7Y1664D01*
X4006Y1664D02*
X4013Y1664D01*
X0Y1663D02*
X7Y1663D01*
X4006Y1663D02*
X4013Y1663D01*
X0Y1662D02*
X7Y1662D01*
X4006Y1662D02*
X4013Y1662D01*
X0Y1661D02*
X7Y1661D01*
X4006Y1661D02*
X4013Y1661D01*
X0Y1660D02*
X7Y1660D01*
X4006Y1660D02*
X4013Y1660D01*
X0Y1659D02*
X7Y1659D01*
X4006Y1659D02*
X4013Y1659D01*
X0Y1658D02*
X7Y1658D01*
X4006Y1658D02*
X4013Y1658D01*
X0Y1657D02*
X7Y1657D01*
X4006Y1657D02*
X4013Y1657D01*
X0Y1656D02*
X7Y1656D01*
X4006Y1656D02*
X4013Y1656D01*
X0Y1655D02*
X7Y1655D01*
X4006Y1655D02*
X4013Y1655D01*
X0Y1654D02*
X7Y1654D01*
X4006Y1654D02*
X4013Y1654D01*
X0Y1653D02*
X7Y1653D01*
X4006Y1653D02*
X4013Y1653D01*
X0Y1652D02*
X7Y1652D01*
X4006Y1652D02*
X4013Y1652D01*
X0Y1651D02*
X7Y1651D01*
X4006Y1651D02*
X4013Y1651D01*
X0Y1650D02*
X7Y1650D01*
X4006Y1650D02*
X4013Y1650D01*
X0Y1649D02*
X7Y1649D01*
X4006Y1649D02*
X4013Y1649D01*
X0Y1648D02*
X7Y1648D01*
X4006Y1648D02*
X4013Y1648D01*
X0Y1647D02*
X7Y1647D01*
X4006Y1647D02*
X4013Y1647D01*
X0Y1646D02*
X7Y1646D01*
X4006Y1646D02*
X4013Y1646D01*
X0Y1645D02*
X7Y1645D01*
X4006Y1645D02*
X4013Y1645D01*
X0Y1644D02*
X7Y1644D01*
X4006Y1644D02*
X4013Y1644D01*
X0Y1643D02*
X7Y1643D01*
X4006Y1643D02*
X4013Y1643D01*
X0Y1642D02*
X7Y1642D01*
X4006Y1642D02*
X4013Y1642D01*
X0Y1641D02*
X7Y1641D01*
X4006Y1641D02*
X4013Y1641D01*
X0Y1640D02*
X7Y1640D01*
X4006Y1640D02*
X4013Y1640D01*
X0Y1639D02*
X7Y1639D01*
X4006Y1639D02*
X4013Y1639D01*
X0Y1638D02*
X7Y1638D01*
X4006Y1638D02*
X4013Y1638D01*
X0Y1637D02*
X7Y1637D01*
X4006Y1637D02*
X4013Y1637D01*
X0Y1636D02*
X7Y1636D01*
X4006Y1636D02*
X4013Y1636D01*
X0Y1635D02*
X7Y1635D01*
X4006Y1635D02*
X4013Y1635D01*
X0Y1634D02*
X7Y1634D01*
X4006Y1634D02*
X4013Y1634D01*
X0Y1633D02*
X7Y1633D01*
X4006Y1633D02*
X4013Y1633D01*
X0Y1632D02*
X7Y1632D01*
X4006Y1632D02*
X4013Y1632D01*
X0Y1631D02*
X7Y1631D01*
X4006Y1631D02*
X4013Y1631D01*
X0Y1630D02*
X7Y1630D01*
X4006Y1630D02*
X4013Y1630D01*
X0Y1629D02*
X7Y1629D01*
X4006Y1629D02*
X4013Y1629D01*
X0Y1628D02*
X7Y1628D01*
X4006Y1628D02*
X4013Y1628D01*
X0Y1627D02*
X7Y1627D01*
X4006Y1627D02*
X4013Y1627D01*
X0Y1626D02*
X7Y1626D01*
X4006Y1626D02*
X4013Y1626D01*
X0Y1625D02*
X7Y1625D01*
X4006Y1625D02*
X4013Y1625D01*
X0Y1624D02*
X7Y1624D01*
X4006Y1624D02*
X4013Y1624D01*
X0Y1623D02*
X7Y1623D01*
X4006Y1623D02*
X4013Y1623D01*
X0Y1622D02*
X7Y1622D01*
X4006Y1622D02*
X4013Y1622D01*
X0Y1621D02*
X7Y1621D01*
X4006Y1621D02*
X4013Y1621D01*
X0Y1620D02*
X7Y1620D01*
X4006Y1620D02*
X4013Y1620D01*
X0Y1619D02*
X7Y1619D01*
X4006Y1619D02*
X4013Y1619D01*
X0Y1618D02*
X7Y1618D01*
X4006Y1618D02*
X4013Y1618D01*
X0Y1617D02*
X7Y1617D01*
X4006Y1617D02*
X4013Y1617D01*
X0Y1616D02*
X7Y1616D01*
X4006Y1616D02*
X4013Y1616D01*
X0Y1615D02*
X7Y1615D01*
X4006Y1615D02*
X4013Y1615D01*
X0Y1614D02*
X7Y1614D01*
X4006Y1614D02*
X4013Y1614D01*
X0Y1613D02*
X7Y1613D01*
X4006Y1613D02*
X4013Y1613D01*
X0Y1612D02*
X7Y1612D01*
X4006Y1612D02*
X4013Y1612D01*
X0Y1611D02*
X7Y1611D01*
X4006Y1611D02*
X4013Y1611D01*
X0Y1610D02*
X7Y1610D01*
X4006Y1610D02*
X4013Y1610D01*
X0Y1609D02*
X7Y1609D01*
X4006Y1609D02*
X4013Y1609D01*
X0Y1608D02*
X7Y1608D01*
X4006Y1608D02*
X4013Y1608D01*
X0Y1607D02*
X7Y1607D01*
X4006Y1607D02*
X4013Y1607D01*
X0Y1606D02*
X7Y1606D01*
X4006Y1606D02*
X4013Y1606D01*
X0Y1605D02*
X7Y1605D01*
X4006Y1605D02*
X4013Y1605D01*
X0Y1604D02*
X7Y1604D01*
X4006Y1604D02*
X4013Y1604D01*
X0Y1603D02*
X7Y1603D01*
X4006Y1603D02*
X4013Y1603D01*
X0Y1602D02*
X7Y1602D01*
X4006Y1602D02*
X4013Y1602D01*
X0Y1601D02*
X7Y1601D01*
X4006Y1601D02*
X4013Y1601D01*
X0Y1600D02*
X7Y1600D01*
X4006Y1600D02*
X4013Y1600D01*
X0Y1599D02*
X7Y1599D01*
X4006Y1599D02*
X4013Y1599D01*
X0Y1598D02*
X7Y1598D01*
X4006Y1598D02*
X4013Y1598D01*
X0Y1597D02*
X7Y1597D01*
X4006Y1597D02*
X4013Y1597D01*
X0Y1596D02*
X7Y1596D01*
X4006Y1596D02*
X4013Y1596D01*
X0Y1595D02*
X7Y1595D01*
X4006Y1595D02*
X4013Y1595D01*
X0Y1594D02*
X7Y1594D01*
X4006Y1594D02*
X4013Y1594D01*
X0Y1593D02*
X7Y1593D01*
X4006Y1593D02*
X4013Y1593D01*
X0Y1592D02*
X7Y1592D01*
X4006Y1592D02*
X4013Y1592D01*
X0Y1591D02*
X7Y1591D01*
X4006Y1591D02*
X4013Y1591D01*
X0Y1590D02*
X7Y1590D01*
X4006Y1590D02*
X4013Y1590D01*
X0Y1589D02*
X7Y1589D01*
X4006Y1589D02*
X4013Y1589D01*
X0Y1588D02*
X7Y1588D01*
X4006Y1588D02*
X4013Y1588D01*
X0Y1587D02*
X7Y1587D01*
X4006Y1587D02*
X4013Y1587D01*
X0Y1586D02*
X7Y1586D01*
X4006Y1586D02*
X4013Y1586D01*
X0Y1585D02*
X7Y1585D01*
X4006Y1585D02*
X4013Y1585D01*
X0Y1584D02*
X7Y1584D01*
X4006Y1584D02*
X4013Y1584D01*
X0Y1583D02*
X7Y1583D01*
X4006Y1583D02*
X4013Y1583D01*
X0Y1582D02*
X7Y1582D01*
X4006Y1582D02*
X4013Y1582D01*
X0Y1581D02*
X7Y1581D01*
X4006Y1581D02*
X4013Y1581D01*
X0Y1580D02*
X7Y1580D01*
X4006Y1580D02*
X4013Y1580D01*
X0Y1579D02*
X7Y1579D01*
X4006Y1579D02*
X4013Y1579D01*
X0Y1578D02*
X7Y1578D01*
X4006Y1578D02*
X4013Y1578D01*
X0Y1577D02*
X7Y1577D01*
X4006Y1577D02*
X4013Y1577D01*
X0Y1576D02*
X7Y1576D01*
X4006Y1576D02*
X4013Y1576D01*
X0Y1575D02*
X7Y1575D01*
X4006Y1575D02*
X4013Y1575D01*
X0Y1574D02*
X7Y1574D01*
X4006Y1574D02*
X4013Y1574D01*
X0Y1573D02*
X7Y1573D01*
X4006Y1573D02*
X4013Y1573D01*
X0Y1572D02*
X7Y1572D01*
X4006Y1572D02*
X4013Y1572D01*
X0Y1571D02*
X7Y1571D01*
X4006Y1571D02*
X4013Y1571D01*
X0Y1570D02*
X7Y1570D01*
X4006Y1570D02*
X4013Y1570D01*
X0Y1569D02*
X7Y1569D01*
X4006Y1569D02*
X4013Y1569D01*
X0Y1568D02*
X7Y1568D01*
X4006Y1568D02*
X4013Y1568D01*
X0Y1567D02*
X7Y1567D01*
X4006Y1567D02*
X4013Y1567D01*
X0Y1566D02*
X7Y1566D01*
X4006Y1566D02*
X4013Y1566D01*
X0Y1565D02*
X7Y1565D01*
X4006Y1565D02*
X4013Y1565D01*
X0Y1564D02*
X7Y1564D01*
X4006Y1564D02*
X4013Y1564D01*
X0Y1563D02*
X7Y1563D01*
X4006Y1563D02*
X4013Y1563D01*
X0Y1562D02*
X7Y1562D01*
X4006Y1562D02*
X4013Y1562D01*
X0Y1561D02*
X7Y1561D01*
X4006Y1561D02*
X4013Y1561D01*
X0Y1560D02*
X7Y1560D01*
X4006Y1560D02*
X4013Y1560D01*
X0Y1559D02*
X7Y1559D01*
X4006Y1559D02*
X4013Y1559D01*
X0Y1558D02*
X7Y1558D01*
X4006Y1558D02*
X4013Y1558D01*
X0Y1557D02*
X7Y1557D01*
X4006Y1557D02*
X4013Y1557D01*
X0Y1556D02*
X7Y1556D01*
X4006Y1556D02*
X4013Y1556D01*
X0Y1555D02*
X7Y1555D01*
X4006Y1555D02*
X4013Y1555D01*
X0Y1554D02*
X7Y1554D01*
X4006Y1554D02*
X4013Y1554D01*
X0Y1553D02*
X7Y1553D01*
X4006Y1553D02*
X4013Y1553D01*
X0Y1552D02*
X7Y1552D01*
X4006Y1552D02*
X4013Y1552D01*
X0Y1551D02*
X6Y1551D01*
X4006Y1551D02*
X4013Y1551D01*
X0Y1550D02*
X5Y1550D01*
X4006Y1550D02*
X4013Y1550D01*
X0Y1549D02*
X5Y1549D01*
X4006Y1549D02*
X4013Y1549D01*
X0Y1548D02*
X4Y1548D01*
X4006Y1548D02*
X4013Y1548D01*
X0Y1547D02*
X3Y1547D01*
X4006Y1547D02*
X4013Y1547D01*
X0Y1546D02*
X3Y1546D01*
X4006Y1546D02*
X4013Y1546D01*
X0Y1545D02*
X2Y1545D01*
X4006Y1545D02*
X4013Y1545D01*
X0Y1544D02*
X1Y1544D01*
X4006Y1544D02*
X4013Y1544D01*
X0Y1543D02*
X1Y1543D01*
X4006Y1543D02*
X4013Y1543D01*
X0Y1542D02*
X0Y1542D01*
X4006Y1542D02*
X4013Y1542D01*
X0Y1541D02*
X0Y1541D01*
X4006Y1541D02*
X4013Y1541D01*
X4006Y1540D02*
X4013Y1540D01*
X4006Y1539D02*
X4013Y1539D01*
X4006Y1538D02*
X4013Y1538D01*
X4006Y1537D02*
X4013Y1537D01*
X4006Y1536D02*
X4013Y1536D01*
X4006Y1535D02*
X4013Y1535D01*
X4006Y1534D02*
X4013Y1534D01*
X4006Y1533D02*
X4013Y1533D01*
X4006Y1532D02*
X4013Y1532D01*
X4006Y1531D02*
X4013Y1531D01*
X4006Y1530D02*
X4013Y1530D01*
X4006Y1529D02*
X4013Y1529D01*
X4006Y1528D02*
X4013Y1528D01*
X4006Y1527D02*
X4013Y1527D01*
X4006Y1526D02*
X4013Y1526D01*
X4006Y1525D02*
X4013Y1525D01*
X4006Y1524D02*
X4013Y1524D01*
X4006Y1523D02*
X4013Y1523D01*
X4006Y1522D02*
X4013Y1522D01*
X4006Y1521D02*
X4013Y1521D01*
X4006Y1520D02*
X4013Y1520D01*
X4006Y1519D02*
X4013Y1519D01*
X4006Y1518D02*
X4013Y1518D01*
X4006Y1517D02*
X4013Y1517D01*
X4006Y1516D02*
X4013Y1516D01*
X4006Y1515D02*
X4013Y1515D01*
X4006Y1514D02*
X4013Y1514D01*
X4006Y1513D02*
X4013Y1513D01*
X4006Y1512D02*
X4013Y1512D01*
X4006Y1511D02*
X4013Y1511D01*
X4006Y1510D02*
X4013Y1510D01*
X4006Y1509D02*
X4013Y1509D01*
X4006Y1508D02*
X4013Y1508D01*
X4006Y1507D02*
X4013Y1507D01*
X0Y1506D02*
X0Y1506D01*
X4006Y1506D02*
X4013Y1506D01*
X0Y1505D02*
X0Y1505D01*
X4006Y1505D02*
X4013Y1505D01*
X0Y1504D02*
X1Y1504D01*
X4006Y1504D02*
X4013Y1504D01*
X0Y1503D02*
X1Y1503D01*
X4006Y1503D02*
X4013Y1503D01*
X0Y1502D02*
X2Y1502D01*
X4006Y1502D02*
X4013Y1502D01*
X0Y1501D02*
X2Y1501D01*
X4006Y1501D02*
X4013Y1501D01*
X0Y1500D02*
X3Y1500D01*
X4006Y1500D02*
X4013Y1500D01*
X0Y1499D02*
X4Y1499D01*
X4006Y1499D02*
X4013Y1499D01*
X0Y1498D02*
X5Y1498D01*
X4006Y1498D02*
X4013Y1498D01*
X0Y1497D02*
X5Y1497D01*
X4006Y1497D02*
X4013Y1497D01*
X0Y1496D02*
X6Y1496D01*
X4006Y1496D02*
X4013Y1496D01*
X0Y1495D02*
X7Y1495D01*
X4006Y1495D02*
X4013Y1495D01*
X0Y1494D02*
X7Y1494D01*
X4006Y1494D02*
X4013Y1494D01*
X0Y1493D02*
X7Y1493D01*
X4006Y1493D02*
X4013Y1493D01*
X0Y1492D02*
X7Y1492D01*
X4006Y1492D02*
X4013Y1492D01*
X0Y1491D02*
X7Y1491D01*
X4006Y1491D02*
X4013Y1491D01*
X0Y1490D02*
X7Y1490D01*
X4006Y1490D02*
X4013Y1490D01*
X0Y1489D02*
X7Y1489D01*
X4006Y1489D02*
X4013Y1489D01*
X0Y1488D02*
X7Y1488D01*
X4006Y1488D02*
X4013Y1488D01*
X0Y1487D02*
X7Y1487D01*
X4006Y1487D02*
X4013Y1487D01*
X0Y1486D02*
X7Y1486D01*
X4006Y1486D02*
X4013Y1486D01*
X0Y1485D02*
X7Y1485D01*
X4006Y1485D02*
X4013Y1485D01*
X0Y1484D02*
X7Y1484D01*
X4006Y1484D02*
X4013Y1484D01*
X0Y1483D02*
X7Y1483D01*
X4006Y1483D02*
X4013Y1483D01*
X0Y1482D02*
X7Y1482D01*
X4006Y1482D02*
X4013Y1482D01*
X0Y1481D02*
X7Y1481D01*
X4006Y1481D02*
X4013Y1481D01*
X0Y1480D02*
X7Y1480D01*
X4006Y1480D02*
X4013Y1480D01*
X0Y1479D02*
X7Y1479D01*
X4006Y1479D02*
X4013Y1479D01*
X0Y1478D02*
X7Y1478D01*
X4006Y1478D02*
X4013Y1478D01*
X0Y1477D02*
X7Y1477D01*
X4006Y1477D02*
X4013Y1477D01*
X0Y1476D02*
X7Y1476D01*
X4006Y1476D02*
X4013Y1476D01*
X0Y1475D02*
X7Y1475D01*
X4006Y1475D02*
X4013Y1475D01*
X0Y1474D02*
X7Y1474D01*
X4006Y1474D02*
X4013Y1474D01*
X0Y1473D02*
X7Y1473D01*
X4006Y1473D02*
X4013Y1473D01*
X0Y1472D02*
X7Y1472D01*
X4006Y1472D02*
X4013Y1472D01*
X0Y1471D02*
X7Y1471D01*
X4006Y1471D02*
X4013Y1471D01*
X0Y1470D02*
X7Y1470D01*
X4006Y1470D02*
X4013Y1470D01*
X0Y1469D02*
X7Y1469D01*
X4006Y1469D02*
X4013Y1469D01*
X0Y1468D02*
X7Y1468D01*
X4006Y1468D02*
X4013Y1468D01*
X0Y1467D02*
X7Y1467D01*
X4006Y1467D02*
X4013Y1467D01*
X0Y1466D02*
X7Y1466D01*
X4006Y1466D02*
X4013Y1466D01*
X0Y1465D02*
X7Y1465D01*
X4006Y1465D02*
X4013Y1465D01*
X0Y1464D02*
X7Y1464D01*
X4006Y1464D02*
X4013Y1464D01*
X0Y1463D02*
X7Y1463D01*
X4006Y1463D02*
X4013Y1463D01*
X0Y1462D02*
X7Y1462D01*
X4006Y1462D02*
X4013Y1462D01*
X0Y1461D02*
X7Y1461D01*
X4006Y1461D02*
X4013Y1461D01*
X0Y1460D02*
X7Y1460D01*
X4006Y1460D02*
X4013Y1460D01*
X0Y1459D02*
X7Y1459D01*
X4006Y1459D02*
X4013Y1459D01*
X0Y1458D02*
X7Y1458D01*
X4006Y1458D02*
X4013Y1458D01*
X0Y1457D02*
X7Y1457D01*
X4006Y1457D02*
X4013Y1457D01*
X0Y1456D02*
X7Y1456D01*
X4006Y1456D02*
X4013Y1456D01*
X0Y1455D02*
X7Y1455D01*
X4006Y1455D02*
X4013Y1455D01*
X0Y1454D02*
X7Y1454D01*
X4006Y1454D02*
X4013Y1454D01*
X0Y1453D02*
X7Y1453D01*
X4006Y1453D02*
X4013Y1453D01*
X0Y1452D02*
X7Y1452D01*
X4006Y1452D02*
X4013Y1452D01*
X0Y1451D02*
X7Y1451D01*
X4006Y1451D02*
X4013Y1451D01*
X0Y1450D02*
X7Y1450D01*
X4006Y1450D02*
X4013Y1450D01*
X0Y1449D02*
X7Y1449D01*
X4006Y1449D02*
X4013Y1449D01*
X0Y1448D02*
X7Y1448D01*
X4006Y1448D02*
X4013Y1448D01*
X0Y1447D02*
X7Y1447D01*
X4006Y1447D02*
X4013Y1447D01*
X0Y1446D02*
X7Y1446D01*
X4006Y1446D02*
X4013Y1446D01*
X0Y1445D02*
X7Y1445D01*
X4006Y1445D02*
X4013Y1445D01*
X0Y1444D02*
X7Y1444D01*
X4006Y1444D02*
X4013Y1444D01*
X0Y1443D02*
X7Y1443D01*
X4006Y1443D02*
X4013Y1443D01*
X0Y1442D02*
X7Y1442D01*
X4006Y1442D02*
X4013Y1442D01*
X0Y1441D02*
X7Y1441D01*
X4006Y1441D02*
X4013Y1441D01*
X0Y1440D02*
X7Y1440D01*
X4006Y1440D02*
X4013Y1440D01*
X0Y1439D02*
X7Y1439D01*
X4006Y1439D02*
X4013Y1439D01*
X0Y1438D02*
X7Y1438D01*
X4006Y1438D02*
X4013Y1438D01*
X0Y1437D02*
X7Y1437D01*
X4006Y1437D02*
X4013Y1437D01*
X0Y1436D02*
X7Y1436D01*
X4006Y1436D02*
X4013Y1436D01*
X0Y1435D02*
X7Y1435D01*
X4006Y1435D02*
X4013Y1435D01*
X0Y1434D02*
X7Y1434D01*
X4006Y1434D02*
X4013Y1434D01*
X0Y1433D02*
X7Y1433D01*
X4006Y1433D02*
X4013Y1433D01*
X0Y1432D02*
X7Y1432D01*
X4006Y1432D02*
X4013Y1432D01*
X0Y1431D02*
X7Y1431D01*
X4006Y1431D02*
X4013Y1431D01*
X0Y1430D02*
X7Y1430D01*
X4006Y1430D02*
X4013Y1430D01*
X0Y1429D02*
X7Y1429D01*
X4006Y1429D02*
X4013Y1429D01*
X0Y1428D02*
X7Y1428D01*
X4006Y1428D02*
X4013Y1428D01*
X0Y1427D02*
X7Y1427D01*
X4006Y1427D02*
X4013Y1427D01*
X0Y1426D02*
X7Y1426D01*
X4006Y1426D02*
X4013Y1426D01*
X0Y1425D02*
X7Y1425D01*
X4006Y1425D02*
X4013Y1425D01*
X0Y1424D02*
X7Y1424D01*
X4006Y1424D02*
X4013Y1424D01*
X0Y1423D02*
X7Y1423D01*
X4006Y1423D02*
X4013Y1423D01*
X0Y1422D02*
X7Y1422D01*
X4006Y1422D02*
X4013Y1422D01*
X0Y1421D02*
X7Y1421D01*
X4006Y1421D02*
X4013Y1421D01*
X0Y1420D02*
X7Y1420D01*
X4006Y1420D02*
X4013Y1420D01*
X0Y1419D02*
X7Y1419D01*
X4006Y1419D02*
X4013Y1419D01*
X0Y1418D02*
X7Y1418D01*
X4006Y1418D02*
X4013Y1418D01*
X0Y1417D02*
X7Y1417D01*
X4006Y1417D02*
X4013Y1417D01*
X0Y1416D02*
X7Y1416D01*
X4006Y1416D02*
X4013Y1416D01*
X0Y1415D02*
X7Y1415D01*
X4006Y1415D02*
X4013Y1415D01*
X0Y1414D02*
X7Y1414D01*
X4006Y1414D02*
X4013Y1414D01*
X0Y1413D02*
X7Y1413D01*
X4006Y1413D02*
X4013Y1413D01*
X0Y1412D02*
X7Y1412D01*
X4006Y1412D02*
X4013Y1412D01*
X0Y1411D02*
X7Y1411D01*
X4006Y1411D02*
X4013Y1411D01*
X0Y1410D02*
X7Y1410D01*
X4006Y1410D02*
X4013Y1410D01*
X0Y1409D02*
X7Y1409D01*
X4006Y1409D02*
X4013Y1409D01*
X0Y1408D02*
X7Y1408D01*
X4006Y1408D02*
X4013Y1408D01*
X0Y1407D02*
X7Y1407D01*
X4006Y1407D02*
X4013Y1407D01*
X0Y1406D02*
X7Y1406D01*
X4006Y1406D02*
X4013Y1406D01*
X0Y1405D02*
X7Y1405D01*
X4006Y1405D02*
X4013Y1405D01*
X0Y1404D02*
X7Y1404D01*
X4006Y1404D02*
X4013Y1404D01*
X0Y1403D02*
X7Y1403D01*
X4006Y1403D02*
X4013Y1403D01*
X0Y1402D02*
X7Y1402D01*
X4006Y1402D02*
X4013Y1402D01*
X0Y1401D02*
X7Y1401D01*
X4006Y1401D02*
X4013Y1401D01*
X0Y1400D02*
X7Y1400D01*
X4006Y1400D02*
X4013Y1400D01*
X0Y1399D02*
X7Y1399D01*
X4006Y1399D02*
X4013Y1399D01*
X0Y1398D02*
X7Y1398D01*
X4006Y1398D02*
X4013Y1398D01*
X0Y1397D02*
X7Y1397D01*
X4006Y1397D02*
X4013Y1397D01*
X0Y1396D02*
X7Y1396D01*
X4006Y1396D02*
X4013Y1396D01*
X0Y1395D02*
X7Y1395D01*
X4006Y1395D02*
X4013Y1395D01*
X0Y1394D02*
X7Y1394D01*
X4006Y1394D02*
X4013Y1394D01*
X0Y1393D02*
X7Y1393D01*
X4006Y1393D02*
X4013Y1393D01*
X0Y1392D02*
X7Y1392D01*
X4006Y1392D02*
X4013Y1392D01*
X0Y1391D02*
X7Y1391D01*
X4006Y1391D02*
X4013Y1391D01*
X0Y1390D02*
X7Y1390D01*
X4006Y1390D02*
X4013Y1390D01*
X0Y1389D02*
X7Y1389D01*
X4006Y1389D02*
X4013Y1389D01*
X0Y1388D02*
X7Y1388D01*
X4006Y1388D02*
X4013Y1388D01*
X0Y1387D02*
X7Y1387D01*
X4006Y1387D02*
X4013Y1387D01*
X0Y1386D02*
X7Y1386D01*
X4006Y1386D02*
X4013Y1386D01*
X0Y1385D02*
X7Y1385D01*
X4006Y1385D02*
X4013Y1385D01*
X0Y1384D02*
X7Y1384D01*
X4006Y1384D02*
X4013Y1384D01*
X0Y1383D02*
X7Y1383D01*
X4006Y1383D02*
X4013Y1383D01*
X0Y1382D02*
X7Y1382D01*
X4006Y1382D02*
X4013Y1382D01*
X0Y1381D02*
X7Y1381D01*
X4006Y1381D02*
X4013Y1381D01*
X0Y1380D02*
X7Y1380D01*
X4006Y1380D02*
X4013Y1380D01*
X0Y1379D02*
X7Y1379D01*
X4006Y1379D02*
X4013Y1379D01*
X0Y1378D02*
X7Y1378D01*
X4006Y1378D02*
X4013Y1378D01*
X0Y1377D02*
X7Y1377D01*
X4006Y1377D02*
X4013Y1377D01*
X0Y1376D02*
X7Y1376D01*
X4006Y1376D02*
X4013Y1376D01*
X0Y1375D02*
X7Y1375D01*
X4006Y1375D02*
X4013Y1375D01*
X0Y1374D02*
X7Y1374D01*
X4006Y1374D02*
X4013Y1374D01*
X0Y1373D02*
X7Y1373D01*
X4006Y1373D02*
X4013Y1373D01*
X0Y1372D02*
X7Y1372D01*
X4006Y1372D02*
X4013Y1372D01*
X0Y1371D02*
X7Y1371D01*
X4006Y1371D02*
X4013Y1371D01*
X0Y1370D02*
X7Y1370D01*
X4006Y1370D02*
X4013Y1370D01*
X0Y1369D02*
X7Y1369D01*
X4006Y1369D02*
X4013Y1369D01*
X0Y1368D02*
X7Y1368D01*
X4006Y1368D02*
X4013Y1368D01*
X0Y1367D02*
X7Y1367D01*
X4006Y1367D02*
X4013Y1367D01*
X0Y1366D02*
X7Y1366D01*
X4006Y1366D02*
X4013Y1366D01*
X0Y1365D02*
X7Y1365D01*
X4006Y1365D02*
X4013Y1365D01*
X0Y1364D02*
X7Y1364D01*
X4006Y1364D02*
X4013Y1364D01*
X0Y1363D02*
X7Y1363D01*
X4006Y1363D02*
X4013Y1363D01*
X0Y1362D02*
X7Y1362D01*
X4006Y1362D02*
X4013Y1362D01*
X0Y1361D02*
X7Y1361D01*
X4006Y1361D02*
X4013Y1361D01*
X0Y1360D02*
X7Y1360D01*
X4006Y1360D02*
X4013Y1360D01*
X0Y1359D02*
X7Y1359D01*
X4006Y1359D02*
X4013Y1359D01*
X0Y1358D02*
X7Y1358D01*
X4006Y1358D02*
X4013Y1358D01*
X0Y1357D02*
X7Y1357D01*
X4006Y1357D02*
X4013Y1357D01*
X0Y1356D02*
X7Y1356D01*
X4006Y1356D02*
X4013Y1356D01*
X0Y1355D02*
X7Y1355D01*
X4006Y1355D02*
X4013Y1355D01*
X0Y1354D02*
X7Y1354D01*
X4006Y1354D02*
X4013Y1354D01*
X0Y1353D02*
X7Y1353D01*
X4006Y1353D02*
X4013Y1353D01*
X0Y1352D02*
X7Y1352D01*
X4006Y1352D02*
X4013Y1352D01*
X0Y1351D02*
X6Y1351D01*
X4006Y1351D02*
X4013Y1351D01*
X0Y1350D02*
X5Y1350D01*
X4006Y1350D02*
X4013Y1350D01*
X0Y1349D02*
X5Y1349D01*
X4006Y1349D02*
X4013Y1349D01*
X0Y1348D02*
X4Y1348D01*
X4006Y1348D02*
X4013Y1348D01*
X0Y1347D02*
X3Y1347D01*
X4006Y1347D02*
X4013Y1347D01*
X0Y1346D02*
X3Y1346D01*
X4006Y1346D02*
X4013Y1346D01*
X0Y1345D02*
X2Y1345D01*
X4006Y1345D02*
X4013Y1345D01*
X0Y1344D02*
X1Y1344D01*
X4006Y1344D02*
X4013Y1344D01*
X0Y1343D02*
X1Y1343D01*
X4006Y1343D02*
X4013Y1343D01*
X0Y1342D02*
X0Y1342D01*
X4006Y1342D02*
X4013Y1342D01*
X0Y1341D02*
X0Y1341D01*
X4006Y1341D02*
X4013Y1341D01*
X4006Y1340D02*
X4013Y1340D01*
X4006Y1339D02*
X4013Y1339D01*
X4006Y1338D02*
X4013Y1338D01*
X4006Y1337D02*
X4013Y1337D01*
X4006Y1336D02*
X4013Y1336D01*
X4006Y1335D02*
X4013Y1335D01*
X4006Y1334D02*
X4013Y1334D01*
X4006Y1333D02*
X4013Y1333D01*
X4006Y1332D02*
X4013Y1332D01*
X4006Y1331D02*
X4013Y1331D01*
X4006Y1330D02*
X4013Y1330D01*
X4006Y1329D02*
X4013Y1329D01*
X4006Y1328D02*
X4013Y1328D01*
X4006Y1327D02*
X4013Y1327D01*
X4006Y1326D02*
X4013Y1326D01*
X4006Y1325D02*
X4013Y1325D01*
X4006Y1324D02*
X4013Y1324D01*
X4006Y1323D02*
X4013Y1323D01*
X4006Y1322D02*
X4013Y1322D01*
X4006Y1321D02*
X4013Y1321D01*
X4006Y1320D02*
X4013Y1320D01*
X4006Y1319D02*
X4013Y1319D01*
X4006Y1318D02*
X4013Y1318D01*
X4006Y1317D02*
X4013Y1317D01*
X4006Y1316D02*
X4013Y1316D01*
X4006Y1315D02*
X4013Y1315D01*
X4006Y1314D02*
X4013Y1314D01*
X4006Y1313D02*
X4013Y1313D01*
X4006Y1312D02*
X4013Y1312D01*
X4006Y1311D02*
X4013Y1311D01*
X4006Y1310D02*
X4013Y1310D01*
X4006Y1309D02*
X4013Y1309D01*
X4006Y1308D02*
X4013Y1308D01*
X4006Y1307D02*
X4013Y1307D01*
X0Y1306D02*
X0Y1306D01*
X4006Y1306D02*
X4013Y1306D01*
X0Y1305D02*
X0Y1305D01*
X4006Y1305D02*
X4013Y1305D01*
X0Y1304D02*
X1Y1304D01*
X4006Y1304D02*
X4013Y1304D01*
X0Y1303D02*
X1Y1303D01*
X4006Y1303D02*
X4013Y1303D01*
X0Y1302D02*
X2Y1302D01*
X4006Y1302D02*
X4013Y1302D01*
X0Y1301D02*
X3Y1301D01*
X4006Y1301D02*
X4013Y1301D01*
X0Y1300D02*
X3Y1300D01*
X4006Y1300D02*
X4013Y1300D01*
X0Y1299D02*
X4Y1299D01*
X4006Y1299D02*
X4013Y1299D01*
X0Y1298D02*
X5Y1298D01*
X4006Y1298D02*
X4013Y1298D01*
X0Y1297D02*
X5Y1297D01*
X4006Y1297D02*
X4013Y1297D01*
X0Y1296D02*
X6Y1296D01*
X4006Y1296D02*
X4013Y1296D01*
X0Y1295D02*
X7Y1295D01*
X4006Y1295D02*
X4013Y1295D01*
X0Y1294D02*
X7Y1294D01*
X4006Y1294D02*
X4013Y1294D01*
X0Y1293D02*
X7Y1293D01*
X4006Y1293D02*
X4013Y1293D01*
X0Y1292D02*
X7Y1292D01*
X4006Y1292D02*
X4013Y1292D01*
X0Y1291D02*
X7Y1291D01*
X4006Y1291D02*
X4013Y1291D01*
X0Y1290D02*
X7Y1290D01*
X4006Y1290D02*
X4013Y1290D01*
X0Y1289D02*
X7Y1289D01*
X4006Y1289D02*
X4013Y1289D01*
X0Y1288D02*
X7Y1288D01*
X4006Y1288D02*
X4013Y1288D01*
X0Y1287D02*
X7Y1287D01*
X4006Y1287D02*
X4013Y1287D01*
X0Y1286D02*
X7Y1286D01*
X4006Y1286D02*
X4013Y1286D01*
X0Y1285D02*
X7Y1285D01*
X4006Y1285D02*
X4013Y1285D01*
X0Y1284D02*
X7Y1284D01*
X4006Y1284D02*
X4013Y1284D01*
X0Y1283D02*
X7Y1283D01*
X4006Y1283D02*
X4013Y1283D01*
X0Y1282D02*
X7Y1282D01*
X4006Y1282D02*
X4013Y1282D01*
X0Y1281D02*
X7Y1281D01*
X4006Y1281D02*
X4013Y1281D01*
X0Y1280D02*
X7Y1280D01*
X4006Y1280D02*
X4013Y1280D01*
X0Y1279D02*
X7Y1279D01*
X4006Y1279D02*
X4013Y1279D01*
X0Y1278D02*
X7Y1278D01*
X4006Y1278D02*
X4013Y1278D01*
X0Y1277D02*
X7Y1277D01*
X4006Y1277D02*
X4013Y1277D01*
X0Y1276D02*
X7Y1276D01*
X4006Y1276D02*
X4013Y1276D01*
X0Y1275D02*
X7Y1275D01*
X4006Y1275D02*
X4013Y1275D01*
X0Y1274D02*
X7Y1274D01*
X4006Y1274D02*
X4013Y1274D01*
X0Y1273D02*
X7Y1273D01*
X4006Y1273D02*
X4013Y1273D01*
X0Y1272D02*
X7Y1272D01*
X4006Y1272D02*
X4013Y1272D01*
X0Y1271D02*
X7Y1271D01*
X4006Y1271D02*
X4013Y1271D01*
X0Y1270D02*
X7Y1270D01*
X4006Y1270D02*
X4013Y1270D01*
X0Y1269D02*
X7Y1269D01*
X4006Y1269D02*
X4013Y1269D01*
X0Y1268D02*
X7Y1268D01*
X4006Y1268D02*
X4013Y1268D01*
X0Y1267D02*
X7Y1267D01*
X4006Y1267D02*
X4013Y1267D01*
X0Y1266D02*
X7Y1266D01*
X4006Y1266D02*
X4013Y1266D01*
X0Y1265D02*
X7Y1265D01*
X4006Y1265D02*
X4013Y1265D01*
X0Y1264D02*
X7Y1264D01*
X4006Y1264D02*
X4013Y1264D01*
X0Y1263D02*
X7Y1263D01*
X4006Y1263D02*
X4013Y1263D01*
X0Y1262D02*
X7Y1262D01*
X4006Y1262D02*
X4013Y1262D01*
X0Y1261D02*
X7Y1261D01*
X4006Y1261D02*
X4013Y1261D01*
X0Y1260D02*
X7Y1260D01*
X4006Y1260D02*
X4013Y1260D01*
X0Y1259D02*
X7Y1259D01*
X4006Y1259D02*
X4013Y1259D01*
X0Y1258D02*
X7Y1258D01*
X4006Y1258D02*
X4013Y1258D01*
X0Y1257D02*
X7Y1257D01*
X4006Y1257D02*
X4013Y1257D01*
X0Y1256D02*
X7Y1256D01*
X4006Y1256D02*
X4013Y1256D01*
X0Y1255D02*
X7Y1255D01*
X4006Y1255D02*
X4013Y1255D01*
X0Y1254D02*
X7Y1254D01*
X4006Y1254D02*
X4013Y1254D01*
X0Y1253D02*
X7Y1253D01*
X4006Y1253D02*
X4013Y1253D01*
X0Y1252D02*
X7Y1252D01*
X4006Y1252D02*
X4013Y1252D01*
X0Y1251D02*
X7Y1251D01*
X4006Y1251D02*
X4013Y1251D01*
X0Y1250D02*
X7Y1250D01*
X4006Y1250D02*
X4013Y1250D01*
X0Y1249D02*
X7Y1249D01*
X4006Y1249D02*
X4013Y1249D01*
X0Y1248D02*
X7Y1248D01*
X4006Y1248D02*
X4013Y1248D01*
X0Y1247D02*
X7Y1247D01*
X4006Y1247D02*
X4013Y1247D01*
X0Y1246D02*
X7Y1246D01*
X4006Y1246D02*
X4013Y1246D01*
X0Y1245D02*
X7Y1245D01*
X4006Y1245D02*
X4013Y1245D01*
X0Y1244D02*
X7Y1244D01*
X4006Y1244D02*
X4013Y1244D01*
X0Y1243D02*
X7Y1243D01*
X4006Y1243D02*
X4013Y1243D01*
X0Y1242D02*
X7Y1242D01*
X4006Y1242D02*
X4013Y1242D01*
X0Y1241D02*
X7Y1241D01*
X4006Y1241D02*
X4013Y1241D01*
X0Y1240D02*
X7Y1240D01*
X4006Y1240D02*
X4013Y1240D01*
X0Y1239D02*
X7Y1239D01*
X4006Y1239D02*
X4013Y1239D01*
X0Y1238D02*
X7Y1238D01*
X4006Y1238D02*
X4013Y1238D01*
X0Y1237D02*
X7Y1237D01*
X4006Y1237D02*
X4013Y1237D01*
X0Y1236D02*
X7Y1236D01*
X4006Y1236D02*
X4013Y1236D01*
X0Y1235D02*
X7Y1235D01*
X4006Y1235D02*
X4013Y1235D01*
X0Y1234D02*
X7Y1234D01*
X4006Y1234D02*
X4013Y1234D01*
X0Y1233D02*
X7Y1233D01*
X4006Y1233D02*
X4013Y1233D01*
X0Y1232D02*
X7Y1232D01*
X4006Y1232D02*
X4013Y1232D01*
X0Y1231D02*
X7Y1231D01*
X4006Y1231D02*
X4013Y1231D01*
X0Y1230D02*
X7Y1230D01*
X4006Y1230D02*
X4013Y1230D01*
X0Y1229D02*
X7Y1229D01*
X4006Y1229D02*
X4013Y1229D01*
X0Y1228D02*
X7Y1228D01*
X4006Y1228D02*
X4013Y1228D01*
X0Y1227D02*
X7Y1227D01*
X4006Y1227D02*
X4013Y1227D01*
X0Y1226D02*
X7Y1226D01*
X4006Y1226D02*
X4013Y1226D01*
X0Y1225D02*
X7Y1225D01*
X4006Y1225D02*
X4013Y1225D01*
X0Y1224D02*
X7Y1224D01*
X4006Y1224D02*
X4013Y1224D01*
X0Y1223D02*
X7Y1223D01*
X4006Y1223D02*
X4013Y1223D01*
X0Y1222D02*
X7Y1222D01*
X4006Y1222D02*
X4013Y1222D01*
X0Y1221D02*
X7Y1221D01*
X4006Y1221D02*
X4013Y1221D01*
X0Y1220D02*
X7Y1220D01*
X4006Y1220D02*
X4013Y1220D01*
X0Y1219D02*
X7Y1219D01*
X4006Y1219D02*
X4013Y1219D01*
X0Y1218D02*
X7Y1218D01*
X4006Y1218D02*
X4013Y1218D01*
X0Y1217D02*
X7Y1217D01*
X4006Y1217D02*
X4013Y1217D01*
X0Y1216D02*
X7Y1216D01*
X4006Y1216D02*
X4013Y1216D01*
X0Y1215D02*
X7Y1215D01*
X4006Y1215D02*
X4013Y1215D01*
X0Y1214D02*
X7Y1214D01*
X4006Y1214D02*
X4013Y1214D01*
X0Y1213D02*
X7Y1213D01*
X4006Y1213D02*
X4013Y1213D01*
X0Y1212D02*
X7Y1212D01*
X4006Y1212D02*
X4013Y1212D01*
X0Y1211D02*
X7Y1211D01*
X4006Y1211D02*
X4013Y1211D01*
X0Y1210D02*
X7Y1210D01*
X4006Y1210D02*
X4013Y1210D01*
X0Y1209D02*
X7Y1209D01*
X4006Y1209D02*
X4013Y1209D01*
X0Y1208D02*
X7Y1208D01*
X4006Y1208D02*
X4013Y1208D01*
X0Y1207D02*
X7Y1207D01*
X4006Y1207D02*
X4013Y1207D01*
X0Y1206D02*
X7Y1206D01*
X4006Y1206D02*
X4013Y1206D01*
X0Y1205D02*
X7Y1205D01*
X4006Y1205D02*
X4013Y1205D01*
X0Y1204D02*
X7Y1204D01*
X4006Y1204D02*
X4013Y1204D01*
X0Y1203D02*
X7Y1203D01*
X4006Y1203D02*
X4013Y1203D01*
X0Y1202D02*
X7Y1202D01*
X4006Y1202D02*
X4013Y1202D01*
X0Y1201D02*
X7Y1201D01*
X4006Y1201D02*
X4013Y1201D01*
X0Y1200D02*
X7Y1200D01*
X4006Y1200D02*
X4013Y1200D01*
X0Y1199D02*
X7Y1199D01*
X4006Y1199D02*
X4013Y1199D01*
X0Y1198D02*
X7Y1198D01*
X4006Y1198D02*
X4013Y1198D01*
X0Y1197D02*
X7Y1197D01*
X4006Y1197D02*
X4013Y1197D01*
X0Y1196D02*
X7Y1196D01*
X4006Y1196D02*
X4013Y1196D01*
X0Y1195D02*
X7Y1195D01*
X4006Y1195D02*
X4013Y1195D01*
X0Y1194D02*
X7Y1194D01*
X4006Y1194D02*
X4013Y1194D01*
X0Y1193D02*
X7Y1193D01*
X4006Y1193D02*
X4013Y1193D01*
X0Y1192D02*
X7Y1192D01*
X4006Y1192D02*
X4013Y1192D01*
X0Y1191D02*
X7Y1191D01*
X4006Y1191D02*
X4013Y1191D01*
X0Y1190D02*
X7Y1190D01*
X4006Y1190D02*
X4013Y1190D01*
X0Y1189D02*
X7Y1189D01*
X4006Y1189D02*
X4013Y1189D01*
X0Y1188D02*
X7Y1188D01*
X4006Y1188D02*
X4013Y1188D01*
X0Y1187D02*
X7Y1187D01*
X4006Y1187D02*
X4013Y1187D01*
X0Y1186D02*
X7Y1186D01*
X4006Y1186D02*
X4013Y1186D01*
X0Y1185D02*
X7Y1185D01*
X4006Y1185D02*
X4013Y1185D01*
X0Y1184D02*
X7Y1184D01*
X4006Y1184D02*
X4013Y1184D01*
X0Y1183D02*
X7Y1183D01*
X4006Y1183D02*
X4013Y1183D01*
X0Y1182D02*
X7Y1182D01*
X4006Y1182D02*
X4013Y1182D01*
X0Y1181D02*
X7Y1181D01*
X4006Y1181D02*
X4013Y1181D01*
X0Y1180D02*
X7Y1180D01*
X4006Y1180D02*
X4013Y1180D01*
X0Y1179D02*
X7Y1179D01*
X4006Y1179D02*
X4013Y1179D01*
X0Y1178D02*
X7Y1178D01*
X4006Y1178D02*
X4013Y1178D01*
X0Y1177D02*
X7Y1177D01*
X4006Y1177D02*
X4013Y1177D01*
X0Y1176D02*
X7Y1176D01*
X4006Y1176D02*
X4013Y1176D01*
X0Y1175D02*
X7Y1175D01*
X4006Y1175D02*
X4013Y1175D01*
X0Y1174D02*
X7Y1174D01*
X4006Y1174D02*
X4013Y1174D01*
X0Y1173D02*
X7Y1173D01*
X4006Y1173D02*
X4013Y1173D01*
X0Y1172D02*
X7Y1172D01*
X4006Y1172D02*
X4013Y1172D01*
X0Y1171D02*
X7Y1171D01*
X4006Y1171D02*
X4013Y1171D01*
X0Y1170D02*
X7Y1170D01*
X4006Y1170D02*
X4013Y1170D01*
X0Y1169D02*
X7Y1169D01*
X4006Y1169D02*
X4013Y1169D01*
X0Y1168D02*
X7Y1168D01*
X4006Y1168D02*
X4013Y1168D01*
X0Y1167D02*
X7Y1167D01*
X4006Y1167D02*
X4013Y1167D01*
X0Y1166D02*
X7Y1166D01*
X4006Y1166D02*
X4013Y1166D01*
X0Y1165D02*
X7Y1165D01*
X4006Y1165D02*
X4013Y1165D01*
X0Y1164D02*
X7Y1164D01*
X4006Y1164D02*
X4013Y1164D01*
X0Y1163D02*
X7Y1163D01*
X4006Y1163D02*
X4013Y1163D01*
X0Y1162D02*
X7Y1162D01*
X4006Y1162D02*
X4013Y1162D01*
X0Y1161D02*
X7Y1161D01*
X4006Y1161D02*
X4013Y1161D01*
X0Y1160D02*
X7Y1160D01*
X4006Y1160D02*
X4013Y1160D01*
X0Y1159D02*
X7Y1159D01*
X4006Y1159D02*
X4013Y1159D01*
X0Y1158D02*
X7Y1158D01*
X4006Y1158D02*
X4013Y1158D01*
X0Y1157D02*
X7Y1157D01*
X4006Y1157D02*
X4013Y1157D01*
X0Y1156D02*
X7Y1156D01*
X4006Y1156D02*
X4013Y1156D01*
X0Y1155D02*
X7Y1155D01*
X4006Y1155D02*
X4013Y1155D01*
X0Y1154D02*
X7Y1154D01*
X4006Y1154D02*
X4013Y1154D01*
X0Y1153D02*
X7Y1153D01*
X4006Y1153D02*
X4013Y1153D01*
X0Y1152D02*
X7Y1152D01*
X4006Y1152D02*
X4013Y1152D01*
X0Y1151D02*
X7Y1151D01*
X4006Y1151D02*
X4013Y1151D01*
X0Y1150D02*
X7Y1150D01*
X4006Y1150D02*
X4013Y1150D01*
X0Y1149D02*
X7Y1149D01*
X4006Y1149D02*
X4013Y1149D01*
X0Y1148D02*
X7Y1148D01*
X4006Y1148D02*
X4013Y1148D01*
X0Y1147D02*
X7Y1147D01*
X4006Y1147D02*
X4013Y1147D01*
X0Y1146D02*
X7Y1146D01*
X4006Y1146D02*
X4013Y1146D01*
X0Y1145D02*
X7Y1145D01*
X4006Y1145D02*
X4013Y1145D01*
X0Y1144D02*
X7Y1144D01*
X4006Y1144D02*
X4013Y1144D01*
X0Y1143D02*
X7Y1143D01*
X4006Y1143D02*
X4013Y1143D01*
X0Y1142D02*
X7Y1142D01*
X4006Y1142D02*
X4013Y1142D01*
X0Y1141D02*
X7Y1141D01*
X4006Y1141D02*
X4013Y1141D01*
X0Y1140D02*
X7Y1140D01*
X4006Y1140D02*
X4013Y1140D01*
X0Y1139D02*
X7Y1139D01*
X4006Y1139D02*
X4013Y1139D01*
X0Y1138D02*
X7Y1138D01*
X4006Y1138D02*
X4013Y1138D01*
X0Y1137D02*
X7Y1137D01*
X4006Y1137D02*
X4013Y1137D01*
X0Y1136D02*
X7Y1136D01*
X4006Y1136D02*
X4013Y1136D01*
X0Y1135D02*
X7Y1135D01*
X4006Y1135D02*
X4013Y1135D01*
X0Y1134D02*
X7Y1134D01*
X4006Y1134D02*
X4013Y1134D01*
X0Y1133D02*
X7Y1133D01*
X4006Y1133D02*
X4013Y1133D01*
X0Y1132D02*
X7Y1132D01*
X4006Y1132D02*
X4013Y1132D01*
X0Y1131D02*
X7Y1131D01*
X4006Y1131D02*
X4013Y1131D01*
X0Y1130D02*
X7Y1130D01*
X4006Y1130D02*
X4013Y1130D01*
X0Y1129D02*
X7Y1129D01*
X4006Y1129D02*
X4013Y1129D01*
X0Y1128D02*
X7Y1128D01*
X4006Y1128D02*
X4013Y1128D01*
X0Y1127D02*
X7Y1127D01*
X4006Y1127D02*
X4013Y1127D01*
X0Y1126D02*
X7Y1126D01*
X4006Y1126D02*
X4013Y1126D01*
X0Y1125D02*
X7Y1125D01*
X4006Y1125D02*
X4013Y1125D01*
X0Y1124D02*
X7Y1124D01*
X4006Y1124D02*
X4013Y1124D01*
X0Y1123D02*
X7Y1123D01*
X4006Y1123D02*
X4013Y1123D01*
X0Y1122D02*
X7Y1122D01*
X4006Y1122D02*
X4013Y1122D01*
X0Y1121D02*
X7Y1121D01*
X4006Y1121D02*
X4013Y1121D01*
X0Y1120D02*
X7Y1120D01*
X4006Y1120D02*
X4013Y1120D01*
X0Y1119D02*
X7Y1119D01*
X4006Y1119D02*
X4013Y1119D01*
X0Y1118D02*
X7Y1118D01*
X4006Y1118D02*
X4013Y1118D01*
X0Y1117D02*
X7Y1117D01*
X4006Y1117D02*
X4013Y1117D01*
X0Y1116D02*
X7Y1116D01*
X4006Y1116D02*
X4013Y1116D01*
X0Y1115D02*
X7Y1115D01*
X4006Y1115D02*
X4013Y1115D01*
X0Y1114D02*
X7Y1114D01*
X4006Y1114D02*
X4013Y1114D01*
X0Y1113D02*
X7Y1113D01*
X4006Y1113D02*
X4013Y1113D01*
X0Y1112D02*
X7Y1112D01*
X4006Y1112D02*
X4013Y1112D01*
X0Y1111D02*
X7Y1111D01*
X4006Y1111D02*
X4013Y1111D01*
X0Y1110D02*
X7Y1110D01*
X4006Y1110D02*
X4013Y1110D01*
X0Y1109D02*
X7Y1109D01*
X4006Y1109D02*
X4013Y1109D01*
X0Y1108D02*
X7Y1108D01*
X4006Y1108D02*
X4013Y1108D01*
X0Y1107D02*
X7Y1107D01*
X4006Y1107D02*
X4013Y1107D01*
X0Y1106D02*
X7Y1106D01*
X4006Y1106D02*
X4013Y1106D01*
X0Y1105D02*
X7Y1105D01*
X4006Y1105D02*
X4013Y1105D01*
X0Y1104D02*
X7Y1104D01*
X4006Y1104D02*
X4013Y1104D01*
X0Y1103D02*
X7Y1103D01*
X4006Y1103D02*
X4013Y1103D01*
X0Y1102D02*
X7Y1102D01*
X4006Y1102D02*
X4013Y1102D01*
X0Y1101D02*
X7Y1101D01*
X4006Y1101D02*
X4013Y1101D01*
X0Y1100D02*
X7Y1100D01*
X4006Y1100D02*
X4013Y1100D01*
X0Y1099D02*
X7Y1099D01*
X4006Y1099D02*
X4013Y1099D01*
X0Y1098D02*
X7Y1098D01*
X4006Y1098D02*
X4013Y1098D01*
X0Y1097D02*
X7Y1097D01*
X4006Y1097D02*
X4013Y1097D01*
X0Y1096D02*
X7Y1096D01*
X4006Y1096D02*
X4013Y1096D01*
X0Y1095D02*
X7Y1095D01*
X4006Y1095D02*
X4013Y1095D01*
X0Y1094D02*
X7Y1094D01*
X4006Y1094D02*
X4013Y1094D01*
X0Y1093D02*
X7Y1093D01*
X4006Y1093D02*
X4013Y1093D01*
X0Y1092D02*
X7Y1092D01*
X4006Y1092D02*
X4013Y1092D01*
X0Y1091D02*
X7Y1091D01*
X4006Y1091D02*
X4013Y1091D01*
X0Y1090D02*
X7Y1090D01*
X4006Y1090D02*
X4013Y1090D01*
X0Y1089D02*
X7Y1089D01*
X4006Y1089D02*
X4013Y1089D01*
X0Y1088D02*
X7Y1088D01*
X4006Y1088D02*
X4013Y1088D01*
X0Y1087D02*
X7Y1087D01*
X4006Y1087D02*
X4013Y1087D01*
X0Y1086D02*
X7Y1086D01*
X4006Y1086D02*
X4013Y1086D01*
X0Y1085D02*
X7Y1085D01*
X4006Y1085D02*
X4013Y1085D01*
X0Y1084D02*
X7Y1084D01*
X4006Y1084D02*
X4013Y1084D01*
X0Y1083D02*
X7Y1083D01*
X4006Y1083D02*
X4013Y1083D01*
X0Y1082D02*
X7Y1082D01*
X4006Y1082D02*
X4013Y1082D01*
X0Y1081D02*
X7Y1081D01*
X4006Y1081D02*
X4013Y1081D01*
X0Y1080D02*
X7Y1080D01*
X4006Y1080D02*
X4013Y1080D01*
X0Y1079D02*
X7Y1079D01*
X4006Y1079D02*
X4013Y1079D01*
X0Y1078D02*
X7Y1078D01*
X4006Y1078D02*
X4013Y1078D01*
X0Y1077D02*
X7Y1077D01*
X4006Y1077D02*
X4013Y1077D01*
X0Y1076D02*
X7Y1076D01*
X4006Y1076D02*
X4013Y1076D01*
X0Y1075D02*
X7Y1075D01*
X4006Y1075D02*
X4013Y1075D01*
X0Y1074D02*
X7Y1074D01*
X4006Y1074D02*
X4013Y1074D01*
X0Y1073D02*
X7Y1073D01*
X4006Y1073D02*
X4013Y1073D01*
X0Y1072D02*
X7Y1072D01*
X4006Y1072D02*
X4013Y1072D01*
X0Y1071D02*
X7Y1071D01*
X4006Y1071D02*
X4013Y1071D01*
X0Y1070D02*
X7Y1070D01*
X4006Y1070D02*
X4013Y1070D01*
X0Y1069D02*
X7Y1069D01*
X4006Y1069D02*
X4013Y1069D01*
X0Y1068D02*
X7Y1068D01*
X4006Y1068D02*
X4013Y1068D01*
X0Y1067D02*
X7Y1067D01*
X4006Y1067D02*
X4013Y1067D01*
X0Y1066D02*
X7Y1066D01*
X4006Y1066D02*
X4013Y1066D01*
X0Y1065D02*
X7Y1065D01*
X4006Y1065D02*
X4013Y1065D01*
X0Y1064D02*
X7Y1064D01*
X4006Y1064D02*
X4013Y1064D01*
X0Y1063D02*
X7Y1063D01*
X4006Y1063D02*
X4013Y1063D01*
X0Y1062D02*
X7Y1062D01*
X4006Y1062D02*
X4013Y1062D01*
X0Y1061D02*
X7Y1061D01*
X4006Y1061D02*
X4013Y1061D01*
X0Y1060D02*
X7Y1060D01*
X4006Y1060D02*
X4013Y1060D01*
X0Y1059D02*
X7Y1059D01*
X4006Y1059D02*
X4013Y1059D01*
X0Y1058D02*
X7Y1058D01*
X4006Y1058D02*
X4013Y1058D01*
X0Y1057D02*
X7Y1057D01*
X4006Y1057D02*
X4013Y1057D01*
X0Y1056D02*
X7Y1056D01*
X4006Y1056D02*
X4013Y1056D01*
X0Y1055D02*
X7Y1055D01*
X4006Y1055D02*
X4013Y1055D01*
X0Y1054D02*
X7Y1054D01*
X4006Y1054D02*
X4013Y1054D01*
X0Y1053D02*
X7Y1053D01*
X4006Y1053D02*
X4013Y1053D01*
X0Y1052D02*
X7Y1052D01*
X4006Y1052D02*
X4013Y1052D01*
X0Y1051D02*
X6Y1051D01*
X4006Y1051D02*
X4013Y1051D01*
X0Y1050D02*
X5Y1050D01*
X4006Y1050D02*
X4013Y1050D01*
X0Y1049D02*
X5Y1049D01*
X4006Y1049D02*
X4013Y1049D01*
X0Y1048D02*
X4Y1048D01*
X4006Y1048D02*
X4013Y1048D01*
X0Y1047D02*
X3Y1047D01*
X4006Y1047D02*
X4013Y1047D01*
X0Y1046D02*
X3Y1046D01*
X4006Y1046D02*
X4013Y1046D01*
X0Y1045D02*
X2Y1045D01*
X4006Y1045D02*
X4013Y1045D01*
X0Y1044D02*
X1Y1044D01*
X4006Y1044D02*
X4013Y1044D01*
X0Y1043D02*
X1Y1043D01*
X4006Y1043D02*
X4013Y1043D01*
X0Y1042D02*
X0Y1042D01*
X4006Y1042D02*
X4013Y1042D01*
X0Y1041D02*
X0Y1041D01*
X4006Y1041D02*
X4013Y1041D01*
X4006Y1040D02*
X4013Y1040D01*
X4006Y1039D02*
X4013Y1039D01*
X4006Y1038D02*
X4013Y1038D01*
X4006Y1037D02*
X4013Y1037D01*
X4006Y1036D02*
X4013Y1036D01*
X4006Y1035D02*
X4013Y1035D01*
X4006Y1034D02*
X4013Y1034D01*
X4006Y1033D02*
X4013Y1033D01*
X4006Y1032D02*
X4013Y1032D01*
X4006Y1031D02*
X4013Y1031D01*
X4006Y1030D02*
X4013Y1030D01*
X4006Y1029D02*
X4013Y1029D01*
X4006Y1028D02*
X4013Y1028D01*
X4006Y1027D02*
X4013Y1027D01*
X4006Y1026D02*
X4013Y1026D01*
X4006Y1025D02*
X4013Y1025D01*
X4006Y1024D02*
X4013Y1024D01*
X4006Y1023D02*
X4013Y1023D01*
X4006Y1022D02*
X4013Y1022D01*
X4006Y1021D02*
X4013Y1021D01*
X4006Y1020D02*
X4013Y1020D01*
X4006Y1019D02*
X4013Y1019D01*
X4006Y1018D02*
X4013Y1018D01*
X4006Y1017D02*
X4013Y1017D01*
X4006Y1016D02*
X4013Y1016D01*
X4006Y1015D02*
X4013Y1015D01*
X4006Y1014D02*
X4013Y1014D01*
X4006Y1013D02*
X4013Y1013D01*
X4006Y1012D02*
X4013Y1012D01*
X4006Y1011D02*
X4013Y1011D01*
X4006Y1010D02*
X4013Y1010D01*
X4006Y1009D02*
X4013Y1009D01*
X4006Y1008D02*
X4013Y1008D01*
X4006Y1007D02*
X4013Y1007D01*
X0Y1006D02*
X0Y1006D01*
X4006Y1006D02*
X4013Y1006D01*
X0Y1005D02*
X0Y1005D01*
X4006Y1005D02*
X4013Y1005D01*
X0Y1004D02*
X1Y1004D01*
X4006Y1004D02*
X4013Y1004D01*
X0Y1003D02*
X1Y1003D01*
X4006Y1003D02*
X4013Y1003D01*
X0Y1002D02*
X2Y1002D01*
X4006Y1002D02*
X4013Y1002D01*
X0Y1001D02*
X3Y1001D01*
X4006Y1001D02*
X4013Y1001D01*
X0Y1000D02*
X3Y1000D01*
X4006Y1000D02*
X4013Y1000D01*
X0Y999D02*
X4Y999D01*
X4006Y999D02*
X4013Y999D01*
X0Y998D02*
X5Y998D01*
X4006Y998D02*
X4013Y998D01*
X0Y997D02*
X5Y997D01*
X4006Y997D02*
X4013Y997D01*
X0Y996D02*
X6Y996D01*
X4006Y996D02*
X4013Y996D01*
X0Y995D02*
X7Y995D01*
X4006Y995D02*
X4013Y995D01*
X0Y994D02*
X7Y994D01*
X4006Y994D02*
X4013Y994D01*
X0Y993D02*
X7Y993D01*
X4006Y993D02*
X4013Y993D01*
X0Y992D02*
X7Y992D01*
X4006Y992D02*
X4013Y992D01*
X0Y991D02*
X7Y991D01*
X4006Y991D02*
X4013Y991D01*
X0Y990D02*
X7Y990D01*
X4006Y990D02*
X4013Y990D01*
X0Y989D02*
X7Y989D01*
X4006Y989D02*
X4013Y989D01*
X0Y988D02*
X7Y988D01*
X4006Y988D02*
X4013Y988D01*
X0Y987D02*
X7Y987D01*
X4006Y987D02*
X4013Y987D01*
X0Y986D02*
X7Y986D01*
X4006Y986D02*
X4013Y986D01*
X0Y985D02*
X7Y985D01*
X4006Y985D02*
X4013Y985D01*
X0Y984D02*
X7Y984D01*
X4006Y984D02*
X4013Y984D01*
X0Y983D02*
X7Y983D01*
X4006Y983D02*
X4013Y983D01*
X0Y982D02*
X7Y982D01*
X4006Y982D02*
X4013Y982D01*
X0Y981D02*
X7Y981D01*
X4006Y981D02*
X4013Y981D01*
X0Y980D02*
X7Y980D01*
X4006Y980D02*
X4013Y980D01*
X0Y979D02*
X7Y979D01*
X4006Y979D02*
X4013Y979D01*
X0Y978D02*
X7Y978D01*
X4006Y978D02*
X4013Y978D01*
X0Y977D02*
X7Y977D01*
X4006Y977D02*
X4013Y977D01*
X0Y976D02*
X7Y976D01*
X4006Y976D02*
X4013Y976D01*
X0Y975D02*
X7Y975D01*
X4006Y975D02*
X4013Y975D01*
X0Y974D02*
X7Y974D01*
X4006Y974D02*
X4013Y974D01*
X0Y973D02*
X7Y973D01*
X4006Y973D02*
X4013Y973D01*
X0Y972D02*
X7Y972D01*
X4006Y972D02*
X4013Y972D01*
X0Y971D02*
X7Y971D01*
X4006Y971D02*
X4013Y971D01*
X0Y970D02*
X7Y970D01*
X4006Y970D02*
X4013Y970D01*
X0Y969D02*
X7Y969D01*
X4006Y969D02*
X4013Y969D01*
X0Y968D02*
X7Y968D01*
X4006Y968D02*
X4013Y968D01*
X0Y967D02*
X7Y967D01*
X4006Y967D02*
X4013Y967D01*
X0Y966D02*
X7Y966D01*
X4006Y966D02*
X4013Y966D01*
X0Y965D02*
X7Y965D01*
X4006Y965D02*
X4013Y965D01*
X0Y964D02*
X7Y964D01*
X4006Y964D02*
X4013Y964D01*
X0Y963D02*
X7Y963D01*
X4006Y963D02*
X4013Y963D01*
X0Y962D02*
X7Y962D01*
X4006Y962D02*
X4013Y962D01*
X0Y961D02*
X7Y961D01*
X4006Y961D02*
X4013Y961D01*
X0Y960D02*
X7Y960D01*
X4006Y960D02*
X4013Y960D01*
X0Y959D02*
X7Y959D01*
X4006Y959D02*
X4013Y959D01*
X0Y958D02*
X7Y958D01*
X4006Y958D02*
X4013Y958D01*
X0Y957D02*
X7Y957D01*
X4006Y957D02*
X4013Y957D01*
X0Y956D02*
X7Y956D01*
X4006Y956D02*
X4013Y956D01*
X0Y955D02*
X7Y955D01*
X4006Y955D02*
X4013Y955D01*
X0Y954D02*
X7Y954D01*
X4006Y954D02*
X4013Y954D01*
X0Y953D02*
X7Y953D01*
X4006Y953D02*
X4013Y953D01*
X0Y952D02*
X7Y952D01*
X4006Y952D02*
X4013Y952D01*
X0Y951D02*
X7Y951D01*
X4006Y951D02*
X4013Y951D01*
X0Y950D02*
X7Y950D01*
X4006Y950D02*
X4013Y950D01*
X0Y949D02*
X7Y949D01*
X4006Y949D02*
X4013Y949D01*
X0Y948D02*
X7Y948D01*
X4006Y948D02*
X4013Y948D01*
X0Y947D02*
X7Y947D01*
X4006Y947D02*
X4013Y947D01*
X0Y946D02*
X7Y946D01*
X4006Y946D02*
X4013Y946D01*
X0Y945D02*
X7Y945D01*
X4006Y945D02*
X4013Y945D01*
X0Y944D02*
X7Y944D01*
X4006Y944D02*
X4013Y944D01*
X0Y943D02*
X7Y943D01*
X4006Y943D02*
X4013Y943D01*
X0Y942D02*
X7Y942D01*
X4006Y942D02*
X4013Y942D01*
X0Y941D02*
X7Y941D01*
X4006Y941D02*
X4013Y941D01*
X0Y940D02*
X7Y940D01*
X4006Y940D02*
X4013Y940D01*
X0Y939D02*
X7Y939D01*
X4006Y939D02*
X4013Y939D01*
X0Y938D02*
X7Y938D01*
X4006Y938D02*
X4013Y938D01*
X0Y937D02*
X7Y937D01*
X4006Y937D02*
X4013Y937D01*
X0Y936D02*
X7Y936D01*
X4006Y936D02*
X4013Y936D01*
X0Y935D02*
X7Y935D01*
X4006Y935D02*
X4013Y935D01*
X0Y934D02*
X7Y934D01*
X4006Y934D02*
X4013Y934D01*
X0Y933D02*
X7Y933D01*
X4006Y933D02*
X4013Y933D01*
X0Y932D02*
X7Y932D01*
X4006Y932D02*
X4013Y932D01*
X0Y931D02*
X7Y931D01*
X4006Y931D02*
X4013Y931D01*
X0Y930D02*
X7Y930D01*
X4006Y930D02*
X4013Y930D01*
X0Y929D02*
X7Y929D01*
X4006Y929D02*
X4013Y929D01*
X0Y928D02*
X7Y928D01*
X4006Y928D02*
X4013Y928D01*
X0Y927D02*
X7Y927D01*
X4006Y927D02*
X4013Y927D01*
X0Y926D02*
X7Y926D01*
X4006Y926D02*
X4013Y926D01*
X0Y925D02*
X7Y925D01*
X4006Y925D02*
X4013Y925D01*
X0Y924D02*
X7Y924D01*
X4006Y924D02*
X4013Y924D01*
X0Y923D02*
X7Y923D01*
X4006Y923D02*
X4013Y923D01*
X0Y922D02*
X7Y922D01*
X4006Y922D02*
X4013Y922D01*
X0Y921D02*
X7Y921D01*
X4006Y921D02*
X4013Y921D01*
X0Y920D02*
X7Y920D01*
X4006Y920D02*
X4013Y920D01*
X0Y919D02*
X7Y919D01*
X4006Y919D02*
X4013Y919D01*
X0Y918D02*
X7Y918D01*
X4006Y918D02*
X4013Y918D01*
X0Y917D02*
X7Y917D01*
X4006Y917D02*
X4013Y917D01*
X0Y916D02*
X7Y916D01*
X4006Y916D02*
X4013Y916D01*
X0Y915D02*
X7Y915D01*
X4006Y915D02*
X4013Y915D01*
X0Y914D02*
X7Y914D01*
X4006Y914D02*
X4013Y914D01*
X0Y913D02*
X7Y913D01*
X4006Y913D02*
X4013Y913D01*
X0Y912D02*
X7Y912D01*
X4006Y912D02*
X4013Y912D01*
X0Y911D02*
X7Y911D01*
X4006Y911D02*
X4013Y911D01*
X0Y910D02*
X7Y910D01*
X4006Y910D02*
X4013Y910D01*
X0Y909D02*
X7Y909D01*
X4006Y909D02*
X4013Y909D01*
X0Y908D02*
X7Y908D01*
X4006Y908D02*
X4013Y908D01*
X0Y907D02*
X7Y907D01*
X4006Y907D02*
X4013Y907D01*
X0Y906D02*
X7Y906D01*
X4006Y906D02*
X4013Y906D01*
X0Y905D02*
X7Y905D01*
X4006Y905D02*
X4013Y905D01*
X0Y904D02*
X7Y904D01*
X4006Y904D02*
X4013Y904D01*
X0Y903D02*
X7Y903D01*
X4006Y903D02*
X4013Y903D01*
X0Y902D02*
X7Y902D01*
X4006Y902D02*
X4013Y902D01*
X0Y901D02*
X7Y901D01*
X4006Y901D02*
X4013Y901D01*
X0Y900D02*
X7Y900D01*
X4006Y900D02*
X4013Y900D01*
X0Y899D02*
X7Y899D01*
X4006Y899D02*
X4013Y899D01*
X0Y898D02*
X7Y898D01*
X4006Y898D02*
X4013Y898D01*
X0Y897D02*
X7Y897D01*
X4006Y897D02*
X4013Y897D01*
X0Y896D02*
X7Y896D01*
X4006Y896D02*
X4013Y896D01*
X0Y895D02*
X7Y895D01*
X4006Y895D02*
X4013Y895D01*
X0Y894D02*
X7Y894D01*
X4006Y894D02*
X4013Y894D01*
X0Y893D02*
X7Y893D01*
X4006Y893D02*
X4013Y893D01*
X0Y892D02*
X7Y892D01*
X4006Y892D02*
X4013Y892D01*
X0Y891D02*
X7Y891D01*
X4006Y891D02*
X4013Y891D01*
X0Y890D02*
X7Y890D01*
X4006Y890D02*
X4013Y890D01*
X0Y889D02*
X7Y889D01*
X4006Y889D02*
X4013Y889D01*
X0Y888D02*
X7Y888D01*
X4006Y888D02*
X4013Y888D01*
X0Y887D02*
X7Y887D01*
X4006Y887D02*
X4013Y887D01*
X0Y886D02*
X7Y886D01*
X4006Y886D02*
X4013Y886D01*
X0Y885D02*
X7Y885D01*
X4006Y885D02*
X4013Y885D01*
X0Y884D02*
X7Y884D01*
X4006Y884D02*
X4013Y884D01*
X0Y883D02*
X7Y883D01*
X4006Y883D02*
X4013Y883D01*
X0Y882D02*
X7Y882D01*
X4006Y882D02*
X4013Y882D01*
X0Y881D02*
X7Y881D01*
X4006Y881D02*
X4013Y881D01*
X0Y880D02*
X7Y880D01*
X4006Y880D02*
X4013Y880D01*
X0Y879D02*
X7Y879D01*
X4006Y879D02*
X4013Y879D01*
X0Y878D02*
X7Y878D01*
X4006Y878D02*
X4013Y878D01*
X0Y877D02*
X7Y877D01*
X4006Y877D02*
X4013Y877D01*
X0Y876D02*
X7Y876D01*
X4006Y876D02*
X4013Y876D01*
X0Y875D02*
X7Y875D01*
X4006Y875D02*
X4013Y875D01*
X0Y874D02*
X7Y874D01*
X4006Y874D02*
X4013Y874D01*
X0Y873D02*
X7Y873D01*
X4006Y873D02*
X4013Y873D01*
X0Y872D02*
X7Y872D01*
X4006Y872D02*
X4013Y872D01*
X0Y871D02*
X7Y871D01*
X4006Y871D02*
X4013Y871D01*
X0Y870D02*
X7Y870D01*
X4006Y870D02*
X4013Y870D01*
X0Y869D02*
X7Y869D01*
X4006Y869D02*
X4013Y869D01*
X0Y868D02*
X7Y868D01*
X4006Y868D02*
X4013Y868D01*
X0Y867D02*
X7Y867D01*
X4006Y867D02*
X4013Y867D01*
X0Y866D02*
X7Y866D01*
X4006Y866D02*
X4013Y866D01*
X0Y865D02*
X7Y865D01*
X4006Y865D02*
X4013Y865D01*
X0Y864D02*
X7Y864D01*
X4006Y864D02*
X4013Y864D01*
X0Y863D02*
X7Y863D01*
X4006Y863D02*
X4013Y863D01*
X0Y862D02*
X7Y862D01*
X4006Y862D02*
X4013Y862D01*
X0Y861D02*
X7Y861D01*
X4006Y861D02*
X4013Y861D01*
X0Y860D02*
X7Y860D01*
X4006Y860D02*
X4013Y860D01*
X0Y859D02*
X7Y859D01*
X4006Y859D02*
X4013Y859D01*
X0Y858D02*
X7Y858D01*
X4006Y858D02*
X4013Y858D01*
X0Y857D02*
X7Y857D01*
X4006Y857D02*
X4013Y857D01*
X0Y856D02*
X7Y856D01*
X4006Y856D02*
X4013Y856D01*
X0Y855D02*
X7Y855D01*
X4006Y855D02*
X4013Y855D01*
X0Y854D02*
X7Y854D01*
X4006Y854D02*
X4013Y854D01*
X0Y853D02*
X7Y853D01*
X4006Y853D02*
X4013Y853D01*
X0Y852D02*
X7Y852D01*
X4006Y852D02*
X4013Y852D01*
X0Y851D02*
X6Y851D01*
X4006Y851D02*
X4013Y851D01*
X0Y850D02*
X5Y850D01*
X4006Y850D02*
X4013Y850D01*
X0Y849D02*
X5Y849D01*
X4006Y849D02*
X4013Y849D01*
X0Y848D02*
X4Y848D01*
X4006Y848D02*
X4013Y848D01*
X0Y847D02*
X3Y847D01*
X4006Y847D02*
X4013Y847D01*
X0Y846D02*
X3Y846D01*
X4006Y846D02*
X4013Y846D01*
X0Y845D02*
X2Y845D01*
X4006Y845D02*
X4013Y845D01*
X0Y844D02*
X1Y844D01*
X4006Y844D02*
X4013Y844D01*
X0Y843D02*
X1Y843D01*
X4006Y843D02*
X4013Y843D01*
X0Y842D02*
X0Y842D01*
X4006Y842D02*
X4013Y842D01*
X0Y841D02*
X0Y841D01*
X4006Y841D02*
X4013Y841D01*
X4006Y840D02*
X4013Y840D01*
X4006Y839D02*
X4013Y839D01*
X4006Y838D02*
X4013Y838D01*
X4006Y837D02*
X4013Y837D01*
X4006Y836D02*
X4013Y836D01*
X4006Y835D02*
X4013Y835D01*
X4006Y834D02*
X4013Y834D01*
X4006Y833D02*
X4013Y833D01*
X4006Y832D02*
X4013Y832D01*
X4006Y831D02*
X4013Y831D01*
X4006Y830D02*
X4013Y830D01*
X4006Y829D02*
X4013Y829D01*
X4006Y828D02*
X4013Y828D01*
X4006Y827D02*
X4013Y827D01*
X4006Y826D02*
X4013Y826D01*
X4006Y825D02*
X4013Y825D01*
X4006Y824D02*
X4013Y824D01*
X4006Y823D02*
X4013Y823D01*
X4006Y822D02*
X4013Y822D01*
X4006Y821D02*
X4013Y821D01*
X4006Y820D02*
X4013Y820D01*
X4006Y819D02*
X4013Y819D01*
X4006Y818D02*
X4013Y818D01*
X4006Y817D02*
X4013Y817D01*
X4006Y816D02*
X4013Y816D01*
X4006Y815D02*
X4013Y815D01*
X4006Y814D02*
X4013Y814D01*
X4006Y813D02*
X4013Y813D01*
X4006Y812D02*
X4013Y812D01*
X4006Y811D02*
X4013Y811D01*
X4006Y810D02*
X4013Y810D01*
X4006Y809D02*
X4013Y809D01*
X4006Y808D02*
X4013Y808D01*
X4006Y807D02*
X4013Y807D01*
X0Y806D02*
X0Y806D01*
X4006Y806D02*
X4013Y806D01*
X0Y805D02*
X0Y805D01*
X4006Y805D02*
X4013Y805D01*
X0Y804D02*
X1Y804D01*
X4006Y804D02*
X4013Y804D01*
X0Y803D02*
X1Y803D01*
X4006Y803D02*
X4013Y803D01*
X0Y802D02*
X2Y802D01*
X4006Y802D02*
X4013Y802D01*
X0Y801D02*
X3Y801D01*
X4006Y801D02*
X4013Y801D01*
X0Y800D02*
X3Y800D01*
X4006Y800D02*
X4013Y800D01*
X0Y799D02*
X4Y799D01*
X4006Y799D02*
X4013Y799D01*
X0Y798D02*
X5Y798D01*
X4006Y798D02*
X4013Y798D01*
X0Y797D02*
X5Y797D01*
X4006Y797D02*
X4013Y797D01*
X0Y796D02*
X6Y796D01*
X4006Y796D02*
X4013Y796D01*
X0Y795D02*
X7Y795D01*
X4006Y795D02*
X4013Y795D01*
X0Y794D02*
X7Y794D01*
X4006Y794D02*
X4013Y794D01*
X0Y793D02*
X7Y793D01*
X4006Y793D02*
X4013Y793D01*
X0Y792D02*
X7Y792D01*
X4006Y792D02*
X4013Y792D01*
X0Y791D02*
X7Y791D01*
X4006Y791D02*
X4013Y791D01*
X0Y790D02*
X7Y790D01*
X4006Y790D02*
X4013Y790D01*
X0Y789D02*
X7Y789D01*
X4006Y789D02*
X4013Y789D01*
X0Y788D02*
X7Y788D01*
X4006Y788D02*
X4013Y788D01*
X0Y787D02*
X7Y787D01*
X4006Y787D02*
X4013Y787D01*
X0Y786D02*
X7Y786D01*
X4006Y786D02*
X4013Y786D01*
X0Y785D02*
X7Y785D01*
X4006Y785D02*
X4013Y785D01*
X0Y784D02*
X7Y784D01*
X4006Y784D02*
X4013Y784D01*
X0Y783D02*
X7Y783D01*
X4006Y783D02*
X4013Y783D01*
X0Y782D02*
X7Y782D01*
X4006Y782D02*
X4013Y782D01*
X0Y781D02*
X7Y781D01*
X4006Y781D02*
X4013Y781D01*
X0Y780D02*
X7Y780D01*
X4006Y780D02*
X4013Y780D01*
X0Y779D02*
X7Y779D01*
X4006Y779D02*
X4013Y779D01*
X0Y778D02*
X7Y778D01*
X4006Y778D02*
X4013Y778D01*
X0Y777D02*
X7Y777D01*
X4006Y777D02*
X4013Y777D01*
X0Y776D02*
X7Y776D01*
X4006Y776D02*
X4013Y776D01*
X0Y775D02*
X7Y775D01*
X4006Y775D02*
X4013Y775D01*
X0Y774D02*
X7Y774D01*
X4006Y774D02*
X4013Y774D01*
X0Y773D02*
X7Y773D01*
X4006Y773D02*
X4013Y773D01*
X0Y772D02*
X7Y772D01*
X4006Y772D02*
X4013Y772D01*
X0Y771D02*
X7Y771D01*
X4006Y771D02*
X4013Y771D01*
X0Y770D02*
X7Y770D01*
X4006Y770D02*
X4013Y770D01*
X0Y769D02*
X7Y769D01*
X4006Y769D02*
X4013Y769D01*
X0Y768D02*
X7Y768D01*
X4006Y768D02*
X4013Y768D01*
X0Y767D02*
X7Y767D01*
X4006Y767D02*
X4013Y767D01*
X0Y766D02*
X7Y766D01*
X4006Y766D02*
X4013Y766D01*
X0Y765D02*
X7Y765D01*
X4006Y765D02*
X4013Y765D01*
X0Y764D02*
X7Y764D01*
X4006Y764D02*
X4013Y764D01*
X0Y763D02*
X7Y763D01*
X4006Y763D02*
X4013Y763D01*
X0Y762D02*
X7Y762D01*
X4006Y762D02*
X4013Y762D01*
X0Y761D02*
X7Y761D01*
X4006Y761D02*
X4013Y761D01*
X0Y760D02*
X7Y760D01*
X4006Y760D02*
X4013Y760D01*
X0Y759D02*
X7Y759D01*
X4006Y759D02*
X4013Y759D01*
X0Y758D02*
X7Y758D01*
X4006Y758D02*
X4013Y758D01*
X0Y757D02*
X7Y757D01*
X4006Y757D02*
X4013Y757D01*
X0Y756D02*
X7Y756D01*
X4006Y756D02*
X4013Y756D01*
X0Y755D02*
X7Y755D01*
X4006Y755D02*
X4013Y755D01*
X0Y754D02*
X7Y754D01*
X4006Y754D02*
X4013Y754D01*
X0Y753D02*
X7Y753D01*
X4006Y753D02*
X4013Y753D01*
X0Y752D02*
X7Y752D01*
X4006Y752D02*
X4013Y752D01*
X0Y751D02*
X7Y751D01*
X4006Y751D02*
X4013Y751D01*
X0Y750D02*
X7Y750D01*
X4006Y750D02*
X4013Y750D01*
X0Y749D02*
X7Y749D01*
X4006Y749D02*
X4013Y749D01*
X0Y748D02*
X7Y748D01*
X4006Y748D02*
X4013Y748D01*
X0Y747D02*
X7Y747D01*
X4006Y747D02*
X4013Y747D01*
X0Y746D02*
X7Y746D01*
X4006Y746D02*
X4013Y746D01*
X0Y745D02*
X7Y745D01*
X4006Y745D02*
X4013Y745D01*
X0Y744D02*
X7Y744D01*
X4006Y744D02*
X4013Y744D01*
X0Y743D02*
X7Y743D01*
X4006Y743D02*
X4013Y743D01*
X0Y742D02*
X7Y742D01*
X4006Y742D02*
X4013Y742D01*
X0Y741D02*
X7Y741D01*
X4006Y741D02*
X4013Y741D01*
X0Y740D02*
X7Y740D01*
X4006Y740D02*
X4013Y740D01*
X0Y739D02*
X7Y739D01*
X4006Y739D02*
X4013Y739D01*
X0Y738D02*
X7Y738D01*
X4006Y738D02*
X4013Y738D01*
X0Y737D02*
X7Y737D01*
X4006Y737D02*
X4013Y737D01*
X0Y736D02*
X7Y736D01*
X4006Y736D02*
X4013Y736D01*
X0Y735D02*
X7Y735D01*
X4006Y735D02*
X4013Y735D01*
X0Y734D02*
X7Y734D01*
X4006Y734D02*
X4013Y734D01*
X0Y733D02*
X7Y733D01*
X4006Y733D02*
X4013Y733D01*
X0Y732D02*
X7Y732D01*
X4006Y732D02*
X4013Y732D01*
X0Y731D02*
X7Y731D01*
X4006Y731D02*
X4013Y731D01*
X0Y730D02*
X7Y730D01*
X4006Y730D02*
X4013Y730D01*
X0Y729D02*
X7Y729D01*
X4006Y729D02*
X4013Y729D01*
X0Y728D02*
X7Y728D01*
X4006Y728D02*
X4013Y728D01*
X0Y727D02*
X7Y727D01*
X4006Y727D02*
X4013Y727D01*
X0Y726D02*
X7Y726D01*
X4006Y726D02*
X4013Y726D01*
X0Y725D02*
X7Y725D01*
X4006Y725D02*
X4013Y725D01*
X0Y724D02*
X7Y724D01*
X4006Y724D02*
X4013Y724D01*
X0Y723D02*
X7Y723D01*
X4006Y723D02*
X4013Y723D01*
X0Y722D02*
X7Y722D01*
X4006Y722D02*
X4013Y722D01*
X0Y721D02*
X7Y721D01*
X4006Y721D02*
X4013Y721D01*
X0Y720D02*
X7Y720D01*
X4006Y720D02*
X4013Y720D01*
X0Y719D02*
X7Y719D01*
X4006Y719D02*
X4013Y719D01*
X0Y718D02*
X7Y718D01*
X4006Y718D02*
X4013Y718D01*
X0Y717D02*
X7Y717D01*
X4006Y717D02*
X4013Y717D01*
X0Y716D02*
X7Y716D01*
X4006Y716D02*
X4013Y716D01*
X0Y715D02*
X7Y715D01*
X4006Y715D02*
X4013Y715D01*
X0Y714D02*
X7Y714D01*
X4006Y714D02*
X4013Y714D01*
X0Y713D02*
X7Y713D01*
X4006Y713D02*
X4013Y713D01*
X0Y712D02*
X7Y712D01*
X4006Y712D02*
X4013Y712D01*
X0Y711D02*
X7Y711D01*
X4006Y711D02*
X4013Y711D01*
X0Y710D02*
X7Y710D01*
X4006Y710D02*
X4013Y710D01*
X0Y709D02*
X7Y709D01*
X4006Y709D02*
X4013Y709D01*
X0Y708D02*
X7Y708D01*
X4006Y708D02*
X4013Y708D01*
X0Y707D02*
X7Y707D01*
X4006Y707D02*
X4013Y707D01*
X0Y706D02*
X7Y706D01*
X4006Y706D02*
X4013Y706D01*
X0Y705D02*
X7Y705D01*
X4006Y705D02*
X4013Y705D01*
X0Y704D02*
X7Y704D01*
X4006Y704D02*
X4013Y704D01*
X0Y703D02*
X7Y703D01*
X4006Y703D02*
X4013Y703D01*
X0Y702D02*
X7Y702D01*
X4006Y702D02*
X4013Y702D01*
X0Y701D02*
X7Y701D01*
X4006Y701D02*
X4013Y701D01*
X0Y700D02*
X7Y700D01*
X4006Y700D02*
X4013Y700D01*
X0Y699D02*
X7Y699D01*
X4006Y699D02*
X4013Y699D01*
X0Y698D02*
X7Y698D01*
X4006Y698D02*
X4013Y698D01*
X0Y697D02*
X7Y697D01*
X4006Y697D02*
X4013Y697D01*
X0Y696D02*
X7Y696D01*
X4006Y696D02*
X4013Y696D01*
X0Y695D02*
X7Y695D01*
X4006Y695D02*
X4013Y695D01*
X0Y694D02*
X7Y694D01*
X4006Y694D02*
X4013Y694D01*
X0Y693D02*
X7Y693D01*
X4006Y693D02*
X4013Y693D01*
X0Y692D02*
X7Y692D01*
X4006Y692D02*
X4013Y692D01*
X0Y691D02*
X7Y691D01*
X4006Y691D02*
X4013Y691D01*
X0Y690D02*
X7Y690D01*
X4006Y690D02*
X4013Y690D01*
X0Y689D02*
X7Y689D01*
X4006Y689D02*
X4013Y689D01*
X0Y688D02*
X7Y688D01*
X4006Y688D02*
X4013Y688D01*
X0Y687D02*
X7Y687D01*
X4006Y687D02*
X4013Y687D01*
X0Y686D02*
X7Y686D01*
X4006Y686D02*
X4013Y686D01*
X0Y685D02*
X7Y685D01*
X4006Y685D02*
X4013Y685D01*
X0Y684D02*
X7Y684D01*
X4006Y684D02*
X4013Y684D01*
X0Y683D02*
X7Y683D01*
X4006Y683D02*
X4013Y683D01*
X0Y682D02*
X7Y682D01*
X4006Y682D02*
X4013Y682D01*
X0Y681D02*
X7Y681D01*
X4006Y681D02*
X4013Y681D01*
X0Y680D02*
X7Y680D01*
X4006Y680D02*
X4013Y680D01*
X0Y679D02*
X7Y679D01*
X4006Y679D02*
X4013Y679D01*
X0Y678D02*
X7Y678D01*
X4006Y678D02*
X4013Y678D01*
X0Y677D02*
X7Y677D01*
X4006Y677D02*
X4013Y677D01*
X0Y676D02*
X7Y676D01*
X4006Y676D02*
X4013Y676D01*
X0Y675D02*
X7Y675D01*
X4006Y675D02*
X4013Y675D01*
X0Y674D02*
X7Y674D01*
X4006Y674D02*
X4013Y674D01*
X0Y673D02*
X7Y673D01*
X4006Y673D02*
X4013Y673D01*
X0Y672D02*
X7Y672D01*
X4006Y672D02*
X4013Y672D01*
X0Y671D02*
X7Y671D01*
X4006Y671D02*
X4013Y671D01*
X0Y670D02*
X7Y670D01*
X4006Y670D02*
X4013Y670D01*
X0Y669D02*
X7Y669D01*
X4006Y669D02*
X4013Y669D01*
X0Y668D02*
X7Y668D01*
X4006Y668D02*
X4013Y668D01*
X0Y667D02*
X7Y667D01*
X4006Y667D02*
X4013Y667D01*
X0Y666D02*
X7Y666D01*
X4006Y666D02*
X4013Y666D01*
X0Y665D02*
X7Y665D01*
X4006Y665D02*
X4013Y665D01*
X0Y664D02*
X7Y664D01*
X4006Y664D02*
X4013Y664D01*
X0Y663D02*
X7Y663D01*
X4006Y663D02*
X4013Y663D01*
X0Y662D02*
X7Y662D01*
X4006Y662D02*
X4013Y662D01*
X0Y661D02*
X7Y661D01*
X4006Y661D02*
X4013Y661D01*
X0Y660D02*
X7Y660D01*
X4006Y660D02*
X4013Y660D01*
X0Y659D02*
X7Y659D01*
X4006Y659D02*
X4013Y659D01*
X0Y658D02*
X7Y658D01*
X4006Y658D02*
X4013Y658D01*
X0Y657D02*
X7Y657D01*
X4006Y657D02*
X4013Y657D01*
X0Y656D02*
X7Y656D01*
X4006Y656D02*
X4013Y656D01*
X0Y655D02*
X7Y655D01*
X4006Y655D02*
X4013Y655D01*
X0Y654D02*
X7Y654D01*
X4006Y654D02*
X4013Y654D01*
X0Y653D02*
X7Y653D01*
X4006Y653D02*
X4013Y653D01*
X0Y652D02*
X7Y652D01*
X4006Y652D02*
X4013Y652D01*
X0Y651D02*
X6Y651D01*
X4006Y651D02*
X4013Y651D01*
X0Y650D02*
X5Y650D01*
X4006Y650D02*
X4013Y650D01*
X0Y649D02*
X5Y649D01*
X4006Y649D02*
X4013Y649D01*
X0Y648D02*
X4Y648D01*
X4006Y648D02*
X4013Y648D01*
X0Y647D02*
X3Y647D01*
X4006Y647D02*
X4013Y647D01*
X0Y646D02*
X3Y646D01*
X4006Y646D02*
X4013Y646D01*
X0Y645D02*
X2Y645D01*
X4006Y645D02*
X4013Y645D01*
X0Y644D02*
X1Y644D01*
X4006Y644D02*
X4013Y644D01*
X0Y643D02*
X1Y643D01*
X4006Y643D02*
X4013Y643D01*
X0Y642D02*
X0Y642D01*
X4006Y642D02*
X4013Y642D01*
X0Y641D02*
X0Y641D01*
X4006Y641D02*
X4013Y641D01*
X4006Y640D02*
X4013Y640D01*
X4006Y639D02*
X4013Y639D01*
X4006Y638D02*
X4013Y638D01*
X4006Y637D02*
X4013Y637D01*
X4006Y636D02*
X4013Y636D01*
X4006Y635D02*
X4013Y635D01*
X4006Y634D02*
X4013Y634D01*
X4006Y633D02*
X4013Y633D01*
X4006Y632D02*
X4013Y632D01*
X4006Y631D02*
X4013Y631D01*
X4006Y630D02*
X4013Y630D01*
X4006Y629D02*
X4013Y629D01*
X4006Y628D02*
X4013Y628D01*
X4006Y627D02*
X4013Y627D01*
X4006Y626D02*
X4013Y626D01*
X4006Y625D02*
X4013Y625D01*
X4006Y624D02*
X4013Y624D01*
X4006Y623D02*
X4013Y623D01*
X4006Y622D02*
X4013Y622D01*
X4006Y621D02*
X4013Y621D01*
X4006Y620D02*
X4013Y620D01*
X4006Y619D02*
X4013Y619D01*
X4006Y618D02*
X4013Y618D01*
X4006Y617D02*
X4013Y617D01*
X4006Y616D02*
X4013Y616D01*
X4006Y615D02*
X4013Y615D01*
X4006Y614D02*
X4013Y614D01*
X4006Y613D02*
X4013Y613D01*
X4006Y612D02*
X4013Y612D01*
X4006Y611D02*
X4013Y611D01*
X4006Y610D02*
X4013Y610D01*
X4006Y609D02*
X4013Y609D01*
X4006Y608D02*
X4013Y608D01*
X4006Y607D02*
X4013Y607D01*
X0Y606D02*
X0Y606D01*
X4006Y606D02*
X4013Y606D01*
X0Y605D02*
X0Y605D01*
X4006Y605D02*
X4013Y605D01*
X0Y604D02*
X1Y604D01*
X4006Y604D02*
X4013Y604D01*
X0Y603D02*
X1Y603D01*
X4006Y603D02*
X4013Y603D01*
X0Y602D02*
X2Y602D01*
X4006Y602D02*
X4013Y602D01*
X0Y601D02*
X3Y601D01*
X4006Y601D02*
X4013Y601D01*
X0Y600D02*
X3Y600D01*
X4006Y600D02*
X4013Y600D01*
X0Y599D02*
X4Y599D01*
X4006Y599D02*
X4013Y599D01*
X0Y598D02*
X5Y598D01*
X4006Y598D02*
X4013Y598D01*
X0Y597D02*
X5Y597D01*
X4006Y597D02*
X4013Y597D01*
X0Y596D02*
X6Y596D01*
X4006Y596D02*
X4013Y596D01*
X0Y595D02*
X7Y595D01*
X4006Y595D02*
X4013Y595D01*
X0Y594D02*
X7Y594D01*
X4006Y594D02*
X4013Y594D01*
X0Y593D02*
X7Y593D01*
X4006Y593D02*
X4013Y593D01*
X0Y592D02*
X7Y592D01*
X4006Y592D02*
X4013Y592D01*
X0Y591D02*
X7Y591D01*
X4006Y591D02*
X4013Y591D01*
X0Y590D02*
X7Y590D01*
X4006Y590D02*
X4013Y590D01*
X0Y589D02*
X7Y589D01*
X4006Y589D02*
X4013Y589D01*
X0Y588D02*
X7Y588D01*
X4006Y588D02*
X4013Y588D01*
X0Y587D02*
X7Y587D01*
X4006Y587D02*
X4013Y587D01*
X0Y586D02*
X7Y586D01*
X4006Y586D02*
X4013Y586D01*
X0Y585D02*
X7Y585D01*
X4006Y585D02*
X4013Y585D01*
X0Y584D02*
X7Y584D01*
X4006Y584D02*
X4013Y584D01*
X0Y583D02*
X7Y583D01*
X4006Y583D02*
X4013Y583D01*
X0Y582D02*
X7Y582D01*
X4006Y582D02*
X4013Y582D01*
X0Y581D02*
X7Y581D01*
X4006Y581D02*
X4013Y581D01*
X0Y580D02*
X7Y580D01*
X4006Y580D02*
X4013Y580D01*
X0Y579D02*
X7Y579D01*
X4006Y579D02*
X4013Y579D01*
X0Y578D02*
X7Y578D01*
X4006Y578D02*
X4013Y578D01*
X0Y577D02*
X7Y577D01*
X4006Y577D02*
X4013Y577D01*
X0Y576D02*
X7Y576D01*
X4006Y576D02*
X4013Y576D01*
X0Y575D02*
X7Y575D01*
X4006Y575D02*
X4013Y575D01*
X0Y574D02*
X7Y574D01*
X4006Y574D02*
X4013Y574D01*
X0Y573D02*
X7Y573D01*
X4006Y573D02*
X4013Y573D01*
X0Y572D02*
X7Y572D01*
X4006Y572D02*
X4013Y572D01*
X0Y571D02*
X7Y571D01*
X4006Y571D02*
X4013Y571D01*
X0Y570D02*
X7Y570D01*
X4006Y570D02*
X4013Y570D01*
X0Y569D02*
X7Y569D01*
X4006Y569D02*
X4013Y569D01*
X0Y568D02*
X7Y568D01*
X4006Y568D02*
X4013Y568D01*
X0Y567D02*
X7Y567D01*
X4006Y567D02*
X4013Y567D01*
X0Y566D02*
X7Y566D01*
X4006Y566D02*
X4013Y566D01*
X0Y565D02*
X7Y565D01*
X4006Y565D02*
X4013Y565D01*
X0Y564D02*
X7Y564D01*
X4006Y564D02*
X4013Y564D01*
X0Y563D02*
X7Y563D01*
X4006Y563D02*
X4013Y563D01*
X0Y562D02*
X7Y562D01*
X4006Y562D02*
X4013Y562D01*
X0Y561D02*
X7Y561D01*
X4006Y561D02*
X4013Y561D01*
X0Y560D02*
X7Y560D01*
X4006Y560D02*
X4013Y560D01*
X0Y559D02*
X7Y559D01*
X4006Y559D02*
X4013Y559D01*
X0Y558D02*
X7Y558D01*
X4006Y558D02*
X4013Y558D01*
X0Y557D02*
X7Y557D01*
X4006Y557D02*
X4013Y557D01*
X0Y556D02*
X7Y556D01*
X4006Y556D02*
X4013Y556D01*
X0Y555D02*
X7Y555D01*
X4006Y555D02*
X4013Y555D01*
X0Y554D02*
X7Y554D01*
X4006Y554D02*
X4013Y554D01*
X0Y553D02*
X7Y553D01*
X4006Y553D02*
X4013Y553D01*
X0Y552D02*
X7Y552D01*
X4006Y552D02*
X4013Y552D01*
X0Y551D02*
X7Y551D01*
X4006Y551D02*
X4013Y551D01*
X0Y550D02*
X7Y550D01*
X4006Y550D02*
X4013Y550D01*
X0Y549D02*
X7Y549D01*
X4006Y549D02*
X4013Y549D01*
X0Y548D02*
X7Y548D01*
X4006Y548D02*
X4013Y548D01*
X0Y547D02*
X7Y547D01*
X4006Y547D02*
X4013Y547D01*
X0Y546D02*
X7Y546D01*
X4006Y546D02*
X4013Y546D01*
X0Y545D02*
X7Y545D01*
X4006Y545D02*
X4013Y545D01*
X0Y544D02*
X7Y544D01*
X4006Y544D02*
X4013Y544D01*
X0Y543D02*
X7Y543D01*
X4006Y543D02*
X4013Y543D01*
X0Y542D02*
X7Y542D01*
X4006Y542D02*
X4013Y542D01*
X0Y541D02*
X7Y541D01*
X4006Y541D02*
X4013Y541D01*
X0Y540D02*
X7Y540D01*
X4006Y540D02*
X4013Y540D01*
X0Y539D02*
X7Y539D01*
X4006Y539D02*
X4013Y539D01*
X0Y538D02*
X7Y538D01*
X4006Y538D02*
X4013Y538D01*
X0Y537D02*
X7Y537D01*
X4006Y537D02*
X4013Y537D01*
X0Y536D02*
X7Y536D01*
X4006Y536D02*
X4013Y536D01*
X0Y535D02*
X7Y535D01*
X4006Y535D02*
X4013Y535D01*
X0Y534D02*
X7Y534D01*
X4006Y534D02*
X4013Y534D01*
X0Y533D02*
X7Y533D01*
X4006Y533D02*
X4013Y533D01*
X0Y532D02*
X7Y532D01*
X4006Y532D02*
X4013Y532D01*
X0Y531D02*
X7Y531D01*
X4006Y531D02*
X4013Y531D01*
X0Y530D02*
X7Y530D01*
X4006Y530D02*
X4013Y530D01*
X0Y529D02*
X7Y529D01*
X4006Y529D02*
X4013Y529D01*
X0Y528D02*
X7Y528D01*
X4006Y528D02*
X4013Y528D01*
X0Y527D02*
X7Y527D01*
X4006Y527D02*
X4013Y527D01*
X0Y526D02*
X7Y526D01*
X4006Y526D02*
X4013Y526D01*
X0Y525D02*
X7Y525D01*
X4006Y525D02*
X4013Y525D01*
X0Y524D02*
X7Y524D01*
X4006Y524D02*
X4013Y524D01*
X0Y523D02*
X7Y523D01*
X4006Y523D02*
X4013Y523D01*
X0Y522D02*
X7Y522D01*
X4006Y522D02*
X4013Y522D01*
X0Y521D02*
X7Y521D01*
X4006Y521D02*
X4013Y521D01*
X0Y520D02*
X7Y520D01*
X4006Y520D02*
X4013Y520D01*
X0Y519D02*
X7Y519D01*
X4006Y519D02*
X4013Y519D01*
X0Y518D02*
X7Y518D01*
X4006Y518D02*
X4013Y518D01*
X0Y517D02*
X7Y517D01*
X4006Y517D02*
X4013Y517D01*
X0Y516D02*
X7Y516D01*
X4006Y516D02*
X4013Y516D01*
X0Y515D02*
X7Y515D01*
X4006Y515D02*
X4013Y515D01*
X0Y514D02*
X7Y514D01*
X4006Y514D02*
X4013Y514D01*
X0Y513D02*
X7Y513D01*
X4006Y513D02*
X4013Y513D01*
X0Y512D02*
X7Y512D01*
X4006Y512D02*
X4013Y512D01*
X0Y511D02*
X7Y511D01*
X4006Y511D02*
X4013Y511D01*
X0Y510D02*
X7Y510D01*
X4006Y510D02*
X4013Y510D01*
X0Y509D02*
X7Y509D01*
X4006Y509D02*
X4013Y509D01*
X0Y508D02*
X7Y508D01*
X4006Y508D02*
X4013Y508D01*
X0Y507D02*
X7Y507D01*
X4006Y507D02*
X4013Y507D01*
X0Y506D02*
X7Y506D01*
X4006Y506D02*
X4013Y506D01*
X0Y505D02*
X7Y505D01*
X4006Y505D02*
X4013Y505D01*
X0Y504D02*
X7Y504D01*
X4006Y504D02*
X4013Y504D01*
X0Y503D02*
X7Y503D01*
X4006Y503D02*
X4013Y503D01*
X0Y502D02*
X7Y502D01*
X4006Y502D02*
X4013Y502D01*
X0Y501D02*
X7Y501D01*
X4006Y501D02*
X4013Y501D01*
X0Y500D02*
X7Y500D01*
X4006Y500D02*
X4013Y500D01*
X0Y499D02*
X7Y499D01*
X4006Y499D02*
X4013Y499D01*
X0Y498D02*
X7Y498D01*
X4006Y498D02*
X4013Y498D01*
X0Y497D02*
X7Y497D01*
X4006Y497D02*
X4013Y497D01*
X0Y496D02*
X7Y496D01*
X4006Y496D02*
X4013Y496D01*
X0Y495D02*
X7Y495D01*
X4006Y495D02*
X4013Y495D01*
X0Y494D02*
X7Y494D01*
X4006Y494D02*
X4013Y494D01*
X0Y493D02*
X7Y493D01*
X4006Y493D02*
X4013Y493D01*
X0Y492D02*
X7Y492D01*
X4006Y492D02*
X4013Y492D01*
X0Y491D02*
X7Y491D01*
X4006Y491D02*
X4013Y491D01*
X0Y490D02*
X7Y490D01*
X4006Y490D02*
X4013Y490D01*
X0Y489D02*
X7Y489D01*
X4006Y489D02*
X4013Y489D01*
X0Y488D02*
X7Y488D01*
X4006Y488D02*
X4013Y488D01*
X0Y487D02*
X7Y487D01*
X4006Y487D02*
X4013Y487D01*
X0Y486D02*
X7Y486D01*
X4006Y486D02*
X4013Y486D01*
X0Y485D02*
X7Y485D01*
X4006Y485D02*
X4013Y485D01*
X0Y484D02*
X7Y484D01*
X4006Y484D02*
X4013Y484D01*
X0Y483D02*
X7Y483D01*
X4006Y483D02*
X4013Y483D01*
X0Y482D02*
X7Y482D01*
X4006Y482D02*
X4013Y482D01*
X0Y481D02*
X7Y481D01*
X4006Y481D02*
X4013Y481D01*
X0Y480D02*
X7Y480D01*
X4006Y480D02*
X4013Y480D01*
X0Y479D02*
X7Y479D01*
X4006Y479D02*
X4013Y479D01*
X0Y478D02*
X7Y478D01*
X4006Y478D02*
X4013Y478D01*
X0Y477D02*
X7Y477D01*
X4006Y477D02*
X4013Y477D01*
X0Y476D02*
X7Y476D01*
X4006Y476D02*
X4013Y476D01*
X0Y475D02*
X7Y475D01*
X4006Y475D02*
X4013Y475D01*
X0Y474D02*
X7Y474D01*
X4006Y474D02*
X4013Y474D01*
X0Y473D02*
X7Y473D01*
X4006Y473D02*
X4013Y473D01*
X0Y472D02*
X7Y472D01*
X4006Y472D02*
X4013Y472D01*
X0Y471D02*
X7Y471D01*
X4006Y471D02*
X4013Y471D01*
X0Y470D02*
X7Y470D01*
X4006Y470D02*
X4013Y470D01*
X0Y469D02*
X7Y469D01*
X4006Y469D02*
X4013Y469D01*
X0Y468D02*
X7Y468D01*
X4006Y468D02*
X4013Y468D01*
X0Y467D02*
X7Y467D01*
X4006Y467D02*
X4013Y467D01*
X0Y466D02*
X7Y466D01*
X4006Y466D02*
X4013Y466D01*
X0Y465D02*
X7Y465D01*
X4006Y465D02*
X4013Y465D01*
X0Y464D02*
X7Y464D01*
X4006Y464D02*
X4013Y464D01*
X0Y463D02*
X7Y463D01*
X4006Y463D02*
X4013Y463D01*
X0Y462D02*
X7Y462D01*
X4006Y462D02*
X4013Y462D01*
X0Y461D02*
X7Y461D01*
X4006Y461D02*
X4013Y461D01*
X0Y460D02*
X7Y460D01*
X4006Y460D02*
X4013Y460D01*
X0Y459D02*
X7Y459D01*
X4006Y459D02*
X4013Y459D01*
X0Y458D02*
X7Y458D01*
X4006Y458D02*
X4013Y458D01*
X0Y457D02*
X7Y457D01*
X4006Y457D02*
X4013Y457D01*
X0Y456D02*
X7Y456D01*
X4006Y456D02*
X4013Y456D01*
X0Y455D02*
X7Y455D01*
X4006Y455D02*
X4013Y455D01*
X0Y454D02*
X7Y454D01*
X4006Y454D02*
X4013Y454D01*
X0Y453D02*
X7Y453D01*
X4006Y453D02*
X4013Y453D01*
X0Y452D02*
X7Y452D01*
X4006Y452D02*
X4013Y452D01*
X0Y451D02*
X6Y451D01*
X4006Y451D02*
X4013Y451D01*
X0Y450D02*
X5Y450D01*
X4006Y450D02*
X4013Y450D01*
X0Y449D02*
X5Y449D01*
X4006Y449D02*
X4013Y449D01*
X0Y448D02*
X4Y448D01*
X4006Y448D02*
X4013Y448D01*
X0Y447D02*
X3Y447D01*
X4006Y447D02*
X4013Y447D01*
X0Y446D02*
X2Y446D01*
X4006Y446D02*
X4013Y446D01*
X0Y445D02*
X2Y445D01*
X4006Y445D02*
X4013Y445D01*
X0Y444D02*
X1Y444D01*
X4006Y444D02*
X4013Y444D01*
X0Y443D02*
X1Y443D01*
X4006Y443D02*
X4013Y443D01*
X0Y442D02*
X0Y442D01*
X4006Y442D02*
X4013Y442D01*
X0Y441D02*
X0Y441D01*
X4006Y441D02*
X4013Y441D01*
X4006Y440D02*
X4013Y440D01*
X4006Y439D02*
X4013Y439D01*
X4006Y438D02*
X4013Y438D01*
X4006Y437D02*
X4013Y437D01*
X4006Y436D02*
X4013Y436D01*
X4006Y435D02*
X4013Y435D01*
X4006Y434D02*
X4013Y434D01*
X4006Y433D02*
X4013Y433D01*
X4006Y432D02*
X4013Y432D01*
X4006Y431D02*
X4013Y431D01*
X4006Y430D02*
X4013Y430D01*
X4006Y429D02*
X4013Y429D01*
X4006Y428D02*
X4013Y428D01*
X4006Y427D02*
X4013Y427D01*
X4006Y426D02*
X4013Y426D01*
X4006Y425D02*
X4013Y425D01*
X4006Y424D02*
X4013Y424D01*
X4006Y423D02*
X4013Y423D01*
X4006Y422D02*
X4013Y422D01*
X4006Y421D02*
X4013Y421D01*
X4006Y420D02*
X4013Y420D01*
X4006Y419D02*
X4013Y419D01*
X4006Y418D02*
X4013Y418D01*
X4006Y417D02*
X4013Y417D01*
X4006Y416D02*
X4013Y416D01*
X4006Y415D02*
X4013Y415D01*
X4006Y414D02*
X4013Y414D01*
X4006Y413D02*
X4013Y413D01*
X4006Y412D02*
X4013Y412D01*
X4006Y411D02*
X4013Y411D01*
X4006Y410D02*
X4013Y410D01*
X4006Y409D02*
X4013Y409D01*
X4006Y408D02*
X4013Y408D01*
X4006Y407D02*
X4013Y407D01*
X0Y406D02*
X0Y406D01*
X4006Y406D02*
X4013Y406D01*
X0Y405D02*
X0Y405D01*
X4006Y405D02*
X4013Y405D01*
X0Y404D02*
X1Y404D01*
X4006Y404D02*
X4013Y404D01*
X0Y403D02*
X1Y403D01*
X4006Y403D02*
X4013Y403D01*
X0Y402D02*
X2Y402D01*
X4006Y402D02*
X4013Y402D01*
X0Y401D02*
X3Y401D01*
X4006Y401D02*
X4013Y401D01*
X0Y400D02*
X3Y400D01*
X4006Y400D02*
X4013Y400D01*
X0Y399D02*
X4Y399D01*
X4006Y399D02*
X4013Y399D01*
X0Y398D02*
X5Y398D01*
X4006Y398D02*
X4013Y398D01*
X0Y397D02*
X5Y397D01*
X4006Y397D02*
X4013Y397D01*
X0Y396D02*
X6Y396D01*
X4006Y396D02*
X4013Y396D01*
X0Y395D02*
X7Y395D01*
X4006Y395D02*
X4013Y395D01*
X0Y394D02*
X7Y394D01*
X4006Y394D02*
X4013Y394D01*
X0Y393D02*
X7Y393D01*
X4006Y393D02*
X4013Y393D01*
X0Y392D02*
X7Y392D01*
X4006Y392D02*
X4013Y392D01*
X0Y391D02*
X7Y391D01*
X4006Y391D02*
X4013Y391D01*
X0Y390D02*
X7Y390D01*
X4006Y390D02*
X4013Y390D01*
X0Y389D02*
X7Y389D01*
X4006Y389D02*
X4013Y389D01*
X0Y388D02*
X7Y388D01*
X4006Y388D02*
X4013Y388D01*
X0Y387D02*
X7Y387D01*
X4006Y387D02*
X4013Y387D01*
X0Y386D02*
X7Y386D01*
X4006Y386D02*
X4013Y386D01*
X0Y385D02*
X7Y385D01*
X4006Y385D02*
X4013Y385D01*
X0Y384D02*
X7Y384D01*
X4006Y384D02*
X4013Y384D01*
X0Y383D02*
X7Y383D01*
X4006Y383D02*
X4013Y383D01*
X0Y382D02*
X7Y382D01*
X4006Y382D02*
X4013Y382D01*
X0Y381D02*
X7Y381D01*
X4006Y381D02*
X4013Y381D01*
X0Y380D02*
X7Y380D01*
X4006Y380D02*
X4013Y380D01*
X0Y379D02*
X7Y379D01*
X4006Y379D02*
X4013Y379D01*
X0Y378D02*
X7Y378D01*
X4006Y378D02*
X4013Y378D01*
X0Y377D02*
X7Y377D01*
X4006Y377D02*
X4013Y377D01*
X0Y376D02*
X7Y376D01*
X4006Y376D02*
X4013Y376D01*
X0Y375D02*
X7Y375D01*
X4006Y375D02*
X4013Y375D01*
X0Y374D02*
X7Y374D01*
X4006Y374D02*
X4013Y374D01*
X0Y373D02*
X7Y373D01*
X4006Y373D02*
X4013Y373D01*
X0Y372D02*
X7Y372D01*
X4006Y372D02*
X4013Y372D01*
X0Y371D02*
X7Y371D01*
X4006Y371D02*
X4013Y371D01*
X0Y370D02*
X7Y370D01*
X4006Y370D02*
X4013Y370D01*
X0Y369D02*
X7Y369D01*
X4006Y369D02*
X4013Y369D01*
X0Y368D02*
X7Y368D01*
X4006Y368D02*
X4013Y368D01*
X0Y367D02*
X7Y367D01*
X4006Y367D02*
X4013Y367D01*
X0Y366D02*
X7Y366D01*
X4006Y366D02*
X4013Y366D01*
X0Y365D02*
X7Y365D01*
X4006Y365D02*
X4013Y365D01*
X0Y364D02*
X7Y364D01*
X4006Y364D02*
X4013Y364D01*
X0Y363D02*
X7Y363D01*
X4006Y363D02*
X4013Y363D01*
X0Y362D02*
X7Y362D01*
X4006Y362D02*
X4013Y362D01*
X0Y361D02*
X7Y361D01*
X4006Y361D02*
X4013Y361D01*
X0Y360D02*
X7Y360D01*
X4006Y360D02*
X4013Y360D01*
X0Y359D02*
X7Y359D01*
X4006Y359D02*
X4013Y359D01*
X0Y358D02*
X7Y358D01*
X4006Y358D02*
X4013Y358D01*
X0Y357D02*
X7Y357D01*
X4006Y357D02*
X4013Y357D01*
X0Y356D02*
X7Y356D01*
X4006Y356D02*
X4013Y356D01*
X0Y355D02*
X7Y355D01*
X4006Y355D02*
X4013Y355D01*
X0Y354D02*
X7Y354D01*
X4006Y354D02*
X4013Y354D01*
X0Y353D02*
X7Y353D01*
X4006Y353D02*
X4013Y353D01*
X0Y352D02*
X7Y352D01*
X4006Y352D02*
X4013Y352D01*
X0Y351D02*
X7Y351D01*
X4006Y351D02*
X4013Y351D01*
X0Y350D02*
X7Y350D01*
X4006Y350D02*
X4013Y350D01*
X0Y349D02*
X7Y349D01*
X4006Y349D02*
X4013Y349D01*
X0Y348D02*
X7Y348D01*
X4006Y348D02*
X4013Y348D01*
X0Y347D02*
X7Y347D01*
X4006Y347D02*
X4013Y347D01*
X0Y346D02*
X7Y346D01*
X4006Y346D02*
X4013Y346D01*
X0Y345D02*
X7Y345D01*
X4006Y345D02*
X4013Y345D01*
X0Y344D02*
X7Y344D01*
X4006Y344D02*
X4013Y344D01*
X0Y343D02*
X7Y343D01*
X4006Y343D02*
X4013Y343D01*
X0Y342D02*
X7Y342D01*
X4006Y342D02*
X4013Y342D01*
X0Y341D02*
X7Y341D01*
X4006Y341D02*
X4013Y341D01*
X0Y340D02*
X7Y340D01*
X4006Y340D02*
X4013Y340D01*
X0Y339D02*
X7Y339D01*
X4006Y339D02*
X4013Y339D01*
X0Y338D02*
X7Y338D01*
X4006Y338D02*
X4013Y338D01*
X0Y337D02*
X7Y337D01*
X4006Y337D02*
X4013Y337D01*
X0Y336D02*
X7Y336D01*
X4006Y336D02*
X4013Y336D01*
X0Y335D02*
X7Y335D01*
X4006Y335D02*
X4013Y335D01*
X0Y334D02*
X7Y334D01*
X4006Y334D02*
X4013Y334D01*
X0Y333D02*
X7Y333D01*
X4006Y333D02*
X4013Y333D01*
X0Y332D02*
X7Y332D01*
X4006Y332D02*
X4013Y332D01*
X0Y331D02*
X7Y331D01*
X4006Y331D02*
X4013Y331D01*
X0Y330D02*
X7Y330D01*
X4006Y330D02*
X4013Y330D01*
X0Y329D02*
X7Y329D01*
X4006Y329D02*
X4013Y329D01*
X0Y328D02*
X7Y328D01*
X4006Y328D02*
X4013Y328D01*
X0Y327D02*
X7Y327D01*
X4006Y327D02*
X4013Y327D01*
X0Y326D02*
X7Y326D01*
X4006Y326D02*
X4013Y326D01*
X0Y325D02*
X7Y325D01*
X4006Y325D02*
X4013Y325D01*
X0Y324D02*
X7Y324D01*
X4006Y324D02*
X4013Y324D01*
X0Y323D02*
X7Y323D01*
X4006Y323D02*
X4013Y323D01*
X0Y322D02*
X7Y322D01*
X4006Y322D02*
X4013Y322D01*
X0Y321D02*
X7Y321D01*
X4006Y321D02*
X4013Y321D01*
X0Y320D02*
X7Y320D01*
X4006Y320D02*
X4013Y320D01*
X0Y319D02*
X7Y319D01*
X4006Y319D02*
X4013Y319D01*
X0Y318D02*
X7Y318D01*
X4006Y318D02*
X4013Y318D01*
X0Y317D02*
X7Y317D01*
X4006Y317D02*
X4013Y317D01*
X0Y316D02*
X7Y316D01*
X4006Y316D02*
X4013Y316D01*
X0Y315D02*
X7Y315D01*
X4006Y315D02*
X4013Y315D01*
X0Y314D02*
X7Y314D01*
X4006Y314D02*
X4013Y314D01*
X0Y313D02*
X7Y313D01*
X4006Y313D02*
X4013Y313D01*
X0Y312D02*
X7Y312D01*
X4006Y312D02*
X4013Y312D01*
X0Y311D02*
X7Y311D01*
X4006Y311D02*
X4013Y311D01*
X0Y310D02*
X7Y310D01*
X4006Y310D02*
X4013Y310D01*
X0Y309D02*
X7Y309D01*
X4006Y309D02*
X4013Y309D01*
X0Y308D02*
X7Y308D01*
X4006Y308D02*
X4013Y308D01*
X0Y307D02*
X7Y307D01*
X4006Y307D02*
X4013Y307D01*
X0Y306D02*
X7Y306D01*
X4006Y306D02*
X4013Y306D01*
X0Y305D02*
X7Y305D01*
X4006Y305D02*
X4013Y305D01*
X0Y304D02*
X7Y304D01*
X4006Y304D02*
X4013Y304D01*
X0Y303D02*
X7Y303D01*
X4006Y303D02*
X4013Y303D01*
X0Y302D02*
X7Y302D01*
X4006Y302D02*
X4013Y302D01*
X0Y301D02*
X7Y301D01*
X4006Y301D02*
X4013Y301D01*
X0Y300D02*
X7Y300D01*
X4006Y300D02*
X4013Y300D01*
X0Y299D02*
X7Y299D01*
X4006Y299D02*
X4013Y299D01*
X0Y298D02*
X7Y298D01*
X4006Y298D02*
X4013Y298D01*
X0Y297D02*
X7Y297D01*
X4006Y297D02*
X4013Y297D01*
X0Y296D02*
X7Y296D01*
X4006Y296D02*
X4013Y296D01*
X0Y295D02*
X7Y295D01*
X4006Y295D02*
X4013Y295D01*
X0Y294D02*
X7Y294D01*
X4006Y294D02*
X4013Y294D01*
X0Y293D02*
X7Y293D01*
X4006Y293D02*
X4013Y293D01*
X0Y292D02*
X7Y292D01*
X4006Y292D02*
X4013Y292D01*
X0Y291D02*
X7Y291D01*
X4006Y291D02*
X4013Y291D01*
X0Y290D02*
X7Y290D01*
X4006Y290D02*
X4013Y290D01*
X0Y289D02*
X7Y289D01*
X4006Y289D02*
X4013Y289D01*
X0Y288D02*
X7Y288D01*
X4006Y288D02*
X4013Y288D01*
X0Y287D02*
X7Y287D01*
X4006Y287D02*
X4013Y287D01*
X0Y286D02*
X7Y286D01*
X4006Y286D02*
X4013Y286D01*
X0Y285D02*
X7Y285D01*
X4006Y285D02*
X4013Y285D01*
X0Y284D02*
X7Y284D01*
X4006Y284D02*
X4013Y284D01*
X0Y283D02*
X7Y283D01*
X4006Y283D02*
X4013Y283D01*
X0Y282D02*
X7Y282D01*
X4006Y282D02*
X4013Y282D01*
X0Y281D02*
X7Y281D01*
X4006Y281D02*
X4013Y281D01*
X0Y280D02*
X7Y280D01*
X4006Y280D02*
X4013Y280D01*
X0Y279D02*
X7Y279D01*
X4006Y279D02*
X4013Y279D01*
X0Y278D02*
X7Y278D01*
X4006Y278D02*
X4013Y278D01*
X0Y277D02*
X7Y277D01*
X4006Y277D02*
X4013Y277D01*
X0Y276D02*
X7Y276D01*
X4006Y276D02*
X4013Y276D01*
X0Y275D02*
X7Y275D01*
X4006Y275D02*
X4013Y275D01*
X0Y274D02*
X7Y274D01*
X4006Y274D02*
X4013Y274D01*
X0Y273D02*
X7Y273D01*
X4006Y273D02*
X4013Y273D01*
X0Y272D02*
X7Y272D01*
X4006Y272D02*
X4013Y272D01*
X0Y271D02*
X7Y271D01*
X4006Y271D02*
X4013Y271D01*
X0Y270D02*
X7Y270D01*
X4006Y270D02*
X4013Y270D01*
X0Y269D02*
X7Y269D01*
X4006Y269D02*
X4013Y269D01*
X0Y268D02*
X7Y268D01*
X4006Y268D02*
X4013Y268D01*
X0Y267D02*
X7Y267D01*
X4006Y267D02*
X4013Y267D01*
X0Y266D02*
X7Y266D01*
X4006Y266D02*
X4013Y266D01*
X0Y265D02*
X7Y265D01*
X4006Y265D02*
X4013Y265D01*
X0Y264D02*
X7Y264D01*
X4006Y264D02*
X4013Y264D01*
X0Y263D02*
X7Y263D01*
X4006Y263D02*
X4013Y263D01*
X0Y262D02*
X7Y262D01*
X4006Y262D02*
X4013Y262D01*
X0Y261D02*
X7Y261D01*
X4006Y261D02*
X4013Y261D01*
X0Y260D02*
X7Y260D01*
X4006Y260D02*
X4013Y260D01*
X0Y259D02*
X7Y259D01*
X4006Y259D02*
X4013Y259D01*
X0Y258D02*
X7Y258D01*
X4006Y258D02*
X4013Y258D01*
X0Y257D02*
X7Y257D01*
X4006Y257D02*
X4013Y257D01*
X0Y256D02*
X7Y256D01*
X4006Y256D02*
X4013Y256D01*
X0Y255D02*
X7Y255D01*
X4006Y255D02*
X4013Y255D01*
X0Y254D02*
X7Y254D01*
X4006Y254D02*
X4013Y254D01*
X0Y253D02*
X7Y253D01*
X4006Y253D02*
X4013Y253D01*
X0Y252D02*
X7Y252D01*
X4006Y252D02*
X4013Y252D01*
X0Y251D02*
X7Y251D01*
X4006Y251D02*
X4013Y251D01*
X0Y250D02*
X7Y250D01*
X4006Y250D02*
X4013Y250D01*
X0Y249D02*
X7Y249D01*
X4006Y249D02*
X4013Y249D01*
X0Y248D02*
X7Y248D01*
X4006Y248D02*
X4013Y248D01*
X0Y247D02*
X7Y247D01*
X4006Y247D02*
X4013Y247D01*
X0Y246D02*
X7Y246D01*
X4006Y246D02*
X4013Y246D01*
X0Y245D02*
X7Y245D01*
X4006Y245D02*
X4013Y245D01*
X0Y244D02*
X7Y244D01*
X4006Y244D02*
X4013Y244D01*
X0Y243D02*
X7Y243D01*
X4006Y243D02*
X4013Y243D01*
X0Y242D02*
X7Y242D01*
X4006Y242D02*
X4013Y242D01*
X0Y241D02*
X7Y241D01*
X4006Y241D02*
X4013Y241D01*
X0Y240D02*
X7Y240D01*
X4006Y240D02*
X4013Y240D01*
X0Y239D02*
X7Y239D01*
X4006Y239D02*
X4013Y239D01*
X0Y238D02*
X7Y238D01*
X4006Y238D02*
X4013Y238D01*
X0Y237D02*
X7Y237D01*
X4006Y237D02*
X4013Y237D01*
X0Y236D02*
X7Y236D01*
X4006Y236D02*
X4013Y236D01*
X0Y235D02*
X7Y235D01*
X4006Y235D02*
X4013Y235D01*
X0Y234D02*
X7Y234D01*
X4006Y234D02*
X4013Y234D01*
X0Y233D02*
X7Y233D01*
X4006Y233D02*
X4013Y233D01*
X0Y232D02*
X7Y232D01*
X4006Y232D02*
X4013Y232D01*
X0Y231D02*
X7Y231D01*
X4006Y231D02*
X4013Y231D01*
X0Y230D02*
X7Y230D01*
X4006Y230D02*
X4013Y230D01*
X0Y229D02*
X7Y229D01*
X4006Y229D02*
X4013Y229D01*
X0Y228D02*
X7Y228D01*
X4006Y228D02*
X4013Y228D01*
X0Y227D02*
X7Y227D01*
X4006Y227D02*
X4013Y227D01*
X0Y226D02*
X7Y226D01*
X4006Y226D02*
X4013Y226D01*
X0Y225D02*
X7Y225D01*
X4006Y225D02*
X4013Y225D01*
X0Y224D02*
X7Y224D01*
X4006Y224D02*
X4013Y224D01*
X0Y223D02*
X7Y223D01*
X4006Y223D02*
X4013Y223D01*
X0Y222D02*
X7Y222D01*
X4006Y222D02*
X4013Y222D01*
X0Y221D02*
X7Y221D01*
X4006Y221D02*
X4013Y221D01*
X0Y220D02*
X7Y220D01*
X4006Y220D02*
X4013Y220D01*
X0Y219D02*
X7Y219D01*
X4006Y219D02*
X4013Y219D01*
X0Y218D02*
X7Y218D01*
X4006Y218D02*
X4013Y218D01*
X0Y217D02*
X7Y217D01*
X4006Y217D02*
X4013Y217D01*
X0Y216D02*
X7Y216D01*
X4006Y216D02*
X4013Y216D01*
X0Y215D02*
X7Y215D01*
X4006Y215D02*
X4013Y215D01*
X0Y214D02*
X7Y214D01*
X4006Y214D02*
X4013Y214D01*
X0Y213D02*
X7Y213D01*
X4006Y213D02*
X4013Y213D01*
X0Y212D02*
X7Y212D01*
X4006Y212D02*
X4013Y212D01*
X0Y211D02*
X7Y211D01*
X4006Y211D02*
X4013Y211D01*
X0Y210D02*
X7Y210D01*
X4006Y210D02*
X4013Y210D01*
X0Y209D02*
X7Y209D01*
X4006Y209D02*
X4013Y209D01*
X0Y208D02*
X7Y208D01*
X4006Y208D02*
X4013Y208D01*
X0Y207D02*
X7Y207D01*
X4006Y207D02*
X4013Y207D01*
X0Y206D02*
X7Y206D01*
X4006Y206D02*
X4013Y206D01*
X0Y205D02*
X7Y205D01*
X4006Y205D02*
X4013Y205D01*
X0Y204D02*
X7Y204D01*
X4006Y204D02*
X4013Y204D01*
X0Y203D02*
X7Y203D01*
X4006Y203D02*
X4013Y203D01*
X0Y202D02*
X7Y202D01*
X4006Y202D02*
X4013Y202D01*
X0Y201D02*
X7Y201D01*
X4006Y201D02*
X4013Y201D01*
X0Y200D02*
X7Y200D01*
X4006Y200D02*
X4013Y200D01*
X0Y199D02*
X7Y199D01*
X4006Y199D02*
X4013Y199D01*
X0Y198D02*
X7Y198D01*
X4006Y198D02*
X4013Y198D01*
X0Y197D02*
X7Y197D01*
X4006Y197D02*
X4013Y197D01*
X0Y196D02*
X7Y196D01*
X4006Y196D02*
X4013Y196D01*
X0Y195D02*
X7Y195D01*
X4006Y195D02*
X4013Y195D01*
X0Y194D02*
X7Y194D01*
X4006Y194D02*
X4013Y194D01*
X0Y193D02*
X7Y193D01*
X4006Y193D02*
X4013Y193D01*
X0Y192D02*
X7Y192D01*
X4006Y192D02*
X4013Y192D01*
X0Y191D02*
X7Y191D01*
X4006Y191D02*
X4013Y191D01*
X0Y190D02*
X7Y190D01*
X4006Y190D02*
X4013Y190D01*
X0Y189D02*
X7Y189D01*
X4006Y189D02*
X4013Y189D01*
X0Y188D02*
X7Y188D01*
X4006Y188D02*
X4013Y188D01*
X0Y187D02*
X7Y187D01*
X4006Y187D02*
X4013Y187D01*
X0Y186D02*
X7Y186D01*
X4006Y186D02*
X4013Y186D01*
X0Y185D02*
X7Y185D01*
X4006Y185D02*
X4013Y185D01*
X0Y184D02*
X7Y184D01*
X4006Y184D02*
X4013Y184D01*
X0Y183D02*
X7Y183D01*
X4006Y183D02*
X4013Y183D01*
X0Y182D02*
X7Y182D01*
X4006Y182D02*
X4013Y182D01*
X0Y181D02*
X7Y181D01*
X4006Y181D02*
X4013Y181D01*
X0Y180D02*
X7Y180D01*
X4006Y180D02*
X4013Y180D01*
X0Y179D02*
X7Y179D01*
X4006Y179D02*
X4013Y179D01*
X0Y178D02*
X7Y178D01*
X4006Y178D02*
X4013Y178D01*
X0Y177D02*
X7Y177D01*
X4006Y177D02*
X4013Y177D01*
X0Y176D02*
X7Y176D01*
X4006Y176D02*
X4013Y176D01*
X0Y175D02*
X7Y175D01*
X4006Y175D02*
X4013Y175D01*
X0Y174D02*
X7Y174D01*
X4006Y174D02*
X4013Y174D01*
X0Y173D02*
X7Y173D01*
X4006Y173D02*
X4013Y173D01*
X0Y172D02*
X7Y172D01*
X4006Y172D02*
X4013Y172D01*
X0Y171D02*
X7Y171D01*
X4006Y171D02*
X4013Y171D01*
X0Y170D02*
X7Y170D01*
X4006Y170D02*
X4013Y170D01*
X0Y169D02*
X7Y169D01*
X4006Y169D02*
X4013Y169D01*
X0Y168D02*
X7Y168D01*
X4006Y168D02*
X4013Y168D01*
X0Y167D02*
X7Y167D01*
X4006Y167D02*
X4013Y167D01*
X0Y166D02*
X7Y166D01*
X4006Y166D02*
X4013Y166D01*
X0Y165D02*
X7Y165D01*
X4006Y165D02*
X4013Y165D01*
X0Y164D02*
X7Y164D01*
X4006Y164D02*
X4013Y164D01*
X0Y163D02*
X7Y163D01*
X4006Y163D02*
X4013Y163D01*
X0Y162D02*
X7Y162D01*
X4006Y162D02*
X4013Y162D01*
X0Y161D02*
X7Y161D01*
X4006Y161D02*
X4013Y161D01*
X0Y160D02*
X7Y160D01*
X4006Y160D02*
X4013Y160D01*
X0Y159D02*
X7Y159D01*
X4006Y159D02*
X4013Y159D01*
X0Y158D02*
X7Y158D01*
X4006Y158D02*
X4013Y158D01*
X0Y157D02*
X7Y157D01*
X4006Y157D02*
X4013Y157D01*
X0Y156D02*
X7Y156D01*
X4006Y156D02*
X4013Y156D01*
X0Y155D02*
X7Y155D01*
X4006Y155D02*
X4013Y155D01*
X0Y154D02*
X7Y154D01*
X4006Y154D02*
X4013Y154D01*
X0Y153D02*
X7Y153D01*
X4006Y153D02*
X4013Y153D01*
X0Y152D02*
X7Y152D01*
X4006Y152D02*
X4013Y152D01*
X0Y151D02*
X7Y151D01*
X4006Y151D02*
X4013Y151D01*
X0Y150D02*
X7Y150D01*
X4006Y150D02*
X4013Y150D01*
X0Y149D02*
X7Y149D01*
X4006Y149D02*
X4013Y149D01*
X0Y148D02*
X7Y148D01*
X4006Y148D02*
X4013Y148D01*
X0Y147D02*
X7Y147D01*
X4006Y147D02*
X4013Y147D01*
X0Y146D02*
X7Y146D01*
X4006Y146D02*
X4013Y146D01*
X0Y145D02*
X7Y145D01*
X4006Y145D02*
X4013Y145D01*
X0Y144D02*
X7Y144D01*
X4006Y144D02*
X4013Y144D01*
X0Y143D02*
X7Y143D01*
X4006Y143D02*
X4013Y143D01*
X0Y142D02*
X7Y142D01*
X4006Y142D02*
X4013Y142D01*
X0Y141D02*
X7Y141D01*
X4006Y141D02*
X4013Y141D01*
X0Y140D02*
X7Y140D01*
X4006Y140D02*
X4013Y140D01*
X0Y139D02*
X7Y139D01*
X4006Y139D02*
X4013Y139D01*
X0Y138D02*
X7Y138D01*
X4006Y138D02*
X4013Y138D01*
X0Y137D02*
X7Y137D01*
X4006Y137D02*
X4013Y137D01*
X0Y136D02*
X7Y136D01*
X4006Y136D02*
X4013Y136D01*
X0Y135D02*
X7Y135D01*
X4006Y135D02*
X4013Y135D01*
X0Y134D02*
X7Y134D01*
X4006Y134D02*
X4013Y134D01*
X0Y133D02*
X7Y133D01*
X4006Y133D02*
X4013Y133D01*
X0Y132D02*
X7Y132D01*
X4006Y132D02*
X4013Y132D01*
X0Y131D02*
X7Y131D01*
X4006Y131D02*
X4013Y131D01*
X0Y130D02*
X7Y130D01*
X4006Y130D02*
X4013Y130D01*
X0Y129D02*
X7Y129D01*
X4006Y129D02*
X4013Y129D01*
X0Y128D02*
X7Y128D01*
X4006Y128D02*
X4013Y128D01*
X0Y127D02*
X7Y127D01*
X4006Y127D02*
X4013Y127D01*
X0Y126D02*
X7Y126D01*
X4006Y126D02*
X4013Y126D01*
X0Y125D02*
X7Y125D01*
X4006Y125D02*
X4013Y125D01*
X0Y124D02*
X7Y124D01*
X4006Y124D02*
X4013Y124D01*
X0Y123D02*
X7Y123D01*
X4006Y123D02*
X4013Y123D01*
X0Y122D02*
X7Y122D01*
X4006Y122D02*
X4013Y122D01*
X0Y121D02*
X7Y121D01*
X4006Y121D02*
X4013Y121D01*
X0Y120D02*
X7Y120D01*
X4006Y120D02*
X4013Y120D01*
X0Y119D02*
X7Y119D01*
X4006Y119D02*
X4013Y119D01*
X0Y118D02*
X7Y118D01*
X4006Y118D02*
X4013Y118D01*
X0Y117D02*
X7Y117D01*
X4006Y117D02*
X4013Y117D01*
X0Y116D02*
X7Y116D01*
X4006Y116D02*
X4013Y116D01*
X0Y115D02*
X7Y115D01*
X4006Y115D02*
X4013Y115D01*
X0Y114D02*
X7Y114D01*
X4006Y114D02*
X4013Y114D01*
X0Y113D02*
X7Y113D01*
X4006Y113D02*
X4013Y113D01*
X0Y112D02*
X7Y112D01*
X4006Y112D02*
X4013Y112D01*
X0Y111D02*
X7Y111D01*
X4006Y111D02*
X4013Y111D01*
X0Y110D02*
X7Y110D01*
X4006Y110D02*
X4013Y110D01*
X0Y109D02*
X7Y109D01*
X4006Y109D02*
X4013Y109D01*
X0Y108D02*
X7Y108D01*
X4006Y108D02*
X4013Y108D01*
X0Y107D02*
X7Y107D01*
X4006Y107D02*
X4013Y107D01*
X0Y106D02*
X7Y106D01*
X4006Y106D02*
X4013Y106D01*
X0Y105D02*
X7Y105D01*
X4006Y105D02*
X4013Y105D01*
X0Y104D02*
X7Y104D01*
X4006Y104D02*
X4013Y104D01*
X0Y103D02*
X7Y103D01*
X4006Y103D02*
X4013Y103D01*
X0Y102D02*
X7Y102D01*
X4006Y102D02*
X4013Y102D01*
X0Y101D02*
X7Y101D01*
X4006Y101D02*
X4013Y101D01*
X0Y100D02*
X7Y100D01*
X4006Y100D02*
X4013Y100D01*
X0Y99D02*
X7Y99D01*
X4006Y99D02*
X4013Y99D01*
X0Y98D02*
X7Y98D01*
X4006Y98D02*
X4013Y98D01*
X0Y97D02*
X7Y97D01*
X4006Y97D02*
X4013Y97D01*
X0Y96D02*
X7Y96D01*
X4006Y96D02*
X4013Y96D01*
X0Y95D02*
X7Y95D01*
X4006Y95D02*
X4013Y95D01*
X0Y94D02*
X7Y94D01*
X4006Y94D02*
X4013Y94D01*
X0Y93D02*
X7Y93D01*
X4006Y93D02*
X4013Y93D01*
X0Y92D02*
X7Y92D01*
X4006Y92D02*
X4013Y92D01*
X0Y91D02*
X7Y91D01*
X4006Y91D02*
X4013Y91D01*
X0Y90D02*
X7Y90D01*
X4006Y90D02*
X4013Y90D01*
X0Y89D02*
X7Y89D01*
X4006Y89D02*
X4013Y89D01*
X0Y88D02*
X7Y88D01*
X4006Y88D02*
X4013Y88D01*
X0Y87D02*
X7Y87D01*
X4006Y87D02*
X4013Y87D01*
X0Y86D02*
X7Y86D01*
X4006Y86D02*
X4013Y86D01*
X0Y85D02*
X7Y85D01*
X4006Y85D02*
X4013Y85D01*
X0Y84D02*
X7Y84D01*
X4006Y84D02*
X4013Y84D01*
X0Y83D02*
X7Y83D01*
X4006Y83D02*
X4013Y83D01*
X0Y82D02*
X7Y82D01*
X4006Y82D02*
X4013Y82D01*
X0Y81D02*
X7Y81D01*
X4006Y81D02*
X4013Y81D01*
X0Y80D02*
X7Y80D01*
X4006Y80D02*
X4013Y80D01*
X0Y79D02*
X7Y79D01*
X4006Y79D02*
X4013Y79D01*
X0Y78D02*
X7Y78D01*
X4006Y78D02*
X4013Y78D01*
X0Y77D02*
X7Y77D01*
X4006Y77D02*
X4013Y77D01*
X0Y76D02*
X7Y76D01*
X4006Y76D02*
X4013Y76D01*
X0Y75D02*
X7Y75D01*
X4006Y75D02*
X4013Y75D01*
X0Y74D02*
X7Y74D01*
X4006Y74D02*
X4013Y74D01*
X0Y73D02*
X7Y73D01*
X4006Y73D02*
X4013Y73D01*
X0Y72D02*
X7Y72D01*
X4006Y72D02*
X4013Y72D01*
X0Y71D02*
X7Y71D01*
X4006Y71D02*
X4013Y71D01*
X0Y70D02*
X7Y70D01*
X4006Y70D02*
X4013Y70D01*
X0Y69D02*
X7Y69D01*
X4006Y69D02*
X4013Y69D01*
X0Y68D02*
X7Y68D01*
X4006Y68D02*
X4013Y68D01*
X0Y67D02*
X7Y67D01*
X4006Y67D02*
X4013Y67D01*
X0Y66D02*
X7Y66D01*
X4006Y66D02*
X4013Y66D01*
X0Y65D02*
X7Y65D01*
X4006Y65D02*
X4013Y65D01*
X0Y64D02*
X7Y64D01*
X4006Y64D02*
X4013Y64D01*
X0Y63D02*
X7Y63D01*
X4006Y63D02*
X4013Y63D01*
X0Y62D02*
X7Y62D01*
X4006Y62D02*
X4013Y62D01*
X0Y61D02*
X7Y61D01*
X4006Y61D02*
X4013Y61D01*
X0Y60D02*
X7Y60D01*
X4006Y60D02*
X4013Y60D01*
X0Y59D02*
X7Y59D01*
X4006Y59D02*
X4013Y59D01*
X0Y58D02*
X7Y58D01*
X4006Y58D02*
X4013Y58D01*
X0Y57D02*
X7Y57D01*
X4006Y57D02*
X4013Y57D01*
X0Y56D02*
X7Y56D01*
X4006Y56D02*
X4013Y56D01*
X0Y55D02*
X7Y55D01*
X4006Y55D02*
X4013Y55D01*
X0Y54D02*
X7Y54D01*
X4006Y54D02*
X4013Y54D01*
X0Y53D02*
X7Y53D01*
X4006Y53D02*
X4013Y53D01*
X0Y52D02*
X7Y52D01*
X4006Y52D02*
X4013Y52D01*
X0Y51D02*
X7Y51D01*
X4006Y51D02*
X4013Y51D01*
X0Y50D02*
X7Y50D01*
X4006Y50D02*
X4013Y50D01*
X0Y49D02*
X7Y49D01*
X4006Y49D02*
X4013Y49D01*
X0Y48D02*
X7Y48D01*
X4006Y48D02*
X4013Y48D01*
X0Y47D02*
X7Y47D01*
X4006Y47D02*
X4013Y47D01*
X0Y46D02*
X7Y46D01*
X4006Y46D02*
X4013Y46D01*
X0Y45D02*
X7Y45D01*
X4006Y45D02*
X4013Y45D01*
X0Y44D02*
X7Y44D01*
X4006Y44D02*
X4013Y44D01*
X0Y43D02*
X7Y43D01*
X4006Y43D02*
X4013Y43D01*
X0Y42D02*
X7Y42D01*
X4006Y42D02*
X4013Y42D01*
X0Y41D02*
X7Y41D01*
X4006Y41D02*
X4013Y41D01*
X0Y40D02*
X7Y40D01*
X4006Y40D02*
X4013Y40D01*
X0Y39D02*
X7Y39D01*
X4006Y39D02*
X4013Y39D01*
X0Y38D02*
X7Y38D01*
X4006Y38D02*
X4013Y38D01*
X0Y37D02*
X7Y37D01*
X4006Y37D02*
X4013Y37D01*
X0Y36D02*
X7Y36D01*
X4006Y36D02*
X4013Y36D01*
X0Y35D02*
X7Y35D01*
X4006Y35D02*
X4013Y35D01*
X0Y34D02*
X7Y34D01*
X4006Y34D02*
X4013Y34D01*
X0Y33D02*
X7Y33D01*
X4006Y33D02*
X4013Y33D01*
X0Y32D02*
X7Y32D01*
X4006Y32D02*
X4013Y32D01*
X0Y31D02*
X7Y31D01*
X4006Y31D02*
X4013Y31D01*
X0Y30D02*
X7Y30D01*
X4006Y30D02*
X4013Y30D01*
X0Y29D02*
X7Y29D01*
X4006Y29D02*
X4013Y29D01*
X0Y28D02*
X7Y28D01*
X4006Y28D02*
X4013Y28D01*
X0Y27D02*
X7Y27D01*
X4006Y27D02*
X4013Y27D01*
X0Y26D02*
X7Y26D01*
X4006Y26D02*
X4013Y26D01*
X0Y25D02*
X7Y25D01*
X4006Y25D02*
X4013Y25D01*
X0Y24D02*
X7Y24D01*
X4006Y24D02*
X4013Y24D01*
X0Y23D02*
X7Y23D01*
X4006Y23D02*
X4013Y23D01*
X0Y22D02*
X7Y22D01*
X4006Y22D02*
X4013Y22D01*
X0Y21D02*
X7Y21D01*
X4006Y21D02*
X4013Y21D01*
X0Y20D02*
X7Y20D01*
X4006Y20D02*
X4013Y20D01*
X0Y19D02*
X7Y19D01*
X4006Y19D02*
X4013Y19D01*
X0Y18D02*
X7Y18D01*
X4006Y18D02*
X4013Y18D01*
X0Y17D02*
X7Y17D01*
X4006Y17D02*
X4013Y17D01*
X0Y16D02*
X7Y16D01*
X4006Y16D02*
X4013Y16D01*
X0Y15D02*
X7Y15D01*
X4006Y15D02*
X4013Y15D01*
X0Y14D02*
X7Y14D01*
X4006Y14D02*
X4013Y14D01*
X0Y13D02*
X7Y13D01*
X4006Y13D02*
X4013Y13D01*
X0Y12D02*
X7Y12D01*
X4006Y12D02*
X4013Y12D01*
X0Y11D02*
X7Y11D01*
X4006Y11D02*
X4013Y11D01*
X0Y10D02*
X7Y10D01*
X4006Y10D02*
X4013Y10D01*
X0Y9D02*
X7Y9D01*
X4006Y9D02*
X4013Y9D01*
X0Y8D02*
X4013Y8D01*
X0Y7D02*
X4013Y7D01*
X0Y6D02*
X4013Y6D01*
X0Y5D02*
X4013Y5D01*
X0Y4D02*
X4013Y4D01*
X0Y3D02*
X4013Y3D01*
X0Y2D02*
X4013Y2D01*
X0Y1D02*
X4013Y1D01*
D02*
G04 End of Silk0*
M02*