; NON-PLATED HOLES START AT T1
; THROUGH (PLATED) HOLES START AT T100
M48
INCH
T100C0.038417
T101C0.037396
T102C0.044000
T103C0.038445
T104C0.040000
T105C0.015748
T106C0.035000
T107C0.038000
%
T100
X012078Y001181
X030078Y001181
X024079Y001181
X035078Y001181
X034079Y001181
X020078Y001181
X013078Y001181
X033078Y001181
X023078Y001181
X021078Y001181
X015078Y001181
X018078Y001181
X026078Y001181
X031078Y001181
X017078Y001181
X011078Y001181
X022078Y001181
X027078Y001181
X016078Y001181
X036078Y001181
X032078Y001181
X014078Y001181
X025078Y001181
X029079Y001181
T101
X038078Y018181
X038078Y016181
X037078Y019181
X038078Y017181
X038078Y009181
X038078Y012181
X038078Y020181
X037078Y003181
X038078Y015181
X037078Y007181
X037078Y017181
X037078Y010181
X037078Y013181
X037078Y011181
X038078Y013181
X038078Y010181
X038078Y005181
X038078Y011181
X038078Y008181
X037078Y004181
X037078Y018181
X038078Y003181
X037078Y006181
X038078Y006181
X037078Y008181
X037078Y016181
X038078Y019181
X037078Y005181
X037078Y020181
X038078Y014181
X037078Y014181
X037078Y009181
X037078Y012181
X037078Y015181
X038078Y007181
X038078Y004181
T102
X001128Y017231
X001128Y008231
X001128Y015231
X001128Y019231
X001128Y010231
X001128Y004231
X001128Y006231
X001128Y013231
T103
X029079Y020181
X018078Y020181
X015478Y020181
X025078Y020181
X016478Y020181
X009478Y020181
X007479Y020181
X032078Y020181
X031078Y020181
X030078Y020181
X011478Y020181
X028078Y020181
X021078Y020181
X010478Y020181
X020078Y020181
X027078Y020181
X014478Y020181
X034079Y020181
X013478Y020181
X033078Y020181
X008478Y020181
X024079Y020181
X019078Y020181
X012479Y020181
X022078Y020181
X023078Y020181
T104
X021128Y011381
X033128Y005231
X034228Y005231
X020678Y004031
X034228Y014231
X022128Y014381
X022228Y011381
X002128Y002331
X025128Y007081
X022128Y017381
X026228Y007081
X033128Y011231
X026128Y017381
X031228Y014231
X021678Y003931
X026128Y014381
X031228Y011231
X025228Y004031
X030128Y011231
X022678Y004031
X025128Y011381
X026228Y011381
X034228Y011231
X030128Y017231
X033128Y017231
X030128Y008231
X033128Y014231
X033128Y008231
X002128Y001231
X021028Y017381
X021028Y014381
X030128Y014231
X027228Y004031
X031228Y008231
X026228Y003931
X030128Y005231
X021228Y007031
X034228Y017231
X034228Y008231
X025028Y014381
X031228Y017231
X031228Y005231
X022328Y007031
X025028Y017381
T105
X018131Y006582
X018131Y004662
T106
X010128Y006298
X007128Y014298
X017128Y007298
X017128Y006298
X010128Y015298
X017128Y014331
X007128Y011231
X014128Y014331
X010128Y010231
X007128Y010231
X010128Y014298
X010128Y011231
X014128Y010331
X007128Y015298
X017128Y015331
X007128Y007298
X010128Y007298
X014128Y015331
X017128Y011331
X014128Y011331
X014128Y007298
X014128Y006298
X017128Y010331
X007128Y006298
T107
X008128Y005231
X016128Y013231
X009128Y005231
X015128Y013231
X009128Y009131
X009128Y013231
X010128Y013231
X017128Y009231
X008128Y009131
X008128Y013231
X017128Y013231
X015128Y005231
X016128Y005231
X015128Y009231
X016128Y009231
X010128Y009131
X017128Y005231
X010128Y005231
T00
M30
